<svg width="218" height="213" xmlns="http://www.w3.org/2000/svg" xmlns:xlink="http://www.w3.org/1999/xlink" xmlns:svgjs="http://svgjs.com/svgjs" viewBox="53 59 218 213"><svg width="218" height="213" xmlns="http://www.w3.org/2000/svg" xmlns:xlink="http://www.w3.org/1999/xlink" xmlns:svgjs="http://svgjs.com/svgjs" viewBox="53 59 218 213" x="53" y="59"><svg width="218" height="213" xmlns="http://www.w3.org/2000/svg" xmlns:xlink="http://www.w3.org/1999/xlink" xmlns:svgjs="http://svgjs.com/svgjs" viewBox="53 59 218 213" x="53" y="59"><svg width="217" height="115" xmlns="http://www.w3.org/2000/svg" xmlns:xlink="http://www.w3.org/1999/xlink" xmlns:svgjs="http://svgjs.com/svgjs" fill="#eeedee" x="53" y="59"><svg xmlns="http://www.w3.org/2000/svg" xmlns:xlink="http://www.w3.org/1999/xlink" width="217" height="115"><path paint-order="stroke fill markers" fill-rule="evenodd" d="M216.95 44.964v1.242c-.063 7.344-.766 14.11-1.346 19.116-.062.579-.124 1.117-.186 1.655 0 .062-.02.124-.02.186-.311 2.772-.621 5.42-.952 7.924-.952 7.137-2.11 13.178-4.49 18.309a23.949 23.949 0 0 1-.806 1.634 27.481 27.481 0 0 1-5.607 7.262c-1.655 1.51-3.538 2.979-6.579 4.613-.848.455-1.717.89-2.606 1.283-.518.248-1.056.476-1.594.703-9.206 3.828-20.191 5.214-31.466 5.152-.559 0-1.097 0-1.656-.021-8.812-.166-17.75-1.18-26.17-2.586-.559-.104-1.097-.186-1.655-.29a262.308 262.308 0 0 1-15.682-3.269 251.863 251.863 0 0 1-8.544-2.193 30.103 30.103 0 0 1-1.614-.455c-9.454-2.627-15.516-4.84-15.516-4.84-5.937-2.132-12.165-4.366-18.454-6.766-3.145-1.2-6.31-2.44-9.475-3.744-.786-.331-1.593-.662-2.38-.993a216.47 216.47 0 0 1-3.227-1.386c-7.923-3.435-15.66-7.241-22.715-11.524-.29-.186-.6-.372-.89-.538-.269-.165-.559-.33-.827-.517a111.502 111.502 0 0 1-6.703-4.53c-4.18-3.063-7.986-6.331-11.317-9.89a68.099 68.099 0 0 1-2.834-3.206c-.455-.559-.91-1.138-1.366-1.718-.082-.103-.165-.227-.248-.33-4.034-5.42-6.993-11.42-8.44-18.082-1.18-5.338-2.132-9.765 0-14.461.433-.931.93-1.8 1.53-2.586.414-.559.87-1.076 1.345-1.552 4.84-4.8 13.406-6.579 24.62-7.096l1.654-.062c8.503-.31 18.433.02 29.357.269.558.02 1.096.02 1.655.041 12.454.27 26.17.373 40.487-.744 4.551-.352 9.164-.828 13.82-1.449.558-.082 1.117-.144 1.696-.227 1.758-.248 3.517-.517 5.296-.828 0 0 4.407-.744 11.523-1.8.538-.082 1.076-.165 1.656-.248 4.489-.662 9.91-1.427 15.867-2.213.538-.063 1.097-.145 1.656-.207 9.082-1.159 19.343-2.338 29.542-3.207a44.483 44.483 0 0 0 1.655-.145c1.407-.124 2.793-.227 4.18-.33 3-.104 5.378.061 7.447.558 2.67.662 4.8 1.862 7.034 3.765 3.724 3.186 6.455 7.22 8.462 11.73 1.84 4.159 3.04 8.71 3.806 13.386a75.36 75.36 0 0 1 .662 5.234c.063.558.104 1.117.145 1.675.186 2.814.29 5.586.27 8.296z"/></svg></svg><svg width="214" height="115" xmlns="http://www.w3.org/2000/svg" xmlns:xlink="http://www.w3.org/1999/xlink" xmlns:svgjs="http://svgjs.com/svgjs" fill="#fff" opacity=".502" x="56" y="59"><svg xmlns="http://www.w3.org/2000/svg" xmlns:xlink="http://www.w3.org/1999/xlink" width="214" height="115"><path paint-order="stroke fill markers" fill-rule="evenodd" d="M184.882 34.455l28.777 2.234c-.041-.558-.082-1.117-.144-1.676l-28.778-2.234L181.903.65c-.559.041-1.096.083-1.655.145l2.813 31.86-30.535-2.359-1.8-26.315c-.559.062-1.097.145-1.655.207l1.779 25.964-18.144-1.407c.29-10.986.476-19.426.497-22.364-.559.083-1.118.165-1.655.248-.021 3.02-.207 11.275-.497 21.971l-18.226-1.407 1.883-17.937c-.56.083-1.138.166-1.697.228l-1.841 17.564-52.342-4.055-.103-11.316c-.559 0-1.096-.02-1.655-.041l.124 11.213-28.964-2.255-.517-9.186-1.655.062.476 9.04-25.095-1.923c-.496.476-.951.993-1.345 1.552l26.564 2.048L28.5 56.612l-21.248-.993c.435.58.89 1.158 1.366 1.717l19.964.952.89 16.674c.269.166.558.331.827.518.29.186.6.372.89.538l-.952-17.668 27.33 1.303.29 28.033-3.932-.145c1.076.476 2.152.93 3.228 1.386.786.331 1.593.662 2.379.993v-.496l44.935 1.717-1.49 14.11c.517.144 1.076.289 1.614.454l1.531-14.502 23.233.89c-.228 8.088-.414 14.833-.538 19.053.558.104 1.096.186 1.655.29.124-4.241.31-11.068.559-19.282l24.184.931 1.427 20.937c.56.02 1.118.02 1.656.02l-1.428-20.895 31.633 1.221 1.282 14.544c.538-.228 1.076-.455 1.593-.704l-1.2-13.778 16.013.62c.29-.537.559-1.075.807-1.634l-16.964-.641-2.359-26.936 24.805 1.18c.062-.518.124-1.077.186-1.656l-25.136-1.2-2.648-29.708zM30.154 56.695l-1.84-34.364 28.9 2.235.332 33.432-27.392-1.303zM183.207 34.33l2.606 29.729-31.074-1.47-2.11-30.618 30.578 2.359zm-50.542-3.91l18.288 1.427 2.11 30.68-21.226-1.013c.31-10.882.6-21.805.828-31.094zM58.87 24.69l52.155 4.034-3.331 31.632-48.493-2.296-.331-33.37zm45.741 64.796l-45.12-1.738-.29-28.033 48.286 2.276-2.876 27.495zm24.764.951l-23.108-.89 2.896-27.453 20.978.993c-.27 9.6-.538 19.096-.766 27.35zm.807-29.005l-20.853-.993 3.33-31.57 18.351 1.427c-.228 9.269-.517 20.234-.828 31.136zm.849 29.067c.227-8.234.496-17.73.765-27.329l21.392 1.014 1.862 27.246-24.02-.93zm57.285 2.193l-31.59-1.22-1.862-27.226 31.094 1.469 2.358 26.977z"/></svg></svg><svg width="218" height="90" xmlns="http://www.w3.org/2000/svg" xmlns:xlink="http://www.w3.org/1999/xlink" xmlns:svgjs="http://svgjs.com/svgjs" viewBox="53 182 218 90" x="53" y="182"><svg width="218" height="90" xmlns="http://www.w3.org/2000/svg" xmlns:xlink="http://www.w3.org/1999/xlink" xmlns:svgjs="http://svgjs.com/svgjs" fill="#eeedee" x="53" y="182"><svg xmlns="http://www.w3.org/2000/svg" xmlns:xlink="http://www.w3.org/1999/xlink" width="218" height="90"><path paint-order="stroke fill markers" fill-rule="evenodd" d="M212.956 63.038c-.703 1.22-1.986 3.269-5.11 5.751a36.075 36.075 0 0 1-2.317 1.676c-2.4 1.593-5.565 3.31-9.765 5.09-.662.268-1.324.558-2.027.827-4.51 1.758-10.117 3.558-17.047 5.317-2.09.517-4.324 1.055-6.662 1.551-1.924.414-3.951.848-6.062 1.262-.744.145-1.468.29-2.213.435-.683.144-1.366.269-2.048.393-10.965 2.11-20.358 3.786-28.778 4.406-.703.062-1.386.104-2.068.124-11.565.621-21.289-.91-30.764-6.289-2.648-1.51-4.345-2.793-5.73-4.075a26.223 26.223 0 0 1-1.842-1.883c-.165-.186-.33-.352-.476-.538-.62-.683-1.262-1.427-2.007-2.234-1.53-1.655-3.496-3.58-6.599-6.083-7.634-6.144-15.62-10.385-23.481-13.426-.683-.27-1.366-.517-2.028-.766-7.406-2.669-14.647-4.344-21.35-5.586-.703-.124-1.386-.248-2.09-.372C15.777 45.68 2.909 45.06.406 37.033c-.393-1.262-.476-2.566-.352-3.87.062-.682.207-1.344.393-2.027 1.78-6.62 8.482-13.157 11.44-15.888.373-.352.704-.62.932-.848a23.93 23.93 0 0 1 1.096-.952c5.007-4.22 10.696-7.22 16.778-9.29a57.048 57.048 0 0 1 2.007-.64C40.892 1.035 49.705.166 58.373.29c.683 0 1.387.02 2.07.042C75.357.807 89.715 4.076 99.728 6.91c.683.207 1.366.394 2.007.58a221.443 221.443 0 0 1 9.992 3.206c7.862 2.69 13.427 5.235 17.875 7.614.724.372 1.407.745 2.048 1.117 8.855 4.986 13.468 9.185 25.778 12.434.683.186 1.365.351 2.09.517 1.282.31 2.648.6 4.096.89 10.716 2.13 20.398 2.585 28.508 3.082.704.041 1.386.083 2.069.124 10.923.724 18.702 1.8 21.764 7.882.207.393.372.807.517 1.22.249.725.435 1.449.559 2.173.972 6.517-2.98 13.406-4.076 15.289z"/></svg></svg><svg width="218" height="90" xmlns="http://www.w3.org/2000/svg" xmlns:xlink="http://www.w3.org/1999/xlink" xmlns:svgjs="http://svgjs.com/svgjs" fill="#fff" opacity=".502" x="53" y="182"><svg xmlns="http://www.w3.org/2000/svg" xmlns:xlink="http://www.w3.org/1999/xlink" width="218" height="90"><path paint-order="stroke fill markers" fill-rule="evenodd" d="M194.482 44.232c7.985 1.283 15.557 2.503 22.53 3.62a9.864 9.864 0 0 0-.56-2.172c-3.04-.496-10.985-1.758-22.053-3.537l-.228-5.566-2.069-.124.207 5.359c-9.226-1.49-20.419-3.27-32.646-5.235l-.165-4.117c-.724-.165-1.428-.351-2.09-.517l.186 4.304c-8.337-1.345-17.13-2.731-26.087-4.18l.124-12.578a90.719 90.719 0 0 0-2.049-1.117l-.144 13.364c-5.234-.827-10.51-1.675-15.785-2.523-4.986-.787-9.807-1.573-14.462-2.297l2.525-19.344c-.642-.186-1.325-.393-2.007-.579l-2.545 19.613c-14.192-2.255-26.77-4.262-37.653-5.98l.91-20.212a69.086 69.086 0 0 0-2.068-.041l-.91 19.923c-5.71-.91-10.924-1.717-15.64-2.462-3.145-.497-6-.931-8.586-1.345L32.7 3.87c0-.103-.021-.186-.042-.269-.662.207-1.345.414-2.007.642l.476 11.937a2336.272 2336.272 0 0 0-17.254-2.648c-.372.31-.745.62-1.096.951-.228.207-.559.497-.931.849 3.765.537 10.489 1.572 19.364 2.958l.745 18.64-31.55-5.751c-.186.683-.31 1.345-.393 2.027l32.046 5.814.393 9.64c.683.125 1.386.249 2.09.373l-.394-9.64 22.24 4.033-.496 11.172a80.6 80.6 0 0 1 2.027.765l.518-11.564 35.625 6.454-3.228 24.826L88 74.851c.745.807 1.386 1.53 2.007 2.234l.559.042-.063.517c.58.641 1.18 1.262 1.842 1.882l.29-2.213 36.307 2.793-.103 9.785c.683-.041 1.365-.083 2.069-.124l.103-9.496 28.55 2.193.124 2.876c.683-.124 1.365-.27 2.048-.393l-.103-2.317 8.378.64a275.52 275.52 0 0 0 6.662-1.55l-15.123-1.16-.765-18.164 32.625 5.917.33 8.11c.704-.269 1.387-.559 2.028-.827l-.29-6.91 10.055 1.82a35.89 35.89 0 0 0 2.317-1.676l-12.454-2.296-.91-22.302zM56.49 41.356l-22.426-4.054-.766-18.703c6.93 1.076 15.061 2.359 24.04 3.766l-.848 18.991zm2.048.373l.869-19.033c11.42 1.8 24.143 3.827 37.487 5.937l-2.544 19.592-35.812-6.496zm70.423 36.287l-36.06-2.772 3.207-24.62 33.08 6-.227 21.392zm.248-23.481l-32.832-5.958 2.565-19.634c9.93 1.573 20.192 3.207 30.495 4.862l-.228 20.73zm2.276-20.399c8.772 1.407 17.564 2.814 26.191 4.18l.91 21.536-27.329-4.965.228-20.75zm-.455 44.046l.227-21.185 27.454 4.965.786 18.392-28.467-2.172zm29.646-17.937l-.91-21.578c11.296 1.82 22.302 3.579 32.646 5.234l.89 22.26-32.626-5.916z"/></svg></svg><svg width="218" height="90" xmlns="http://www.w3.org/2000/svg" xmlns:xlink="http://www.w3.org/1999/xlink" xmlns:svgjs="http://svgjs.com/svgjs" fill="none" x="53" y="182"><svg xmlns="http://www.w3.org/2000/svg" xmlns:xlink="http://www.w3.org/1999/xlink" width="218" height="90"><path paint-order="stroke fill markers" d="M212.956 63.038c-.703 1.22-1.986 3.269-5.11 5.751a36.075 36.075 0 0 1-2.317 1.676c-2.4 1.593-5.565 3.31-9.765 5.09-.662.268-1.324.558-2.027.827-4.51 1.758-10.117 3.558-17.047 5.317-2.09.517-4.324 1.055-6.662 1.551-1.924.414-3.951.848-6.062 1.262-.744.145-1.468.29-2.213.435-.683.144-1.366.269-2.048.393-10.965 2.11-20.358 3.786-28.778 4.406-.703.062-1.386.104-2.068.124-11.565.621-21.289-.91-30.764-6.289-2.648-1.51-4.345-2.793-5.73-4.075a26.223 26.223 0 0 1-1.842-1.883c-.165-.186-.33-.352-.476-.538-.62-.683-1.262-1.427-2.007-2.234-1.53-1.655-3.496-3.58-6.599-6.083-7.634-6.144-15.62-10.385-23.481-13.426-.683-.27-1.366-.517-2.028-.766-7.406-2.669-14.647-4.344-21.35-5.586-.703-.124-1.386-.248-2.09-.372C15.777 45.68 2.909 45.06.406 37.033c-.393-1.262-.476-2.566-.352-3.87.062-.682.207-1.344.393-2.027 1.78-6.62 8.482-13.157 11.44-15.888.373-.352.704-.62.932-.848a23.93 23.93 0 0 1 1.096-.952c5.007-4.22 10.696-7.22 16.778-9.29a57.048 57.048 0 0 1 2.007-.64C40.892 1.035 49.705.166 58.373.29c.683 0 1.387.02 2.07.042C75.357.807 89.715 4.076 99.728 6.91c.683.207 1.366.394 2.007.58a221.443 221.443 0 0 1 9.992 3.206c7.862 2.69 13.427 5.235 17.875 7.614.724.372 1.407.745 2.048 1.117 8.855 4.986 13.468 9.185 25.778 12.434.683.186 1.365.351 2.09.517 1.282.31 2.648.6 4.096.89 10.716 2.13 20.398 2.585 28.508 3.082.704.041 1.386.083 2.069.124 10.923.724 18.702 1.8 21.764 7.882.207.393.372.807.517 1.22.249.725.435 1.449.559 2.173.972 6.517-2.98 13.406-4.076 15.289z"/></svg></svg></svg><svg width="73" height="107" xmlns="http://www.w3.org/2000/svg" xmlns:xlink="http://www.w3.org/1999/xlink" xmlns:svgjs="http://svgjs.com/svgjs" viewBox="198 59 73 107" x="198" y="59"><svg width="73" height="107" xmlns="http://www.w3.org/2000/svg" xmlns:xlink="http://www.w3.org/1999/xlink" xmlns:svgjs="http://svgjs.com/svgjs" fill="#bdd3de" opacity=".42" x="198" y="59"><svg xmlns="http://www.w3.org/2000/svg" xmlns:xlink="http://www.w3.org/1999/xlink" width="73" height="107"><path paint-order="stroke fill markers" fill-rule="evenodd" d="M70.832 29.51l1.22 16.53c-.04-.041-.062-.083-.103-.103-.083 8.296-.951 15.847-1.551 20.957-.331 2.772-.621 5.42-.952 7.924-1.552 11.73-3.703 20.522-10.923 27.205-2.007 1.862-4.221 3.372-6.58 4.613a53.674 53.674 0 0 1-10.364-1.407c-11.317-2.69-21.33-8.978-28.674-17.667A53.413 53.413 0 0 1 .409 56.86a53.393 53.393 0 0 1 .58-12.764c1.634-9.91 6-18.972 12.35-26.316A53.263 53.263 0 0 1 44.061.03c3-.104 5.4.062 7.448.558 2.669.641 4.8 1.862 7.034 3.765 3.724 3.186 6.455 7.22 8.462 11.73 1.841 4.18 3.062 8.731 3.827 13.427z"/></svg></svg><svg width="26" height="36" xmlns="http://www.w3.org/2000/svg" xmlns:xlink="http://www.w3.org/1999/xlink" xmlns:svgjs="http://svgjs.com/svgjs" fill="#bdd3de" opacity=".42" x="244" y="98"><svg xmlns="http://www.w3.org/2000/svg" xmlns:xlink="http://www.w3.org/1999/xlink" width="26" height="36"><path paint-order="stroke fill markers" fill-rule="evenodd" d="M25.929 6.916c-.083 8.296-.952 15.847-1.552 20.957-.331 2.773-.621 5.42-.952 7.924a6392.128 6392.128 0 0 1-19.033-4.738C2.944 24.005 1.496 16.93.047 9.875 6.564 6.73 13.081 3.585 19.577.44c2.11 2.172 4.241 4.323 6.352 6.475z"/></svg></svg><svg width="30" height="20" xmlns="http://www.w3.org/2000/svg" xmlns:xlink="http://www.w3.org/1999/xlink" xmlns:svgjs="http://svgjs.com/svgjs" fill="#bdd3de" opacity=".42" x="210" y="145"><svg xmlns="http://www.w3.org/2000/svg" xmlns:xlink="http://www.w3.org/1999/xlink" width="30" height="20"><path paint-order="stroke fill markers" fill-rule="evenodd" d="M29.558 19.209C18.242 16.519 8.228 10.23.884 1.54c.104-.331.207-.662.331-.993L25.151.3c1.449 6.31 2.917 12.599 4.407 18.909z"/></svg></svg><svg width="28" height="33" xmlns="http://www.w3.org/2000/svg" xmlns:xlink="http://www.w3.org/1999/xlink" xmlns:svgjs="http://svgjs.com/svgjs" fill="#bdd3de" opacity=".42" x="198" y="76"><svg xmlns="http://www.w3.org/2000/svg" xmlns:xlink="http://www.w3.org/1999/xlink" width="28" height="33"><path paint-order="stroke fill markers" fill-rule="evenodd" d="M27.18 22.813c-5.958 3.372-11.917 6.724-17.896 10.096-2.793-1.945-5.565-3.89-8.337-5.834A53.56 53.56 0 0 1 13.297.759l9.89.373c1.345 7.22 2.669 14.44 3.993 21.681z"/></svg></svg><svg width="18" height="17" xmlns="http://www.w3.org/2000/svg" xmlns:xlink="http://www.w3.org/1999/xlink" xmlns:svgjs="http://svgjs.com/svgjs" fill="#bdd3de" opacity=".42" x="248" y="59"><svg xmlns="http://www.w3.org/2000/svg" xmlns:xlink="http://www.w3.org/1999/xlink" width="18" height="17"><path paint-order="stroke fill markers" fill-rule="evenodd" d="M17.005 16.104c-.373.186-.745.393-1.118.6L.847 2.72l.662-2.11c2.669.641 4.8 1.862 7.034 3.765 3.724 3.186 6.475 7.22 8.462 11.73z"/></svg></svg></svg><svg width="82" height="53" xmlns="http://www.w3.org/2000/svg" xmlns:xlink="http://www.w3.org/1999/xlink" xmlns:svgjs="http://svgjs.com/svgjs" fill="#bdd3de" opacity=".42" x="73" y="82"><svg xmlns="http://www.w3.org/2000/svg" xmlns:xlink="http://www.w3.org/1999/xlink" width="82" height="53"><path paint-order="stroke fill markers" fill-rule="evenodd" d="M62.04 43.273l-.33-4.53-4.117.31-.58-7.84c1.738-.808 3.27-2.36 4.49-4.47 5.751-1.924 9.454-5.503 9.062-8.792-.207-1.841-1.904-4.53-4.407-4.614a3.615 3.615 0 0 0-1.8.414c-.207-.952-1.076-1.655-2.09-1.572l-17.77 1.303a2 2 0 0 0-1.842 1.862 3.637 3.637 0 0 0-1.841-.145c-2.462.455-3.724 3.373-3.683 5.214.104 3.31 4.283 6.31 10.262 7.385 1.51 1.904 3.248 3.228 5.089 3.766l.58 7.84-4.118.31.331 4.532-19.612 1.448a7.36 7.36 0 0 0-6.29-6.517l-.413-5.606c1.965-1.49 3.868-5.214 5.296-10.593 7.572-5.896 11.42-13.51 8.834-17.792-.517-.848-2.11-2.71-6.393-3.248V.408L6.968 2.144c.063.455.125.91.208 1.366C2.396 4.628.948 6.883.556 7.855c-2.007 4.82 3.413 12.185 12.412 16.882 2.193 4.944 4.593 8.172 6.724 9.185l.414 5.524c-3.062 1.014-5.214 3.972-5.048 7.303l-9.248.683a116.35 116.35 0 0 0 7.53 5.048l68.562-5.048-.414-5.565-19.447 1.406zm2.318-27.577c.434-.372 1.055-.745 1.738-.724 1.469.041 2.668 1.924 2.813 3.144.29 2.4-2.813 4.883-6.372 6.434 1.035-2.524 1.697-5.565 1.821-8.854zm-25.57 4.655c-.042-1.22.868-3.269 2.316-3.538.683-.124 1.345.166 1.821.455.62 3.228 1.696 6.145 3.083 8.503-3.745-.993-7.159-3.02-7.22-5.42zM30.656 3.573c3.537.496 4.717 1.944 5.006 2.44 1.718 2.856-.475 8.793-6.786 14.296.994-4.696 1.656-10.385 1.78-16.736zM2.045 8.476c.227-.559 1.303-2.38 5.358-3.352 1.097 6.682 2.71 12.496 4.51 17.13C4.113 17.641.7 11.703 2.045 8.476z"/></svg></svg></svg></svg><svg width="160" height="146" xmlns="http://www.w3.org/2000/svg" xmlns:xlink="http://www.w3.org/1999/xlink" xmlns:svgjs="http://svgjs.com/svgjs" viewBox="91 126 160 146" x="91" y="126"><svg width="160" height="146" xmlns="http://www.w3.org/2000/svg" xmlns:xlink="http://www.w3.org/1999/xlink" xmlns:svgjs="http://svgjs.com/svgjs" viewBox="91 126 160 146" x="91" y="126"><svg width="86" height="52" xmlns="http://www.w3.org/2000/svg" xmlns:xlink="http://www.w3.org/1999/xlink" xmlns:svgjs="http://svgjs.com/svgjs" viewBox="165 184 86 52" x="165" y="184"><svg width="86" height="52" xmlns="http://www.w3.org/2000/svg" xmlns:xlink="http://www.w3.org/1999/xlink" xmlns:svgjs="http://svgjs.com/svgjs" fill="#f5cb5c" x="165" y="184"><svg xmlns="http://www.w3.org/2000/svg" xmlns:xlink="http://www.w3.org/1999/xlink" width="86" height="52"><path paint-order="stroke fill markers" fill-rule="evenodd" d="M82.647 36.04c-2.937 7.344-7.365 12.227-10.24 14.916-.063 0-.125 0-.187.021-7.717.455-16.943.352-27.205-1.117C25.713 47.088 10.507 40.612.266 35.171.122 34.137-2.257 13.841 11.17 4.45c2.048-1.427 5.4-3.248 10.24-4.013C42.12 3.31 62.85 6.187 83.558 9.063c.104.02.228.041.331.041h.063c1.096 3.89 3.537 14.792-1.304 26.936z"/></svg></svg><svg width="86" height="43" xmlns="http://www.w3.org/2000/svg" xmlns:xlink="http://www.w3.org/1999/xlink" xmlns:svgjs="http://svgjs.com/svgjs" fill="#19233d" opacity=".251" x="165" y="193"><svg xmlns="http://www.w3.org/2000/svg" xmlns:xlink="http://www.w3.org/1999/xlink" width="86" height="43"><path paint-order="stroke fill markers" fill-rule="evenodd" d="M82.647 27.04c-2.937 7.344-7.365 12.227-10.24 14.916-7.759.476-17.048.373-27.392-1.117C25.713 38.067 10.507 31.592.266 26.151v-8.69s1.635.58 4.387 1.49C19.983 24 70.338 39.267 71.289 23.027 72.013 10.552 78.882 3.456 83.58.042c.123.02.268.041.392.062 1.076 3.89 3.517 14.792-1.324 26.936z"/></svg></svg><svg width="15" height="42" xmlns="http://www.w3.org/2000/svg" xmlns:xlink="http://www.w3.org/1999/xlink" xmlns:svgjs="http://svgjs.com/svgjs" fill="#5a142a" opacity=".271" x="236" y="193"><svg xmlns="http://www.w3.org/2000/svg" xmlns:xlink="http://www.w3.org/1999/xlink" width="15" height="42"><path paint-order="stroke fill markers" fill-rule="evenodd" d="M11.647 27.04C8.71 34.384 4.282 39.267 1.407 41.956c-.063 0-.125 0-.187.021-.227-1.014-.248-2.069-.268-2.69-.145-5.647 3.64-7.426 6.682-13.57 2.751-5.566 2.482-9.786 5.275-25.613h.062c1.076 3.89 3.517 14.792-1.324 26.936z"/></svg></svg></svg><svg width="87" height="135" xmlns="http://www.w3.org/2000/svg" xmlns:xlink="http://www.w3.org/1999/xlink" xmlns:svgjs="http://svgjs.com/svgjs" viewBox="164 126 87 135" x="164" y="126"><svg width="45" height="66" xmlns="http://www.w3.org/2000/svg" xmlns:xlink="http://www.w3.org/1999/xlink" xmlns:svgjs="http://svgjs.com/svgjs" viewBox="189 148 45 66" x="189" y="148"><svg width="45" height="66" xmlns="http://www.w3.org/2000/svg" xmlns:xlink="http://www.w3.org/1999/xlink" xmlns:svgjs="http://svgjs.com/svgjs" x="189" y="148"><svg xmlns="http://www.w3.org/2000/svg" xmlns:xlink="http://www.w3.org/1999/xlink" width="45" height="66"><path paint-order="stroke fill markers" fill-rule="evenodd" d="M44.62 9.251c-.827 4.469-1.654 8.938-2.503 13.427-.062.29-.103.58-.165.89-.042.268-.104.537-.145.786-2.545 13.737-5.11 27.494-7.655 41.231L22.36 63.827 7.423 61.593a164.517 164.517 0 0 0-.228-6.145c-.207-3.806-.538-7.82-1.055-12.061-.268-2.193-.579-4.448-.951-6.745-.104-.62-.207-1.22-.31-1.82a170.905 170.905 0 0 0-1.47-7.593c-.041-.186-.082-.393-.124-.579l-.186-.869c-.144-.641-.29-1.262-.434-1.882-.745-3.228-1.572-6.269-2.4-9.145 1.593-2.234 3.02-3.91 3.786-4.82a25.808 25.808 0 0 1 4.903-4.448c.869-.538 1.738-1.096 2.627-1.614.518-.31 1.055-.6 1.593-.869 1.924-.972 4.055-1.779 6.662-2.193a20.885 20.885 0 0 1 3.993-.268c1.924.04 3.62.31 5.027.64.786.187 1.49.373 2.09.539 1.261.33 2.441.744 3.537 1.2 4.676 1.82 8.027 4.406 10.138 6.33z"/></svg></svg><svg width="16" height="14" xmlns="http://www.w3.org/2000/svg" xmlns:xlink="http://www.w3.org/1999/xlink" xmlns:svgjs="http://svgjs.com/svgjs" fill="#fff" x="202" y="148"><svg xmlns="http://www.w3.org/2000/svg" xmlns:xlink="http://www.w3.org/1999/xlink" width="16" height="14"><path paint-order="stroke fill markers" fill-rule="evenodd" d="M15.939 1.162c-.041.414-.083.807-.124 1.2-.352 2.752-.662 5.069-2.235 7.117-2.358 3.124-7.427 5.42-10.468 3.558C.795 11.61.444 8.237.216 6.127a14.472 14.472 0 0 1 0-3.144C2.14 2.01 4.27 1.203 6.877.79c3.662-.58 6.724-.145 9.062.372z"/></svg></svg><svg width="40" height="6" xmlns="http://www.w3.org/2000/svg" xmlns:xlink="http://www.w3.org/1999/xlink" xmlns:svgjs="http://svgjs.com/svgjs" fill="#fff" x="192" y="169"><svg xmlns="http://www.w3.org/2000/svg" xmlns:xlink="http://www.w3.org/1999/xlink" width="40" height="6"><path paint-order="stroke fill markers" fill-rule="evenodd" d="M39.138 1.678c-.062.29-.104.58-.165.89C26.58-.991 7.526 3.643.327 5.65L.14 4.781a130.496 130.496 0 0 1 12.744-2.917C20.539.5 31.11-.577 39.138 1.678z"/></svg></svg><svg width="10" height="36" xmlns="http://www.w3.org/2000/svg" xmlns:xlink="http://www.w3.org/1999/xlink" xmlns:svgjs="http://svgjs.com/svgjs" fill="#fff" opacity=".031" x="191" y="170"><svg xmlns="http://www.w3.org/2000/svg" xmlns:xlink="http://www.w3.org/1999/xlink" width="10" height="36"><path paint-order="stroke fill markers" fill-rule="evenodd" d="M9.23 35.58l-4.014-2.132c-.207-3.806-.538-7.82-1.055-12.061a176.14 176.14 0 0 0-.951-6.744c-.104-.621-.207-1.221-.311-1.821-.455-2.627-.93-5.151-1.469-7.593-.041-.186-.083-.393-.124-.579l-.186-.869C.975 3.14.83 2.52.685 1.9 1.451 1.154 2.755.533 4.988.637 10.12.844 9.23 35.579 9.23 35.579z"/></svg></svg><svg width="27" height="42" xmlns="http://www.w3.org/2000/svg" xmlns:xlink="http://www.w3.org/1999/xlink" xmlns:svgjs="http://svgjs.com/svgjs" fill="#271c41" opacity=".129" x="204" y="172"><svg xmlns="http://www.w3.org/2000/svg" xmlns:xlink="http://www.w3.org/1999/xlink" width="27" height="42"><path paint-order="stroke fill markers" fill-rule="evenodd" d="M26.827.354c-2.544 13.737-5.11 27.494-7.654 41.231L7.38 39.827C4.298 33.455-.75 22.656 1.133 18.435c2.11-4.8 18.93-14.378 25.694-18.081z"/></svg></svg><svg width="12" height="4" xmlns="http://www.w3.org/2000/svg" xmlns:xlink="http://www.w3.org/1999/xlink" xmlns:svgjs="http://svgjs.com/svgjs" fill="#19233d" opacity=".078" x="212" y="148"><svg xmlns="http://www.w3.org/2000/svg" xmlns:xlink="http://www.w3.org/1999/xlink" width="12" height="4"><path paint-order="stroke fill markers" fill-rule="evenodd" d="M11.587 2.88c-3.042.723-8.627 1.8-10.22.372C.457 2.424.518 1.432.912.52c1.924.041 3.62.31 5.027.641.786.186 1.49.373 2.09.538 1.261.331 2.44.745 3.558 1.18z"/></svg></svg></svg><svg width="85" height="91" xmlns="http://www.w3.org/2000/svg" xmlns:xlink="http://www.w3.org/1999/xlink" xmlns:svgjs="http://svgjs.com/svgjs" viewBox="164 170 85 91" x="164" y="170"><svg width="28" height="24" xmlns="http://www.w3.org/2000/svg" xmlns:xlink="http://www.w3.org/1999/xlink" xmlns:svgjs="http://svgjs.com/svgjs" viewBox="197 237 28 24" x="197" y="237"><svg width="12" height="24" xmlns="http://www.w3.org/2000/svg" xmlns:xlink="http://www.w3.org/1999/xlink" xmlns:svgjs="http://svgjs.com/svgjs" fill="#fc860a" x="197" y="237"><svg xmlns="http://www.w3.org/2000/svg" xmlns:xlink="http://www.w3.org/1999/xlink" width="12" height="24"><path paint-order="stroke fill markers" fill-rule="evenodd" d="M11.236 6.852c.041 1.035-.62 1.366-1.78 3.124a7.48 7.48 0 0 0-.33.538C7.14 13.762 7.553 15.748 4.78 20.672c-.93 1.655-1.613 2.545-2.234 2.441-.02 0-.062-.02-.083-.02-.579-.187-.931-1.2-1.034-1.986 0-.063-.021-.104-.021-.166l-.683.393c-.02.02-.041.02-.062.02a.113.113 0 0 1-.103-.061c-.042-.062-.021-.124.041-.145l.766-.455v-.248l-.663-.104-.558-.083c-.062 0-.103-.062-.103-.124s.062-.103.124-.103l.848.124.372.062c.02-.124.042-.228.062-.352.145-.641.435-1.138.6-1.427.89-1.635 1.449-3.455 1.738-5.13l-.517.082h-.02c-.063 0-.104-.042-.104-.104 0-.062.041-.124.103-.124l.6-.082c.02-.166.042-.31.063-.456l-.745-.434a.109.109 0 0 1-.042-.145c.042-.041.104-.062.145-.041l.662.393c.103-.786.124-1.531.124-2.172-.02-.518-.041-1.283-.248-2.131L2.774 7.7c-.061-.021-.082-.083-.061-.145.02-.062.082-.083.144-.062l.89.33c-.02-.04-.02-.082-.041-.123-.228-.725-.58-1.47-1.2-2.152A5.858 5.858 0 0 0 1.16 4.432a.283.283 0 0 0-.083-.062C.748 4.08.416 3.81.064 3.52c2.214-.89 4.427-1.779 6.641-2.648.166.166.393.394.662.683a93.8 93.8 0 0 1 1.676 1.78c.29.31.538.6.765.868.952 1.014 1.407 1.82 1.428 2.648z"/></svg></svg><svg width="13" height="22" xmlns="http://www.w3.org/2000/svg" xmlns:xlink="http://www.w3.org/1999/xlink" xmlns:svgjs="http://svgjs.com/svgjs" fill="#fc860a" x="212" y="237"><svg xmlns="http://www.w3.org/2000/svg" xmlns:xlink="http://www.w3.org/1999/xlink" width="13" height="22"><path paint-order="stroke fill markers" fill-rule="evenodd" d="M12.228 18.914c0 .062-.062.103-.124.103l-.248-.041a5.51 5.51 0 0 1-.145.807l.207.206c.041.042.041.104 0 .166-.02.02-.042.041-.083.041-.042 0-.062-.02-.083-.041l-.124-.124c-.103.269-.207.517-.352.703-.165.207-.351.352-.558.393-1.262.228-3.186-3.558-5.565-8.234-.455-.89-.952-1.944-2.007-3.124a4.76 4.76 0 0 0-.31-.33c-.931-.952-1.47-1.118-1.821-1.697a.643.643 0 0 1-.103-.207c-.393-.89-.166-1.945.268-2.917.352-.765.828-1.469 1.221-2.007l-.414-.351c-.04-.042-.062-.104-.02-.166.041-.041.103-.041.165-.02l.414.351c.145-.186.29-.352.393-.476l-.124-.6c-.02-.062.02-.124.082-.124.063-.02.125.02.125.083l.083.434.02-.02c.228-.27.476-.476.725-.642 2.461-1.737 5.296.476 4.84 2.67-.206.93-.413 1.965-.455 3.33 0 .434-.02 1.2.062 2.152l.662-.352c.062-.042.124 0 .145.041.02.062 0 .124-.041.145l-.745.393c.02.104.02.186.041.29l1.138.207c.062.02.104.062.083.124 0 .062-.062.083-.103.083h-.021L8.4 9.976c.186 1.448.641 3.186 1.614 4.82l1.22.187c.062 0 .103.062.103.124s-.062.103-.124.103l-1.034-.144c.103.165.207.31.31.476.124.186.269.351.394.517l.124.144c.02.021.02.042.02.063.373.496.683.993.786 1.717.042.248.042.496.042.744l.269.042c.062.02.103.083.103.145z"/></svg></svg><svg width="10" height="20" xmlns="http://www.w3.org/2000/svg" xmlns:xlink="http://www.w3.org/1999/xlink" xmlns:svgjs="http://svgjs.com/svgjs" fill="#5a142a" opacity=".271" x="199" y="241"><svg xmlns="http://www.w3.org/2000/svg" xmlns:xlink="http://www.w3.org/1999/xlink" width="10" height="20"><path paint-order="stroke fill markers" fill-rule="evenodd" d="M9.236 2.852c.042 1.035-.62 1.366-1.78 3.124a7.637 7.637 0 0 0-.33.538C5.14 9.762 5.554 11.748 2.78 16.672c-.93 1.655-1.613 2.545-2.234 2.441-.02 0-.062-.02-.083-.02C3.01 15.534 6.588 4.32 7.871.183c.89 1.035 1.344 1.842 1.365 2.67z"/></svg></svg><svg width="4" height="8" xmlns="http://www.w3.org/2000/svg" xmlns:xlink="http://www.w3.org/1999/xlink" xmlns:svgjs="http://svgjs.com/svgjs" fill="#19233d" x="205" y="240"><svg xmlns="http://www.w3.org/2000/svg" xmlns:xlink="http://www.w3.org/1999/xlink" width="4" height="8"><path paint-order="stroke fill markers" fill-rule="evenodd" d="M3.236 3.852c.042 1.035-.62 1.366-1.78 3.124a7.48 7.48 0 0 0-.33.538c-.31-.352-.58-.807-.786-1.427-.807-2.4 0-4.49.765-5.772 1.386 1.49 2.11 2.503 2.131 3.537z"/></svg></svg><svg width="12" height="18" xmlns="http://www.w3.org/2000/svg" xmlns:xlink="http://www.w3.org/1999/xlink" xmlns:svgjs="http://svgjs.com/svgjs" fill="#5a142a" opacity=".271" x="212" y="241"><svg xmlns="http://www.w3.org/2000/svg" xmlns:xlink="http://www.w3.org/1999/xlink" width="12" height="18"><path paint-order="stroke fill markers" fill-rule="evenodd" d="M11.256 16.714c-.166.206-.352.351-.559.393-1.262.227-3.186-3.559-5.565-8.234-.455-.89-.952-1.945-2.007-3.124a4.965 4.965 0 0 0-.31-.331C1.781 4.342 1.222 4.28.891 3.514.498 2.625.725 1.57 1.16.597a14.143 14.143 0 0 1 3.062 2.69C5.898 5.252 6.518 7.073 7.345 9.08a61.514 61.514 0 0 0 3.91 7.634z"/></svg></svg><svg width="4" height="8" xmlns="http://www.w3.org/2000/svg" xmlns:xlink="http://www.w3.org/1999/xlink" xmlns:svgjs="http://svgjs.com/svgjs" fill="#19233d" x="212" y="239"><svg xmlns="http://www.w3.org/2000/svg" xmlns:xlink="http://www.w3.org/1999/xlink" width="4" height="8"><path paint-order="stroke fill markers" fill-rule="evenodd" d="M2.918 7.314c-.02.042-.062.083-.082.124C1.8 6.363 1.243 6.301.912 5.535c-.704-1.593.6-3.703 1.51-4.903.951 1.159 2.462 3.724.496 6.682z"/></svg></svg><svg width="2" height="1" xmlns="http://www.w3.org/2000/svg" xmlns:xlink="http://www.w3.org/1999/xlink" xmlns:svgjs="http://svgjs.com/svgjs" fill="#5a142a" opacity=".2" x="197" y="257"><svg xmlns="http://www.w3.org/2000/svg" xmlns:xlink="http://www.w3.org/1999/xlink" width="2" height="1"><path paint-order="stroke fill markers" fill-rule="evenodd" d="M.23.03l.848.125a2.493 2.493 0 0 1-.33.165L.187.238C.127.238.085.176.085.114.105.05.168.01.23.03z"/></svg></svg><svg width="6" height="13" xmlns="http://www.w3.org/2000/svg" xmlns:xlink="http://www.w3.org/1999/xlink" xmlns:svgjs="http://svgjs.com/svgjs" fill="#5a142a" opacity=".102" x="198" y="244"><svg xmlns="http://www.w3.org/2000/svg" xmlns:xlink="http://www.w3.org/1999/xlink" width="6" height="13"><path paint-order="stroke fill markers" fill-rule="evenodd" d="M3.12 9.886c-.952 1.448-1.8 2.4-2.607 3 .145-.641.434-1.138.6-1.427.89-1.635 1.448-3.455 1.737-5.131l-.517.083h-.02c-.063 0-.104-.042-.104-.104 0-.062.041-.124.103-.124l.6-.083c.021-.165.042-.31.062-.455l-.744-.434a.11.11 0 0 1-.042-.145c.042-.042.104-.062.145-.042l.662.394c.104-.787.124-1.531.124-2.173-.02-.517-.041-1.282-.248-2.13L1.837.72C1.774.701 1.754.64 1.774.576c.021-.062.083-.082.145-.062l.89.331c-.02-.041-.02-.082-.041-.124 2.172.973 4.137 3.331.351 9.165z"/></svg></svg><svg width="4" height="7" xmlns="http://www.w3.org/2000/svg" xmlns:xlink="http://www.w3.org/1999/xlink" xmlns:svgjs="http://svgjs.com/svgjs" fill="#5a142a" opacity=".102" x="212" y="238"><svg xmlns="http://www.w3.org/2000/svg" xmlns:xlink="http://www.w3.org/1999/xlink" width="4" height="7"><path paint-order="stroke fill markers" fill-rule="evenodd" d="M3.87.08c-.145.166-2.048 3.704-2.834 6.641a.65.65 0 0 1-.104-.207c-.393-.89-.165-1.944.27-2.917.351-.765.827-1.469 1.22-2.006l-.414-.352c-.041-.042-.062-.104-.02-.166.04-.04.103-.04.165-.02l.414.351c.144-.186.29-.351.393-.475l-.124-.6c-.021-.062.02-.124.082-.124.063-.021.124.02.124.082l.083.435L3.146.7c.227-.227.476-.434.724-.62z"/></svg></svg></svg><svg width="85" height="73" xmlns="http://www.w3.org/2000/svg" xmlns:xlink="http://www.w3.org/1999/xlink" xmlns:svgjs="http://svgjs.com/svgjs" viewBox="164 170 85 73" x="164" y="170"><svg width="65" height="68" xmlns="http://www.w3.org/2000/svg" xmlns:xlink="http://www.w3.org/1999/xlink" xmlns:svgjs="http://svgjs.com/svgjs" fill="#081164" x="164" y="175"><svg xmlns="http://www.w3.org/2000/svg" xmlns:xlink="http://www.w3.org/1999/xlink" width="65" height="68"><path paint-order="stroke fill markers" fill-rule="evenodd" d="M64.966.912c-2.173 14.316-4.345 28.653-6.517 42.97-.435 2.834-.87 5.668-1.303 8.502-.58.31-1.407.725-2.442 1.118-5.4 2.006-10.323 1.055-12.247.662-3.641-.745-6.848-2.317-9.475-4.014a30.927 30.927 0 0 1-2.007-1.386c-3.476-2.545-5.586-4.903-5.876-4.634-.062.041-.04.186.083.434.662 1.407 4.448 6.31 15.289 18.93-1.118.91-2.214 1.82-3.331 2.73-.518.435-1.035.85-1.552 1.284-.476-.393-.951-.786-1.406-1.18-.332-.29-.663-.558-1.014-.848a285.603 285.603 0 0 1-19.633-18.247C6.273 39.806 2.073 34.634.625 27.207c-.31-1.614-.951-4.945-.352-7.8.29-1.365.87-2.648 1.904-3.558 1.076-.952 2.462-1.386 4.013-1.448.993-.042 2.048.041 3.124.227 2.607.456 5.4 1.47 7.779 2.338 6.455 2.338 8.958 4.965 19.095 10.965.083.062.186.103.27.165 4.013 2.38 7.323 4.22 9.35 5.338a778.813 778.813 0 0 0 4.22-8.896c4.986-10.613 6.352-13.861 9.62-17.999A44.91 44.91 0 0 1 64.966.912z"/></svg></svg><svg width="59" height="55" xmlns="http://www.w3.org/2000/svg" xmlns:xlink="http://www.w3.org/1999/xlink" xmlns:svgjs="http://svgjs.com/svgjs" fill="#0b224c" opacity=".09" x="170" y="175"><svg xmlns="http://www.w3.org/2000/svg" xmlns:xlink="http://www.w3.org/1999/xlink" width="59" height="55"><path paint-order="stroke fill markers" fill-rule="evenodd" d="M58.966.912c-2.173 14.316-4.345 28.653-6.517 42.97-.435 2.834-.87 5.668-1.303 8.502-.58.31-1.407.725-2.442 1.118-5.4 2.006-10.323 1.055-12.247.662-3.641-.745-6.848-2.317-9.475-4.014a30.927 30.927 0 0 1-2.007-1.386c-3.476-2.545-5.586-4.903-5.876-4.634-.062.041-.04.186.083.434C10.452 33.02 3.356 20.36.19 14.401a14.83 14.83 0 0 1 3.124.227c2.607.456 5.4 1.47 7.779 2.338 6.455 2.338 8.958 4.965 19.095 10.965.083.062.186.103.27.165 4.013 2.38 7.323 4.22 9.35 5.338a787.195 787.195 0 0 0 4.22-8.896c4.986-10.613 6.352-13.861 9.62-17.999A44.885 44.885 0 0 1 58.967.912z"/></svg></svg><svg width="28" height="15" xmlns="http://www.w3.org/2000/svg" xmlns:xlink="http://www.w3.org/1999/xlink" xmlns:svgjs="http://svgjs.com/svgjs" fill="#fff" opacity=".078" x="173" y="189"><svg xmlns="http://www.w3.org/2000/svg" xmlns:xlink="http://www.w3.org/1999/xlink" width="28" height="15"><path paint-order="stroke fill markers" fill-rule="evenodd" d="M27.188 13.952c-.393.062-.745.124-1.055.165C17.444 15.317 5.59 5.49.314.65c2.607.455 5.4 1.469 7.779 2.338 6.434 2.338 8.958 4.965 19.095 10.965z"/></svg></svg><svg width="27" height="12" xmlns="http://www.w3.org/2000/svg" xmlns:xlink="http://www.w3.org/1999/xlink" xmlns:svgjs="http://svgjs.com/svgjs" fill="#0b224c" opacity=".349" x="196" y="218"><svg xmlns="http://www.w3.org/2000/svg" xmlns:xlink="http://www.w3.org/1999/xlink" width="27" height="12"><path paint-order="stroke fill markers" fill-rule="evenodd" d="M26.449.882c-.435 2.834-.87 5.668-1.303 8.502-.58.31-1.407.725-2.442 1.118-5.4 2.006-10.323 1.055-12.247.662C6.816 10.419 3.609 8.847.982 7.15c4.985-.103 16.964-.952 25.467-6.268z"/></svg></svg><svg width="24" height="67" xmlns="http://www.w3.org/2000/svg" xmlns:xlink="http://www.w3.org/1999/xlink" xmlns:svgjs="http://svgjs.com/svgjs" fill="#16206b" x="215" y="174"><svg xmlns="http://www.w3.org/2000/svg" xmlns:xlink="http://www.w3.org/1999/xlink" width="24" height="67"><path paint-order="stroke fill markers" fill-rule="evenodd" d="M22.406 20.78a1 1 0 0 1-.082.227c-.062.166-.104.352-.166.518-.331 1.013-.703 2.13-1.138 3.351-.165.455-.31.931-.475 1.407-.249.703-.497 1.427-.766 2.172-.186.517-.372 1.055-.58 1.614-.35.993-.703 2.007-1.075 3.041l-.31.869c-.435 1.22-.89 2.483-1.366 3.765-.02.042-.041.104-.062.145a2624.36 2624.36 0 0 1-9.972 26.895v.02c-.455 1.221-.724 1.924-.724 1.924a76.18 76.18 0 0 1-2.317-.827c-.58-.207-1.137-.414-1.717-.6-.517-.186-1.014-.352-1.53-.538.186-1.572.454-3.724.765-6.33.062-.497.124-1.014.186-1.552.269-2.131.558-4.51.869-7.076.165-1.427.351-2.896.538-4.427.02-.207.041-.414.083-.62.165-1.242.31-2.524.475-3.828.02-.227.062-.455.083-.683.393-3.144.807-6.434 1.22-9.785.042-.393.104-.807.166-1.241.062-.455.124-.952.186-1.448.6-4.366 1.49-10.2 2.545-14.917.02-.062.02-.103.041-.165.124-.559.249-1.097.373-1.614.29-1.18.6-2.255.91-3.186.083-.228.145-.435.227-.641.373-.993.745-1.738 1.118-2.193.207-.248.455-.517.703-.766.331-.33.704-.682 1.117-1.013C13.18 2.057 15.041.98 16.76.857c.33-.02.64-.02.951.041.104.021.186.042.29.062 2.669.642 4.53 3.704 5.275 7.717.083.455.166.931.207 1.407.414 3.29.083 7.096-1.076 10.696z"/></svg></svg><svg width="34" height="70" xmlns="http://www.w3.org/2000/svg" xmlns:xlink="http://www.w3.org/1999/xlink" xmlns:svgjs="http://svgjs.com/svgjs" viewBox="215 170 34 70" x="215" y="170"><svg width="34" height="70" xmlns="http://www.w3.org/2000/svg" xmlns:xlink="http://www.w3.org/1999/xlink" xmlns:svgjs="http://svgjs.com/svgjs" viewBox="215 170 34 70" x="215" y="170"><svg width="0" height="0" xmlns="http://www.w3.org/2000/svg" xmlns:xlink="http://www.w3.org/1999/xlink" xmlns:svgjs="http://svgjs.com/svgjs" fill="#271c41" x="249" y="170"><svg xmlns="http://www.w3.org/2000/svg" xmlns:xlink="http://www.w3.org/1999/xlink" width="0" height="0"><path paint-order="stroke fill markers" fill-rule="evenodd" d="M.613.16z"/></svg></svg><svg width="2" height="1" xmlns="http://www.w3.org/2000/svg" xmlns:xlink="http://www.w3.org/1999/xlink" xmlns:svgjs="http://svgjs.com/svgjs" fill="#271c41" x="236" y="195"><svg xmlns="http://www.w3.org/2000/svg" xmlns:xlink="http://www.w3.org/1999/xlink" width="2" height="1"><path paint-order="stroke fill markers" fill-rule="evenodd" d="M1.324.007c-.062.166-.104.352-.166.518L.993.11l.33-.104z"/></svg></svg><svg width="2" height="3" xmlns="http://www.w3.org/2000/svg" xmlns:xlink="http://www.w3.org/1999/xlink" xmlns:svgjs="http://svgjs.com/svgjs" fill="#271c41" x="235" y="198"><svg xmlns="http://www.w3.org/2000/svg" xmlns:xlink="http://www.w3.org/1999/xlink" width="2" height="3"><path paint-order="stroke fill markers" fill-rule="evenodd" d="M1.02.876c-.165.455-.31.931-.476 1.407L.131 1.207l.89-.33z"/></svg></svg><svg width="2" height="3" xmlns="http://www.w3.org/2000/svg" xmlns:xlink="http://www.w3.org/1999/xlink" xmlns:svgjs="http://svgjs.com/svgjs" fill="#271c41" x="233" y="202"><svg xmlns="http://www.w3.org/2000/svg" xmlns:xlink="http://www.w3.org/1999/xlink" width="2" height="3"><path paint-order="stroke fill markers" fill-rule="evenodd" d="M1.779.455c-.186.517-.372 1.055-.58 1.614l-.268.103L.434.87 1.758.414l.021.041z"/></svg></svg><svg width="3" height="3" xmlns="http://www.w3.org/2000/svg" xmlns:xlink="http://www.w3.org/1999/xlink" xmlns:svgjs="http://svgjs.com/svgjs" fill="#271c41" x="231" y="206"><svg xmlns="http://www.w3.org/2000/svg" xmlns:xlink="http://www.w3.org/1999/xlink" width="3" height="3"><path paint-order="stroke fill markers" fill-rule="evenodd" d="M2.124 1.11l-.31.869-.745.269L.572.944 1.896.49l.228.62z"/></svg></svg><svg width="3" height="3" xmlns="http://www.w3.org/2000/svg" xmlns:xlink="http://www.w3.org/1999/xlink" xmlns:svgjs="http://svgjs.com/svgjs" fill="#271c41" x="229" y="210"><svg xmlns="http://www.w3.org/2000/svg" xmlns:xlink="http://www.w3.org/1999/xlink" width="3" height="3"><path paint-order="stroke fill markers" fill-rule="evenodd" d="M2.47 1.724c-.022.04-.042.103-.063.144l-1.22.435L.69.999 2.014.544l.455 1.18z"/></svg></svg><svg width="3" height="3" xmlns="http://www.w3.org/2000/svg" xmlns:xlink="http://www.w3.org/1999/xlink" xmlns:svgjs="http://svgjs.com/svgjs" fill="#271c41" x="227" y="214"><svg xmlns="http://www.w3.org/2000/svg" xmlns:xlink="http://www.w3.org/1999/xlink" width="3" height="3"><path paint-order="stroke fill markers" fill-rule="evenodd" d="M1.304 2.378l1.324-.455L2.13.62l-1.324.455.497 1.303z"/></svg></svg><svg width="3" height="3" xmlns="http://www.w3.org/2000/svg" xmlns:xlink="http://www.w3.org/1999/xlink" xmlns:svgjs="http://svgjs.com/svgjs" fill="#271c41" x="225" y="218"><svg xmlns="http://www.w3.org/2000/svg" xmlns:xlink="http://www.w3.org/1999/xlink" width="3" height="3"><path paint-order="stroke fill markers" fill-rule="evenodd" d="M1.359 2.62l1.324-.456L2.166.861l-1.324.455.517 1.303z"/></svg></svg><svg width="3" height="3" xmlns="http://www.w3.org/2000/svg" xmlns:xlink="http://www.w3.org/1999/xlink" xmlns:svgjs="http://svgjs.com/svgjs" fill="#271c41" x="223" y="222"><svg xmlns="http://www.w3.org/2000/svg" xmlns:xlink="http://www.w3.org/1999/xlink" width="3" height="3"><path paint-order="stroke fill markers" fill-rule="evenodd" d="M1.476 2.695l1.325-.455L2.283.937.98 1.392l.496 1.303z"/></svg></svg><svg width="2" height="2" xmlns="http://www.w3.org/2000/svg" xmlns:xlink="http://www.w3.org/1999/xlink" xmlns:svgjs="http://svgjs.com/svgjs" fill="#271c41" x="222" y="227"><svg xmlns="http://www.w3.org/2000/svg" xmlns:xlink="http://www.w3.org/1999/xlink" width="2" height="2"><path paint-order="stroke fill markers" fill-rule="evenodd" d="M.593 1.77l1.325-.455L1.42.012.097.467l.496 1.304z"/></svg></svg><svg width="3" height="2" xmlns="http://www.w3.org/2000/svg" xmlns:xlink="http://www.w3.org/1999/xlink" xmlns:svgjs="http://svgjs.com/svgjs" fill="#271c41" x="220" y="231"><svg xmlns="http://www.w3.org/2000/svg" xmlns:xlink="http://www.w3.org/1999/xlink" width="3" height="2"><path paint-order="stroke fill markers" fill-rule="evenodd" d="M.71 1.846l1.325-.455L1.54.088.214.543l.497 1.303z"/></svg></svg><svg width="3" height="3" xmlns="http://www.w3.org/2000/svg" xmlns:xlink="http://www.w3.org/1999/xlink" xmlns:svgjs="http://svgjs.com/svgjs" fill="#271c41" x="218" y="234"><svg xmlns="http://www.w3.org/2000/svg" xmlns:xlink="http://www.w3.org/1999/xlink" width="3" height="3"><path paint-order="stroke fill markers" fill-rule="evenodd" d="M1.035 2.508l1.324-.455L1.842.75l-1.324.455.517 1.303z"/></svg></svg><svg width="3" height="2" xmlns="http://www.w3.org/2000/svg" xmlns:xlink="http://www.w3.org/1999/xlink" xmlns:svgjs="http://svgjs.com/svgjs" fill="#271c41" x="216" y="238"><svg xmlns="http://www.w3.org/2000/svg" xmlns:xlink="http://www.w3.org/1999/xlink" width="3" height="2"><path paint-order="stroke fill markers" fill-rule="evenodd" d="M2.373 1.88c-.58-.207-1.137-.414-1.717-.6L1.96.825l.414 1.055z"/></svg></svg><svg width="2" height="3" xmlns="http://www.w3.org/2000/svg" xmlns:xlink="http://www.w3.org/1999/xlink" xmlns:svgjs="http://svgjs.com/svgjs" fill="#271c41" x="237" y="182"><svg xmlns="http://www.w3.org/2000/svg" xmlns:xlink="http://www.w3.org/1999/xlink" width="2" height="3"><path paint-order="stroke fill markers" fill-rule="evenodd" d="M1.503 2.043l-.455.165L.55.905l.745-.27c.083.456.145.932.207 1.408z"/></svg></svg><svg width="3" height="3" xmlns="http://www.w3.org/2000/svg" xmlns:xlink="http://www.w3.org/1999/xlink" xmlns:svgjs="http://svgjs.com/svgjs" fill="#271c41" x="235" y="186"><svg xmlns="http://www.w3.org/2000/svg" xmlns:xlink="http://www.w3.org/1999/xlink" width="3" height="3"><path paint-order="stroke fill markers" fill-rule="evenodd" d="M1.165 2.284l1.324-.456L1.972.525.648.98l.517 1.304z"/></svg></svg><svg width="3" height="2" xmlns="http://www.w3.org/2000/svg" xmlns:xlink="http://www.w3.org/1999/xlink" xmlns:svgjs="http://svgjs.com/svgjs" fill="#271c41" x="233" y="190"><svg xmlns="http://www.w3.org/2000/svg" xmlns:xlink="http://www.w3.org/1999/xlink" width="3" height="2"><path paint-order="stroke fill markers" fill-rule="evenodd" d="M.972.642l.497 1.303 1.324-.455L2.296.166.972.642z"/></svg></svg><svg width="2" height="3" xmlns="http://www.w3.org/2000/svg" xmlns:xlink="http://www.w3.org/1999/xlink" xmlns:svgjs="http://svgjs.com/svgjs" fill="#271c41" x="232" y="194"><svg xmlns="http://www.w3.org/2000/svg" xmlns:xlink="http://www.w3.org/1999/xlink" width="2" height="3"><path paint-order="stroke fill markers" fill-rule="evenodd" d="M.09.718L.607 2.02l1.303-.455L1.414.242.09.718z"/></svg></svg><svg width="3" height="3" xmlns="http://www.w3.org/2000/svg" xmlns:xlink="http://www.w3.org/1999/xlink" xmlns:svgjs="http://svgjs.com/svgjs" fill="#271c41" x="230" y="198"><svg xmlns="http://www.w3.org/2000/svg" xmlns:xlink="http://www.w3.org/1999/xlink" width="3" height="3"><path paint-order="stroke fill markers" fill-rule="evenodd" d="M.207.793l.517 1.304 1.324-.456L1.531.338.207.793z"/></svg></svg><svg width="3" height="3" xmlns="http://www.w3.org/2000/svg" xmlns:xlink="http://www.w3.org/1999/xlink" xmlns:svgjs="http://svgjs.com/svgjs" fill="#271c41" x="228" y="202"><svg xmlns="http://www.w3.org/2000/svg" xmlns:xlink="http://www.w3.org/1999/xlink" width="3" height="3"><path paint-order="stroke fill markers" fill-rule="evenodd" d="M.842 2.172l1.323-.455L1.648.414.324.869l.518 1.303z"/></svg></svg><svg width="3" height="3" xmlns="http://www.w3.org/2000/svg" xmlns:xlink="http://www.w3.org/1999/xlink" xmlns:svgjs="http://svgjs.com/svgjs" fill="#271c41" x="226" y="206"><svg xmlns="http://www.w3.org/2000/svg" xmlns:xlink="http://www.w3.org/1999/xlink" width="3" height="3"><path paint-order="stroke fill markers" fill-rule="evenodd" d="M.876 2.413L2.2 1.958 1.704.655.379 1.11l.497 1.303z"/></svg></svg><svg width="3" height="3" xmlns="http://www.w3.org/2000/svg" xmlns:xlink="http://www.w3.org/1999/xlink" xmlns:svgjs="http://svgjs.com/svgjs" fill="#271c41" x="224" y="210"><svg xmlns="http://www.w3.org/2000/svg" xmlns:xlink="http://www.w3.org/1999/xlink" width="3" height="3"><path paint-order="stroke fill markers" fill-rule="evenodd" d="M1.014 2.489l1.304-.455L1.82.73l-1.324.456.517 1.303z"/></svg></svg><svg width="3" height="3" xmlns="http://www.w3.org/2000/svg" xmlns:xlink="http://www.w3.org/1999/xlink" xmlns:svgjs="http://svgjs.com/svgjs" fill="#271c41" x="222" y="214"><svg xmlns="http://www.w3.org/2000/svg" xmlns:xlink="http://www.w3.org/1999/xlink" width="3" height="3"><path paint-order="stroke fill markers" fill-rule="evenodd" d="M1.131 2.565l1.325-.456L1.938.806l-1.324.455.517 1.304z"/></svg></svg><svg width="3" height="3" xmlns="http://www.w3.org/2000/svg" xmlns:xlink="http://www.w3.org/1999/xlink" xmlns:svgjs="http://svgjs.com/svgjs" fill="#271c41" x="220" y="218"><svg xmlns="http://www.w3.org/2000/svg" xmlns:xlink="http://www.w3.org/1999/xlink" width="3" height="3"><path paint-order="stroke fill markers" fill-rule="evenodd" d="M1.249 2.64l1.324-.455L2.056.882l-1.304.455.497 1.303z"/></svg></svg><svg width="2" height="3" xmlns="http://www.w3.org/2000/svg" xmlns:xlink="http://www.w3.org/1999/xlink" xmlns:svgjs="http://svgjs.com/svgjs" fill="#271c41" x="219" y="222"><svg xmlns="http://www.w3.org/2000/svg" xmlns:xlink="http://www.w3.org/1999/xlink" width="2" height="3"><path paint-order="stroke fill markers" fill-rule="evenodd" d="M.056.999l.496 1.303 1.324-.455L1.38.523.056.999z"/></svg></svg><svg width="3" height="3" xmlns="http://www.w3.org/2000/svg" xmlns:xlink="http://www.w3.org/1999/xlink" xmlns:svgjs="http://svgjs.com/svgjs" fill="#271c41" x="217" y="226"><svg xmlns="http://www.w3.org/2000/svg" xmlns:xlink="http://www.w3.org/1999/xlink" width="3" height="3"><path paint-order="stroke fill markers" fill-rule="evenodd" d="M.173 1.074l.518 1.304 1.323-.456L1.497.62l-1.324.455z"/></svg></svg><svg width="3" height="3" xmlns="http://www.w3.org/2000/svg" xmlns:xlink="http://www.w3.org/1999/xlink" xmlns:svgjs="http://svgjs.com/svgjs" fill="#271c41" x="215" y="230"><svg xmlns="http://www.w3.org/2000/svg" xmlns:xlink="http://www.w3.org/1999/xlink" width="3" height="3"><path paint-order="stroke fill markers" fill-rule="evenodd" d="M2.132 1.998l-1.22.435c.062-.497.124-1.014.186-1.552l.517-.186.517 1.303z"/></svg></svg><svg width="3" height="3" xmlns="http://www.w3.org/2000/svg" xmlns:xlink="http://www.w3.org/1999/xlink" xmlns:svgjs="http://svgjs.com/svgjs" fill="#271c41" x="234" y="177"><svg xmlns="http://www.w3.org/2000/svg" xmlns:xlink="http://www.w3.org/1999/xlink" width="3" height="3"><path paint-order="stroke fill markers" fill-rule="evenodd" d="M.655.878L1.15 2.18l1.325-.455L1.979.422.655.878z"/></svg></svg><svg width="3" height="3" xmlns="http://www.w3.org/2000/svg" xmlns:xlink="http://www.w3.org/1999/xlink" xmlns:svgjs="http://svgjs.com/svgjs" fill="#271c41" x="232" y="181"><svg xmlns="http://www.w3.org/2000/svg" xmlns:xlink="http://www.w3.org/1999/xlink" width="3" height="3"><path paint-order="stroke fill markers" fill-rule="evenodd" d="M.752.994l.517 1.304 1.324-.476L2.076.519.752.994z"/></svg></svg><svg width="3" height="3" xmlns="http://www.w3.org/2000/svg" xmlns:xlink="http://www.w3.org/1999/xlink" xmlns:svgjs="http://svgjs.com/svgjs" fill="#271c41" x="230" y="185"><svg xmlns="http://www.w3.org/2000/svg" xmlns:xlink="http://www.w3.org/1999/xlink" width="3" height="3"><path paint-order="stroke fill markers" fill-rule="evenodd" d="M.869 1.07l.517 1.303 1.324-.475L2.193.594.869 1.07z"/></svg></svg><svg width="2" height="3" xmlns="http://www.w3.org/2000/svg" xmlns:xlink="http://www.w3.org/1999/xlink" xmlns:svgjs="http://svgjs.com/svgjs" fill="#271c41" x="229" y="189"><svg xmlns="http://www.w3.org/2000/svg" xmlns:xlink="http://www.w3.org/1999/xlink" width="2" height="3"><path paint-order="stroke fill markers" fill-rule="evenodd" d="M.007 1.146l.497 1.303 1.324-.455L1.33.67l-1.324.476z"/></svg></svg><svg width="2" height="3" xmlns="http://www.w3.org/2000/svg" xmlns:xlink="http://www.w3.org/1999/xlink" xmlns:svgjs="http://svgjs.com/svgjs" fill="#271c41" x="227" y="193"><svg xmlns="http://www.w3.org/2000/svg" xmlns:xlink="http://www.w3.org/1999/xlink" width="2" height="3"><path paint-order="stroke fill markers" fill-rule="evenodd" d="M.124 1.221l.497 1.304 1.324-.456L1.448.745l-1.324.476z"/></svg></svg><svg width="3" height="3" xmlns="http://www.w3.org/2000/svg" xmlns:xlink="http://www.w3.org/1999/xlink" xmlns:svgjs="http://svgjs.com/svgjs" fill="#271c41" x="225" y="197"><svg xmlns="http://www.w3.org/2000/svg" xmlns:xlink="http://www.w3.org/1999/xlink" width="3" height="3"><path paint-order="stroke fill markers" fill-rule="evenodd" d="M.428.883l.517 1.303 1.324-.475L1.752.407.428.883z"/></svg></svg><svg width="3" height="3" xmlns="http://www.w3.org/2000/svg" xmlns:xlink="http://www.w3.org/1999/xlink" xmlns:svgjs="http://svgjs.com/svgjs" fill="#271c41" x="223" y="201"><svg xmlns="http://www.w3.org/2000/svg" xmlns:xlink="http://www.w3.org/1999/xlink" width="3" height="3"><path paint-order="stroke fill markers" fill-rule="evenodd" d="M.566.959l.497 1.303 1.324-.476L1.869.483.566.959z"/></svg></svg><svg width="3" height="3" xmlns="http://www.w3.org/2000/svg" xmlns:xlink="http://www.w3.org/1999/xlink" xmlns:svgjs="http://svgjs.com/svgjs" fill="#271c41" x="221" y="205"><svg xmlns="http://www.w3.org/2000/svg" xmlns:xlink="http://www.w3.org/1999/xlink" width="3" height="3"><path paint-order="stroke fill markers" fill-rule="evenodd" d="M.684 1.034l.496 1.304 1.324-.476L2.007.558l-1.323.476z"/></svg></svg><svg width="3" height="3" xmlns="http://www.w3.org/2000/svg" xmlns:xlink="http://www.w3.org/1999/xlink" xmlns:svgjs="http://svgjs.com/svgjs" fill="#271c41" x="219" y="209"><svg xmlns="http://www.w3.org/2000/svg" xmlns:xlink="http://www.w3.org/1999/xlink" width="3" height="3"><path paint-order="stroke fill markers" fill-rule="evenodd" d="M.8 1.11l.498 1.303 1.323-.455L2.125.634.8 1.11z"/></svg></svg><svg width="2" height="3" xmlns="http://www.w3.org/2000/svg" xmlns:xlink="http://www.w3.org/1999/xlink" xmlns:svgjs="http://svgjs.com/svgjs" fill="#271c41" x="218" y="213"><svg xmlns="http://www.w3.org/2000/svg" xmlns:xlink="http://www.w3.org/1999/xlink" width="2" height="3"><path paint-order="stroke fill markers" fill-rule="evenodd" d="M1.677 2.178l-1.324.456-.29-.724c.02-.228.062-.456.083-.683L1.159.875l.518 1.303z"/></svg></svg><svg width="1" height="2" xmlns="http://www.w3.org/2000/svg" xmlns:xlink="http://www.w3.org/1999/xlink" xmlns:svgjs="http://svgjs.com/svgjs" fill="#271c41" x="217" y="218"><svg xmlns="http://www.w3.org/2000/svg" xmlns:xlink="http://www.w3.org/1999/xlink" width="1" height="2"><path paint-order="stroke fill markers" fill-rule="evenodd" d="M.794 1.254l-.269.103c.02-.206.042-.413.083-.62l.186.517z"/></svg></svg><svg width="2" height="2" xmlns="http://www.w3.org/2000/svg" xmlns:xlink="http://www.w3.org/1999/xlink" xmlns:svgjs="http://svgjs.com/svgjs" fill="#271c41" x="231" y="174"><svg xmlns="http://www.w3.org/2000/svg" xmlns:xlink="http://www.w3.org/1999/xlink" width="2" height="2"><path paint-order="stroke fill markers" fill-rule="evenodd" d="M1.73.878l-.827.29L.78.835c.331-.02.642-.02.952.042z"/></svg></svg><svg width="3" height="3" xmlns="http://www.w3.org/2000/svg" xmlns:xlink="http://www.w3.org/1999/xlink" xmlns:svgjs="http://svgjs.com/svgjs" fill="#271c41" x="229" y="177"><svg xmlns="http://www.w3.org/2000/svg" xmlns:xlink="http://www.w3.org/1999/xlink" width="3" height="3"><path paint-order="stroke fill markers" fill-rule="evenodd" d="M.524.94l.518 1.303 1.323-.476L1.848.464.524.939z"/></svg></svg><svg width="3" height="3" xmlns="http://www.w3.org/2000/svg" xmlns:xlink="http://www.w3.org/1999/xlink" xmlns:svgjs="http://svgjs.com/svgjs" fill="#271c41" x="227" y="181"><svg xmlns="http://www.w3.org/2000/svg" xmlns:xlink="http://www.w3.org/1999/xlink" width="3" height="3"><path paint-order="stroke fill markers" fill-rule="evenodd" d="M.642 1.015l.517 1.303 1.324-.475L1.965.539l-1.323.476z"/></svg></svg><svg width="3" height="2" xmlns="http://www.w3.org/2000/svg" xmlns:xlink="http://www.w3.org/1999/xlink" xmlns:svgjs="http://svgjs.com/svgjs" fill="#271c41" x="225" y="185"><svg xmlns="http://www.w3.org/2000/svg" xmlns:xlink="http://www.w3.org/1999/xlink" width="3" height="2"><path paint-order="stroke fill markers" fill-rule="evenodd" d="M2.29.201L.966.656l.496 1.324 1.324-.476L2.29.201z"/></svg></svg><svg width="2" height="3" xmlns="http://www.w3.org/2000/svg" xmlns:xlink="http://www.w3.org/1999/xlink" xmlns:svgjs="http://svgjs.com/svgjs" fill="#271c41" x="224" y="189"><svg xmlns="http://www.w3.org/2000/svg" xmlns:xlink="http://www.w3.org/1999/xlink" width="2" height="3"><path paint-order="stroke fill markers" fill-rule="evenodd" d="M1.407.277L.083.732l.518 1.324 1.303-.476L1.407.277z"/></svg></svg><svg width="3" height="3" xmlns="http://www.w3.org/2000/svg" xmlns:xlink="http://www.w3.org/1999/xlink" xmlns:svgjs="http://svgjs.com/svgjs" fill="#271c41" x="222" y="193"><svg xmlns="http://www.w3.org/2000/svg" xmlns:xlink="http://www.w3.org/1999/xlink" width="3" height="3"><path paint-order="stroke fill markers" fill-rule="evenodd" d="M1.525.352L.2.828l.517 1.303 1.324-.475L1.525.352z"/></svg></svg><svg width="3" height="3" xmlns="http://www.w3.org/2000/svg" xmlns:xlink="http://www.w3.org/1999/xlink" xmlns:svgjs="http://svgjs.com/svgjs" fill="#271c41" x="220" y="197"><svg xmlns="http://www.w3.org/2000/svg" xmlns:xlink="http://www.w3.org/1999/xlink" width="3" height="3"><path paint-order="stroke fill markers" fill-rule="evenodd" d="M.339.904l.496 1.303 1.324-.476L1.642.428.34.904z"/></svg></svg><svg width="2" height="3" xmlns="http://www.w3.org/2000/svg" xmlns:xlink="http://www.w3.org/1999/xlink" xmlns:svgjs="http://svgjs.com/svgjs" fill="#271c41" x="219" y="201"><svg xmlns="http://www.w3.org/2000/svg" xmlns:xlink="http://www.w3.org/1999/xlink" width="2" height="3"><path paint-order="stroke fill markers" fill-rule="evenodd" d="M1.194 1.972L.532 2.2c.062-.455.124-.952.186-1.448l.476 1.22z"/></svg></svg><svg width="3" height="2" xmlns="http://www.w3.org/2000/svg" xmlns:xlink="http://www.w3.org/1999/xlink" xmlns:svgjs="http://svgjs.com/svgjs" fill="#271c41" x="225" y="177"><svg xmlns="http://www.w3.org/2000/svg" xmlns:xlink="http://www.w3.org/1999/xlink" width="3" height="2"><path paint-order="stroke fill markers" fill-rule="evenodd" d="M2.104 1.146L.78 1.602.656 1.25C.986.919 1.359.567 1.773.236l.33.91z"/></svg></svg><svg width="3" height="3" xmlns="http://www.w3.org/2000/svg" xmlns:xlink="http://www.w3.org/1999/xlink" xmlns:svgjs="http://svgjs.com/svgjs" fill="#271c41" x="223" y="180"><svg xmlns="http://www.w3.org/2000/svg" xmlns:xlink="http://www.w3.org/1999/xlink" width="3" height="3"><path paint-order="stroke fill markers" fill-rule="evenodd" d="M2.221 2.222l-1.324.455-.31-.807c.082-.227.145-.434.227-.64l.91-.311.497 1.303z"/></svg></svg><svg width="2" height="3" xmlns="http://www.w3.org/2000/svg" xmlns:xlink="http://www.w3.org/1999/xlink" xmlns:svgjs="http://svgjs.com/svgjs" fill="#271c41" x="222" y="184"><svg xmlns="http://www.w3.org/2000/svg" xmlns:xlink="http://www.w3.org/1999/xlink" width="2" height="3"><path paint-order="stroke fill markers" fill-rule="evenodd" d="M1.338 2.298L.304 2.67c.124-.559.248-1.097.373-1.614L.842.994l.496 1.304z"/></svg></svg></svg><svg width="0" height="1" xmlns="http://www.w3.org/2000/svg" xmlns:xlink="http://www.w3.org/1999/xlink" xmlns:svgjs="http://svgjs.com/svgjs" viewBox="221 238 0 1" x="221" y="238"><svg width="0" height="1" xmlns="http://www.w3.org/2000/svg" xmlns:xlink="http://www.w3.org/1999/xlink" xmlns:svgjs="http://svgjs.com/svgjs" fill="#271c41" x="221" y="238"><svg xmlns="http://www.w3.org/2000/svg" xmlns:xlink="http://www.w3.org/1999/xlink" width="0" height="1"><path paint-order="stroke fill markers" fill-rule="evenodd" d="M.435.763v0z"/></svg></svg></svg></svg><svg width="10" height="38" xmlns="http://www.w3.org/2000/svg" xmlns:xlink="http://www.w3.org/1999/xlink" xmlns:svgjs="http://svgjs.com/svgjs" fill="#fff" opacity=".078" x="216" y="186"><svg xmlns="http://www.w3.org/2000/svg" xmlns:xlink="http://www.w3.org/1999/xlink" width="10" height="38"><path paint-order="stroke fill markers" fill-rule="evenodd" d="M2.932 36.936c-.704.352-1.345.621-1.966.849.704-5.731 1.531-12.393 2.4-19.323C3.925 14.076 4.98 6.628 6.262.835c1.987 7.614 7.055 30.909-3.33 36.101z"/></svg></svg><svg width="38" height="49" xmlns="http://www.w3.org/2000/svg" xmlns:xlink="http://www.w3.org/1999/xlink" xmlns:svgjs="http://svgjs.com/svgjs" fill="#fff" opacity=".039" x="164" y="194"><svg xmlns="http://www.w3.org/2000/svg" xmlns:xlink="http://www.w3.org/1999/xlink" width="38" height="49"><path paint-order="stroke fill markers" fill-rule="evenodd" d="M37.12 47.246c-.518.434-1.035.848-1.552 1.282-.476-.393-.952-.786-1.407-1.179-.331-.29-.662-.558-1.014-.848a285.53 285.53 0 0 1-19.633-18.247C6.252 20.827 2.053 15.654.604 8.228.294 6.614-.347 3.283.253.428 6.066 7.4 31.037 39.446 37.119 47.246z"/></svg></svg></svg></svg><svg width="17" height="13" xmlns="http://www.w3.org/2000/svg" xmlns:xlink="http://www.w3.org/1999/xlink" xmlns:svgjs="http://svgjs.com/svgjs" viewBox="202 176 17 13" x="202" y="176"><svg width="17" height="13" xmlns="http://www.w3.org/2000/svg" xmlns:xlink="http://www.w3.org/1999/xlink" xmlns:svgjs="http://svgjs.com/svgjs" fill="#bdd3de" x="202" y="176"><svg xmlns="http://www.w3.org/2000/svg" xmlns:xlink="http://www.w3.org/1999/xlink" width="17" height="13"><path paint-order="stroke fill markers" fill-rule="evenodd" d="M16.353 6.76v.062c-.021.517-.063 1.18-.187 1.8a3.306 3.306 0 0 1-.227.683c-.145.33-.352.62-.62.827-.932.683-1.78-.31-4.49-.269-.331 0-.89.02-1.573.103-.04 0-.103.021-.144.021-.042 0-.104.02-.145.02-.083.022-.166.022-.248.042-.104.021-.186.042-.29.062l-.248.062c-.042.021-.104.021-.145.042-.02 0-.041 0-.041.02-.063.021-.104.021-.166.042-.062.02-.145.041-.207.062-.103.02-.186.062-.29.103-.144.042-.29.104-.413.166-.042.02-.083.02-.104.041a7.676 7.676 0 0 0-.579.27c-.041.02-.103.04-.145.082l-.31.186c-.186.124-.352.228-.517.331a1.727 1.727 0 0 1-.249.166c-.041.02-.062.041-.103.062-.041.02-.062.041-.104.062-.061.041-.124.062-.186.103-.02 0-.02.02-.041.02a1.011 1.011 0 0 1-.228.084 2.091 2.091 0 0 1-.64.041c-1.594-.207-2.566-2.193-2.69-2.441C.897 9.367.484 8.58.504 7.484c.062-2.317 1.552-5.11 3.042-5.317.827-.124 1.82.559 2.048.724.641.497 1.2 1.241 1.572 2.131l1.82-.29c.042-.62.187-1.179.394-1.696.124-.31.269-.58.434-.828.145-.207.869-1.158 1.717-1.324.538-.103 1.2.104 1.841.518.663.413 1.304 1.034 1.842 1.737.207.29.413.6.579.89a7.3 7.3 0 0 1 .455 1.014c.186.682.124 1.303.104 1.717z"/></svg></svg><svg width="17" height="8" xmlns="http://www.w3.org/2000/svg" xmlns:xlink="http://www.w3.org/1999/xlink" xmlns:svgjs="http://svgjs.com/svgjs" fill="#0b224c" opacity=".349" x="202" y="181"><svg xmlns="http://www.w3.org/2000/svg" xmlns:xlink="http://www.w3.org/1999/xlink" width="17" height="8"><path paint-order="stroke fill markers" fill-rule="evenodd" d="M16.353 1.76v.062c-.021.517-.063 1.18-.187 1.8-.124.352-.165.538-.227.683-.145.33-.352.62-.62.827-.932.683-1.78-.29-4.47-.269h-.041c-.29 0-.848 0-1.572.104-.041 0-.104.02-.145.02-.041 0-.103.02-.145.02-.082.022-.165.022-.248.042-.104.021-.186.042-.29.062l-.248.062c-.041.021-.104.021-.145.042-.02 0-.041 0-.041.02-.062.021-.104.021-.166.042-.062.02-.144.041-.207.062-.103.02-.186.062-.29.103-.144.042-.289.104-.413.166-.042.02-.083.02-.103.041a7.759 7.759 0 0 0-.58.27c-.041.02-.103.04-.144.082l-.31.186a19.31 19.31 0 0 1-.518.331 1.696 1.696 0 0 1-.248.166c-.042.02-.062.041-.104.062-.041.02-.062.041-.103.062-.062.041-.124.062-.186.103-.021 0-.021.021-.042.021a1.012 1.012 0 0 1-.227.083 2.094 2.094 0 0 1-.642.041C2.098 6.85 1.126 4.863 1.002 4.615.878 4.367.464 3.58.485 2.484c.33.248.703.496 1.138.745 1.365.745 2.73.993 3.951 1.034 1.365.042 2.545-.186 3.33-.352.663-.124 1.366-.31 2.07-.558 2.172-.745 4.282-1.924 5.234-3.29.227.662.165 1.283.145 1.697z"/></svg></svg><svg width="4" height="3" xmlns="http://www.w3.org/2000/svg" xmlns:xlink="http://www.w3.org/1999/xlink" xmlns:svgjs="http://svgjs.com/svgjs" fill="#0b224c" opacity=".349" x="203" y="181"><svg xmlns="http://www.w3.org/2000/svg" xmlns:xlink="http://www.w3.org/1999/xlink" width="4" height="3"><path paint-order="stroke fill markers" fill-rule="evenodd" d="M2.395 2.924C1.503 3.068.691 2.618.577 1.918c-.112-.7.518-1.382 1.41-1.527.892-.144 1.705.306 1.818 1.006.112.7-.517 1.383-1.41 1.527z"/></svg></svg><svg width="3" height="3" xmlns="http://www.w3.org/2000/svg" xmlns:xlink="http://www.w3.org/1999/xlink" xmlns:svgjs="http://svgjs.com/svgjs" fill="#0b224c" opacity=".349" x="204" y="178"><svg xmlns="http://www.w3.org/2000/svg" xmlns:xlink="http://www.w3.org/1999/xlink" width="3" height="3"><path paint-order="stroke fill markers" fill-rule="evenodd" d="M1.967 2.227c-.598.096-1.143-.2-1.218-.663-.074-.463.349-.915.948-1.012.598-.097 1.143.2 1.217.662.075.464-.349.916-.947 1.013z"/></svg></svg><svg width="3" height="3" xmlns="http://www.w3.org/2000/svg" xmlns:xlink="http://www.w3.org/1999/xlink" xmlns:svgjs="http://svgjs.com/svgjs" fill="#0b224c" opacity=".349" x="212" y="177"><svg xmlns="http://www.w3.org/2000/svg" xmlns:xlink="http://www.w3.org/1999/xlink" width="3" height="3"><path paint-order="stroke fill markers" fill-rule="evenodd" d="M1.685 2.131c-.599.097-1.143-.2-1.218-.662-.074-.463.349-.916.948-1.012.598-.097 1.142.2 1.217.662.075.463-.348.916-.947 1.012z"/></svg></svg><svg width="3" height="3" xmlns="http://www.w3.org/2000/svg" xmlns:xlink="http://www.w3.org/1999/xlink" xmlns:svgjs="http://svgjs.com/svgjs" fill="#fc860a" x="214" y="180"><svg xmlns="http://www.w3.org/2000/svg" xmlns:xlink="http://www.w3.org/1999/xlink" width="3" height="3"><path paint-order="stroke fill markers" fill-rule="evenodd" d="M1.58 2.128C.835 2.248.157 1.88.064 1.304-.029.728.498.164 1.244.044c.745-.12 1.423.248 1.516.824.093.576-.434 1.14-1.18 1.26z"/></svg></svg><svg width="1" height="1" xmlns="http://www.w3.org/2000/svg" xmlns:xlink="http://www.w3.org/1999/xlink" xmlns:svgjs="http://svgjs.com/svgjs" fill="#fc860a" x="209" y="183"><svg xmlns="http://www.w3.org/2000/svg" xmlns:xlink="http://www.w3.org/1999/xlink" width="1" height="1"><path paint-order="stroke fill markers" fill-rule="evenodd" d="M.491.84C.228.844.012.682.008.476.003.272.212.101.475.095.738.089.955.25.96.457.963.663.754.834.49.839z"/></svg></svg><svg width="2" height="2" xmlns="http://www.w3.org/2000/svg" xmlns:xlink="http://www.w3.org/1999/xlink" xmlns:svgjs="http://svgjs.com/svgjs" fill="#fc860a" x="209" y="181"><svg xmlns="http://www.w3.org/2000/svg" xmlns:xlink="http://www.w3.org/1999/xlink" width="2" height="2"><path paint-order="stroke fill markers" fill-rule="evenodd" d="M.719 1.598c-.263.006-.48-.156-.484-.362C.231 1.03.44.859.703.853c.263-.005.48.156.484.362.004.206-.205.377-.468.383z"/></svg></svg><svg width="2" height="2" xmlns="http://www.w3.org/2000/svg" xmlns:xlink="http://www.w3.org/1999/xlink" xmlns:svgjs="http://svgjs.com/svgjs" fill="#fc860a" x="210" y="182"><svg xmlns="http://www.w3.org/2000/svg" xmlns:xlink="http://www.w3.org/1999/xlink" width="2" height="2"><path paint-order="stroke fill markers" fill-rule="evenodd" d="M1.333 1.178C1.07 1.183.853 1.02.849.816.844.61 1.053.439 1.316.433c.264-.006.48.156.484.362.005.206-.204.377-.467.383z"/></svg></svg><svg width="13" height="12" xmlns="http://www.w3.org/2000/svg" xmlns:xlink="http://www.w3.org/1999/xlink" xmlns:svgjs="http://svgjs.com/svgjs" fill="#0b224c" opacity=".161" x="206" y="176"><svg xmlns="http://www.w3.org/2000/svg" xmlns:xlink="http://www.w3.org/1999/xlink" width="13" height="12"><path paint-order="stroke fill markers" fill-rule="evenodd" d="M12.353 6.76v.062c-.021.517-.063 1.18-.187 1.8a3.304 3.304 0 0 1-.227.682c-.145.332-.352.621-.62.828-.932.683-1.78-.31-4.49-.269-.331 0-.89.02-1.573.104-.04 0-.103.02-.144.02-.042 0-.104.02-.145.02-.083.022-.166.022-.248.042-.104.02-.186.042-.29.062l-.248.062c-.042.021-.104.021-.145.042-.02 0-.041 0-.041.02-.063.021-.104.021-.166.042-.062.02-.145.041-.207.062-.103.02-.186.062-.29.103-.144.042-.29.104-.413.166-.042.02-.083.02-.104.041a7.676 7.676 0 0 0-.579.27c-.041.02-.103.04-.145.082l-.31.186c-.186.124-.352.228-.517.331-.083.062-.166.124-.249.166-.041.02-.062.041-.103.062-.041.02-.062.041-.104.062-.061.041-.124.062-.186.103-.02 0-.02.02-.041.02-.02-.02-.02-.02-.041-.02s-.042.02-.042.02l1.034-2.689 1.635-4.22 1.82-.29c.083-.972.373-1.84.828-2.524.145-.207.869-1.158 1.717-1.324.538-.103 1.2.104 1.841.518.663.413 1.304 1.034 1.842 1.737.455.6.807 1.262 1.034 1.924.186.662.124 1.283.104 1.697z"/></svg></svg><svg width="7" height="5" xmlns="http://www.w3.org/2000/svg" xmlns:xlink="http://www.w3.org/1999/xlink" xmlns:svgjs="http://svgjs.com/svgjs" fill="#271c41" opacity=".322" x="211" y="176"><svg xmlns="http://www.w3.org/2000/svg" xmlns:xlink="http://www.w3.org/1999/xlink" width="7" height="5"><path paint-order="stroke fill markers" fill-rule="evenodd" d="M6.773 4.008L.36 3.015c.124-.31.269-.579.434-.827.145-.207.87-1.159 1.717-1.324.538-.104 1.2.103 1.842.517.662.414 1.303 1.034 1.841 1.738.207.29.414.579.58.89z"/></svg></svg><svg width="7" height="6" xmlns="http://www.w3.org/2000/svg" xmlns:xlink="http://www.w3.org/1999/xlink" xmlns:svgjs="http://svgjs.com/svgjs" fill="#271c41" opacity=".322" x="212" y="181"><svg xmlns="http://www.w3.org/2000/svg" xmlns:xlink="http://www.w3.org/1999/xlink" width="7" height="6"><path paint-order="stroke fill markers" fill-rule="evenodd" d="M6.353 1.76v.062c-.021.517-.063 1.18-.187 1.8-.124.352-.165.538-.227.683-.145.33-.352.62-.62.827-.932.683-1.78-.29-4.47-.269l.145-1.551C3.167 2.567 5.277 1.388 6.23.022c.206.703.144 1.324.124 1.738z"/></svg></svg></svg><svg width="27" height="15" xmlns="http://www.w3.org/2000/svg" xmlns:xlink="http://www.w3.org/1999/xlink" xmlns:svgjs="http://svgjs.com/svgjs" viewBox="196 174 27 15" x="196" y="174"><svg width="12" height="12" xmlns="http://www.w3.org/2000/svg" xmlns:xlink="http://www.w3.org/1999/xlink" xmlns:svgjs="http://svgjs.com/svgjs" fill="#cd907f" x="196" y="177"><svg xmlns="http://www.w3.org/2000/svg" xmlns:xlink="http://www.w3.org/1999/xlink" width="12" height="12"><path paint-order="stroke fill markers" fill-rule="evenodd" d="M11.988 8.946l-.807.455c-.476.269-1.076.6-1.593.89-.662.372-1.2.662-1.2.662-.083-.021-.145-.042-.228-.062a2.08 2.08 0 0 1-1.034.269c-1.034-.021-1.862-.89-2.545-1.821a9.443 9.443 0 0 1-.558-.807c-.31-.476-.538-.869-.662-1.117l-.662-.662a5.07 5.07 0 0 0-.559-2.255A4.82 4.82 0 0 0 .92 2.967c.082-.062.579-.476 1.24-.93.104-.063.208-.146.311-.208C3.713 1.002 5.368.071 6.278.381c.041.02.352.124.786.31.145.062.29.124.455.207.765.372.786.455 1.262.662 1.055.455 1.759.31 1.82.559.042.227-.475.558-.889.724-1.138.414-2.276-.207-2.648-.435-.124.125-2.317 2.566-2.214 4.097.104 1.448 3.02 3.02 3.331 2.958.02 0 .02 0 .02-.02V9.4c-.02-.29 1.18-.848 2.463-.827.165 0 .641.02.993.103.145.062.31.145.33.269z"/></svg></svg><svg width="11" height="12" xmlns="http://www.w3.org/2000/svg" xmlns:xlink="http://www.w3.org/1999/xlink" xmlns:svgjs="http://svgjs.com/svgjs" fill="#cd907f" x="212" y="174"><svg xmlns="http://www.w3.org/2000/svg" xmlns:xlink="http://www.w3.org/1999/xlink" width="11" height="12"><path paint-order="stroke fill markers" fill-rule="evenodd" d="M9.394 7.705c-.062.145-.124.29-.207.434 0 0-.27.848-.703 1.717-.435.87-1.014 1.738-1.656 1.8-.372.02-.724.02-1.055 0a.984.984 0 0 1-.206.104s-.6-.166-1.325-.373c-1.158-.31-2.648-.724-2.648-.724 0-.103.104-.207.27-.31.31-.186.827-.31 1.013-.373.827-.227 1.2.228 2.586.228.434 0 .641 0 .807-.062.02-.02.041-.02.083-.041.951-.497 1.158-2.483.786-3.973a.599.599 0 0 1-.041-.186c-.456-1.53-1.614-2.441-2.173-2.813A3.72 3.72 0 0 1 3.642 4.25c-1.096.58-2.358.538-2.627.352-.02-.021-.042-.042-.042-.063-.02-.124.27-.206 1.283-.93.497-.352.745-.538.89-.725.227-.29.248-.496.455-.869.062-.103.124-.227.207-.372 0 0 .186-.31.393-.58C4.511.672 5.546.63 6.953.879c.558.103 1.179.227 1.862.413l1.117.31c.062.539.641 3.352-.538 6.104z"/></svg></svg><svg width="3" height="7" xmlns="http://www.w3.org/2000/svg" xmlns:xlink="http://www.w3.org/1999/xlink" xmlns:svgjs="http://svgjs.com/svgjs" fill="#19233d" opacity=".149" x="220" y="175"><svg xmlns="http://www.w3.org/2000/svg" xmlns:xlink="http://www.w3.org/1999/xlink" width="3" height="7"><path paint-order="stroke fill markers" fill-rule="evenodd" d="M1.394 6.705L.752.27 1.87.58c.124.559.703 3.372-.476 6.124z"/></svg></svg><svg width="5" height="8" xmlns="http://www.w3.org/2000/svg" xmlns:xlink="http://www.w3.org/1999/xlink" xmlns:svgjs="http://svgjs.com/svgjs" fill="#19233d" opacity=".149" x="196" y="179"><svg xmlns="http://www.w3.org/2000/svg" xmlns:xlink="http://www.w3.org/1999/xlink" width="5" height="8"><path paint-order="stroke fill markers" fill-rule="evenodd" d="M4.581 7.339a9.455 9.455 0 0 1-.558-.807c-.31-.476-.538-.869-.662-1.117l-.662-.662a5.07 5.07 0 0 0-.559-2.255A4.82 4.82 0 0 0 .92.967C1.002.905 1.499.49 2.16.036l2.421 7.303z"/></svg></svg><svg width="4" height="2" xmlns="http://www.w3.org/2000/svg" xmlns:xlink="http://www.w3.org/1999/xlink" xmlns:svgjs="http://svgjs.com/svgjs" fill="#19233d" opacity=".078" x="203" y="178"><svg xmlns="http://www.w3.org/2000/svg" xmlns:xlink="http://www.w3.org/1999/xlink" width="4" height="2"><path paint-order="stroke fill markers" fill-rule="evenodd" d="M2.65 1.843C1.512 2.257.374 1.636.002 1.408c.145-.33.476-.641 1.303-.455.993.228 1.8.207 2.255.166.042.248-.496.579-.91.724z"/></svg></svg><svg width="4" height="2" xmlns="http://www.w3.org/2000/svg" xmlns:xlink="http://www.w3.org/1999/xlink" xmlns:svgjs="http://svgjs.com/svgjs" fill="#19233d" opacity=".078" x="204" y="185"><svg xmlns="http://www.w3.org/2000/svg" xmlns:xlink="http://www.w3.org/1999/xlink" width="4" height="2"><path paint-order="stroke fill markers" fill-rule="evenodd" d="M3.574.677c-.641.227-1.82.641-2.441.952-.455.227-.786.041-1.014-.187.02 0 .02 0 .02-.02V1.38C.12 1.09 1.32.532 2.603.553c.145.041.62.041.972.124z"/></svg></svg><svg width="8" height="5" xmlns="http://www.w3.org/2000/svg" xmlns:xlink="http://www.w3.org/1999/xlink" xmlns:svgjs="http://svgjs.com/svgjs" fill="#19233d" opacity=".078" x="212" y="176"><svg xmlns="http://www.w3.org/2000/svg" xmlns:xlink="http://www.w3.org/1999/xlink" width="8" height="5"><path paint-order="stroke fill markers" fill-rule="evenodd" d="M7.366 3.967a1.043 1.043 0 0 1-.268.145.598.598 0 0 1-.042-.186c-.455-1.531-1.614-2.442-2.172-2.814A3.721 3.721 0 0 1 3.6 2.229c-1.096.58-2.358.538-2.628.352a6.31 6.31 0 0 0 1.945-.62C4.242 1.277 4.428.614 5.153.614c1.448.042 2.606 3 2.213 3.352z"/></svg></svg><svg width="6" height="2" xmlns="http://www.w3.org/2000/svg" xmlns:xlink="http://www.w3.org/1999/xlink" xmlns:svgjs="http://svgjs.com/svgjs" fill="#19233d" opacity=".078" x="213" y="183"><svg xmlns="http://www.w3.org/2000/svg" xmlns:xlink="http://www.w3.org/1999/xlink" width="6" height="2"><path paint-order="stroke fill markers" fill-rule="evenodd" d="M5.311 1.105c-.6.869-2.73.517-4.055.31a1.617 1.617 0 0 1-.393-.083c.31-.186.828-.31 1.014-.372.827-.228 1.2.227 2.586.227.435 0 .641 0 .807-.062 0 0 .02-.02.041-.02z"/></svg></svg><svg width="6" height="3" xmlns="http://www.w3.org/2000/svg" xmlns:xlink="http://www.w3.org/1999/xlink" xmlns:svgjs="http://svgjs.com/svgjs" fill="#87aeb4" opacity=".161" x="198" y="177"><svg xmlns="http://www.w3.org/2000/svg" xmlns:xlink="http://www.w3.org/1999/xlink" width="6" height="3"><path paint-order="stroke fill markers" fill-rule="evenodd" d="M5.023.691c-.042.083-.083.186-.125.27C3.761 3.235 1.547 2.428.45 1.828 1.692 1.002 3.347.071 4.257.381c.021.02.331.124.766.31z"/></svg></svg><svg width="4" height="3" xmlns="http://www.w3.org/2000/svg" xmlns:xlink="http://www.w3.org/1999/xlink" xmlns:svgjs="http://svgjs.com/svgjs" fill="#87aeb4" opacity=".161" x="215" y="174"><svg xmlns="http://www.w3.org/2000/svg" xmlns:xlink="http://www.w3.org/1999/xlink" width="4" height="3"><path paint-order="stroke fill markers" fill-rule="evenodd" d="M3.89.857C3.642 1.871 1.76 2.015.54 2.015c.062-.103.124-.227.207-.372 0 0 .186-.31.393-.58C1.449.65 2.484.61 3.89.858z"/></svg></svg></svg><svg width="82" height="40" xmlns="http://www.w3.org/2000/svg" xmlns:xlink="http://www.w3.org/1999/xlink" xmlns:svgjs="http://svgjs.com/svgjs" viewBox="169 151 82 40" x="169" y="151"><svg width="30" height="30" xmlns="http://www.w3.org/2000/svg" xmlns:xlink="http://www.w3.org/1999/xlink" xmlns:svgjs="http://svgjs.com/svgjs" x="221" y="152"><svg xmlns="http://www.w3.org/2000/svg" xmlns:xlink="http://www.w3.org/1999/xlink" width="30" height="30"><path paint-order="stroke fill markers" fill-rule="evenodd" d="M29.544 25.733s-.104.186-.228.372c-1.614 2.255-8.565 3.062-14.42 3.33-4.696.208-8.71.084-8.71.084-.848-.021-1.634-.063-2.379-.083-1.22-.042-2.296-.104-3.186-.145v-5.793c.725-.124 1.51-.269 2.4-.413 2.793-.456 6.351-.89 10.51-1.159 4.303-.269 6.289-.228 6.454-.89.249-.91-2.937-3.124-18.474-8.896 1.51-3.889 3-7.799 4.51-11.688.786.393 1.531.786 2.276 1.179a72.026 72.026 0 0 1 11.916 8.068 51.728 51.728 0 0 1 3.641 3.29 48.332 48.332 0 0 1 1.47 1.53c3.599 3.993 4.24 6.642 4.406 8.338.124 1.428.186 2.13-.186 2.876z"/></svg></svg><svg width="33" height="40" xmlns="http://www.w3.org/2000/svg" xmlns:xlink="http://www.w3.org/1999/xlink" xmlns:svgjs="http://svgjs.com/svgjs" x="169" y="151"><svg xmlns="http://www.w3.org/2000/svg" xmlns:xlink="http://www.w3.org/1999/xlink" width="33" height="40"><path paint-order="stroke fill markers" fill-rule="evenodd" d="M28.788 28.305c.6 1.862 1.18 3.703 1.78 5.565-1.138.393-2.214.766-3.269 1.097-.6.207-1.2.393-1.78.579C8.639 40.904 2.99 39.89 1.419 37.429c-1.717-2.67.393-8.172 4.84-14.337a54.198 54.198 0 0 1 2.69-3.455C13.79 13.802 20.39 7.74 27.548 3.25c.04-.04.103-.062.144-.082.393-.249.765-.476 1.138-.704a70.251 70.251 0 0 1 3.289-1.84c.249-.125.476-.25.703-.353-1.489 4.82-2.958 9.641-4.447 14.461l-1.552 3.786a50.976 50.976 0 0 0-4.055 2.4 54.783 54.783 0 0 0-4.84 3.6c-1.884 1.593-5.752 4.841-5.11 6.02.35.642 2.75.166 7.571-.662l4.117-.745c.765-.144 1.49-.268 2.172-.393.724-.186 1.449-.31 2.11-.434z"/></svg></svg><svg width="4" height="7" xmlns="http://www.w3.org/2000/svg" xmlns:xlink="http://www.w3.org/1999/xlink" xmlns:svgjs="http://svgjs.com/svgjs" fill="#fff" x="221" y="175"><svg xmlns="http://www.w3.org/2000/svg" xmlns:xlink="http://www.w3.org/1999/xlink" width="4" height="7"><path paint-order="stroke fill markers" fill-rule="evenodd" d="M3.787 6.436C2.567 6.394 1.49 6.332.6 6.29V.498C1.325.374 2.11.23 3 .085l.786 6.35z"/></svg></svg><svg width="5" height="7" xmlns="http://www.w3.org/2000/svg" xmlns:xlink="http://www.w3.org/1999/xlink" xmlns:svgjs="http://svgjs.com/svgjs" fill="#fff" x="195" y="179"><svg xmlns="http://www.w3.org/2000/svg" xmlns:xlink="http://www.w3.org/1999/xlink" width="5" height="7"><path paint-order="stroke fill markers" fill-rule="evenodd" d="M4.568 5.87c-1.138.393-2.214.766-3.269 1.097L.596.719c.806-.145 1.53-.29 2.172-.414.6 1.841 1.2 3.703 1.8 5.565z"/></svg></svg><svg width="20" height="17" xmlns="http://www.w3.org/2000/svg" xmlns:xlink="http://www.w3.org/1999/xlink" xmlns:svgjs="http://svgjs.com/svgjs" fill="#fff" opacity=".071" x="177" y="154"><svg xmlns="http://www.w3.org/2000/svg" xmlns:xlink="http://www.w3.org/1999/xlink" width="20" height="17"><path paint-order="stroke fill markers" fill-rule="evenodd" d="M19.526.23v.373a13.819 13.819 0 0 1-.29 2.214c-.661 2.938-3.144 5.586-6.371 7.82-.29.186-.559.393-.87.58-3.433 2.254-7.53 4.075-11.067 5.399C5.748 10.782 12.348 4.74 19.526.23z"/></svg></svg><svg width="16" height="16" xmlns="http://www.w3.org/2000/svg" xmlns:xlink="http://www.w3.org/1999/xlink" xmlns:svgjs="http://svgjs.com/svgjs" fill="#271c41" opacity=".322" x="235" y="166"><svg xmlns="http://www.w3.org/2000/svg" xmlns:xlink="http://www.w3.org/1999/xlink" width="16" height="16"><path paint-order="stroke fill markers" fill-rule="evenodd" d="M15.544 11.733s-.104.186-.228.372c-1.614 2.255-8.565 3.062-14.42 3.33a559.366 559.366 0 0 1 8.42-4.592C13.433 8.65 13.123 4.575 11.302.52c3.6 3.992 4.242 6.64 4.407 8.337.145 1.427.207 2.13-.165 2.876z"/></svg></svg><svg width="16" height="13" xmlns="http://www.w3.org/2000/svg" xmlns:xlink="http://www.w3.org/1999/xlink" xmlns:svgjs="http://svgjs.com/svgjs" fill="#271c41" opacity=".141" x="229" y="153"><svg xmlns="http://www.w3.org/2000/svg" xmlns:xlink="http://www.w3.org/1999/xlink" width="16" height="13"><path paint-order="stroke fill markers" fill-rule="evenodd" d="M15.834 12.01a11.5 11.5 0 0 1-1.428.496C6.813 14.72 2.262 5.948.256.65A72.02 72.02 0 0 1 12.171 8.72c1.427 1.18 2.648 2.276 3.662 3.29z"/></svg></svg></svg><svg width="11" height="18" xmlns="http://www.w3.org/2000/svg" xmlns:xlink="http://www.w3.org/1999/xlink" xmlns:svgjs="http://svgjs.com/svgjs" viewBox="204 141 11 18" x="204" y="141"><svg width="11" height="18" xmlns="http://www.w3.org/2000/svg" xmlns:xlink="http://www.w3.org/1999/xlink" xmlns:svgjs="http://svgjs.com/svgjs" fill="#cd907f" x="204" y="141"><svg xmlns="http://www.w3.org/2000/svg" xmlns:xlink="http://www.w3.org/1999/xlink" width="11" height="18"><path paint-order="stroke fill markers" fill-rule="evenodd" d="M7.422 17.1c-1.448.806-3.724 1.096-5.151 0a2.578 2.578 0 0 1-.642-.704c-.393-.641-.558-1.572-.683-3.062-.061-.89-.124-1.965-.186-3.31C.74 9.486.698 8.783.657 7.955.616 7.273.595 6.507.553 5.66.492 4.418.41 3.01.326 1.459c3.207-.207 6.434-.393 9.64-.6.146 1.697.642 7.738.642 7.882.042 1.118.124 6.476-3.186 8.359z"/></svg></svg><svg width="7" height="9" xmlns="http://www.w3.org/2000/svg" xmlns:xlink="http://www.w3.org/1999/xlink" xmlns:svgjs="http://svgjs.com/svgjs" fill="#19233d" opacity=".149" x="204" y="146"><svg xmlns="http://www.w3.org/2000/svg" xmlns:xlink="http://www.w3.org/1999/xlink" width="7" height="9"><path paint-order="stroke fill markers" fill-rule="evenodd" d="M.574.638C.657 2.521.74 4.01.781 5.003c.062 1.345.104 2.42.186 3.31C5.23 9.7 6.367.08 6.367.08L.574.638z"/></svg></svg><svg width="3" height="10" xmlns="http://www.w3.org/2000/svg" xmlns:xlink="http://www.w3.org/1999/xlink" xmlns:svgjs="http://svgjs.com/svgjs" fill="#fff" opacity=".18" x="204" y="148"><svg xmlns="http://www.w3.org/2000/svg" xmlns:xlink="http://www.w3.org/1999/xlink" width="3" height="10"><path paint-order="stroke fill markers" fill-rule="evenodd" d="M2.022 6.81c-.041 1.2-.186 2.027-.372 2.586-.393-.641-.559-1.572-.683-3.062a139.89 139.89 0 0 1-.186-3.31C.761 2.486.72 1.783.678.955c.682.58 1.468 2.069 1.344 5.855z"/></svg></svg></svg><svg width="17" height="24" xmlns="http://www.w3.org/2000/svg" xmlns:xlink="http://www.w3.org/1999/xlink" xmlns:svgjs="http://svgjs.com/svgjs" viewBox="199 126 17 24" x="199" y="126"><svg width="17" height="24" xmlns="http://www.w3.org/2000/svg" xmlns:xlink="http://www.w3.org/1999/xlink" xmlns:svgjs="http://svgjs.com/svgjs" viewBox="199 126 17 24" x="199" y="126"><svg width="17" height="24" xmlns="http://www.w3.org/2000/svg" xmlns:xlink="http://www.w3.org/1999/xlink" xmlns:svgjs="http://svgjs.com/svgjs" fill="#cd907f" x="199" y="126"><svg xmlns="http://www.w3.org/2000/svg" xmlns:xlink="http://www.w3.org/1999/xlink" width="17" height="24"><path paint-order="stroke fill markers" fill-rule="evenodd" d="M16.415 11.142c-.228 1.428-.352 1.531-.89 4.407a99.383 99.383 0 0 0-.496 2.772c-.021.145-.042.29-.083.435-.29.351-1.427 1.737-3.082 2.979-1.407 1.055-3.497 2.462-6.041 2.172-.063 0-.145-.02-.208-.02-.517-.084-2.627-.477-3.744-2.194-.31-.476-.414-.869-.58-2.172-.02-.269-.061-.6-.103-.952 0 0-.207-2.048-.31-4.489-.083-1.717-.124-3.641-.02-5.151l.04-.538v-.104c.021-.269.042-.538.083-.786l.063-.476c.02-.207.31-1.551 1.013-2.917.331-.682.786-1.386 1.345-1.944l.165-.166C6.32-.567 11.72-.505 14.553 2.101c1.138 1.035 1.614 2.276 1.78 2.67.785 1.923.517 3.661.082 6.371z"/></svg></svg><svg width="4" height="14" xmlns="http://www.w3.org/2000/svg" xmlns:xlink="http://www.w3.org/1999/xlink" xmlns:svgjs="http://svgjs.com/svgjs" fill="#87aeb4" opacity=".302" x="199" y="127"><svg xmlns="http://www.w3.org/2000/svg" xmlns:xlink="http://www.w3.org/1999/xlink" width="4" height="14"><path paint-order="stroke fill markers" fill-rule="evenodd" d="M3.609.998c-.87 2.73-2.09 7.2-2.69 12.082C.837 11.363.795 9.439.9 7.929l.04-.538v-.104c.022-.269.042-.538.084-.786.02-.165.041-.31.062-.476.02-.207.31-1.551 1.014-2.917.33-.682.786-1.386 1.344-1.944.042-.063.104-.104.166-.166z"/></svg></svg><svg width="5" height="5" xmlns="http://www.w3.org/2000/svg" xmlns:xlink="http://www.w3.org/1999/xlink" xmlns:svgjs="http://svgjs.com/svgjs" fill="#87aeb4" opacity=".102" x="200" y="145"><svg xmlns="http://www.w3.org/2000/svg" xmlns:xlink="http://www.w3.org/1999/xlink" width="5" height="5"><path paint-order="stroke fill markers" fill-rule="evenodd" d="M4.843 4.907c-.062 0-.145-.02-.207-.02C4.12 4.802 2.01 4.41.892 2.692.582 2.217.478 1.824.312.521l4.531 4.386z"/></svg></svg></svg><svg width="5" height="3" xmlns="http://www.w3.org/2000/svg" xmlns:xlink="http://www.w3.org/1999/xlink" xmlns:svgjs="http://svgjs.com/svgjs" fill="#302c34" x="202" y="142"><svg xmlns="http://www.w3.org/2000/svg" xmlns:xlink="http://www.w3.org/1999/xlink" width="5" height="3"><path paint-order="stroke fill markers" fill-rule="evenodd" d="M1.002 2.921c-.166 0-.31-.02-.435-.02-.082 0-.124-.083-.124-.145 0-.083.083-.125.145-.125.393.063.993.063 1.614-.227C3.319 1.907 3.712.832 3.815.52c.021-.062.104-.103.166-.083a.14.14 0 0 1 .083.166c-.104.331-.538 1.49-1.759 2.048a3.26 3.26 0 0 1-1.303.27z"/></svg></svg><svg width="7" height="3" xmlns="http://www.w3.org/2000/svg" xmlns:xlink="http://www.w3.org/1999/xlink" xmlns:svgjs="http://svgjs.com/svgjs" viewBox="200 136 7 3" x="200" y="136"><svg width="3" height="3" xmlns="http://www.w3.org/2000/svg" xmlns:xlink="http://www.w3.org/1999/xlink" xmlns:svgjs="http://svgjs.com/svgjs" fill="#302c34" x="204" y="136"><svg xmlns="http://www.w3.org/2000/svg" xmlns:xlink="http://www.w3.org/1999/xlink" width="3" height="3"><path paint-order="stroke fill markers" fill-rule="evenodd" d="M1.547 2.011A.579.579 0 1 1 1.545.854a.579.579 0 0 1 .002 1.157z"/></svg></svg><svg width="2" height="2" xmlns="http://www.w3.org/2000/svg" xmlns:xlink="http://www.w3.org/1999/xlink" xmlns:svgjs="http://svgjs.com/svgjs" fill="#302c34" x="200" y="136"><svg xmlns="http://www.w3.org/2000/svg" xmlns:xlink="http://www.w3.org/1999/xlink" width="2" height="2"><path paint-order="stroke fill markers" fill-rule="evenodd" d="M1.099 1.97A.579.579 0 1 1 1.097.812.579.579 0 0 1 1.1 1.97z"/></svg></svg></svg><svg width="11" height="3" xmlns="http://www.w3.org/2000/svg" xmlns:xlink="http://www.w3.org/1999/xlink" xmlns:svgjs="http://svgjs.com/svgjs" viewBox="199 133 11 3" x="199" y="133"><svg width="6" height="3" xmlns="http://www.w3.org/2000/svg" xmlns:xlink="http://www.w3.org/1999/xlink" xmlns:svgjs="http://svgjs.com/svgjs" fill="#302c34" x="204" y="133"><svg xmlns="http://www.w3.org/2000/svg" xmlns:xlink="http://www.w3.org/1999/xlink" width="6" height="3"><path paint-order="stroke fill markers" fill-rule="evenodd" d="M5.338 1.023L.55 2.619l-.196-.59L5.142.435l.196.589z"/></svg></svg><svg width="4" height="2" xmlns="http://www.w3.org/2000/svg" xmlns:xlink="http://www.w3.org/1999/xlink" xmlns:svgjs="http://svgjs.com/svgjs" fill="#302c34" x="199" y="134"><svg xmlns="http://www.w3.org/2000/svg" xmlns:xlink="http://www.w3.org/1999/xlink" width="4" height="2"><path paint-order="stroke fill markers" fill-rule="evenodd" d="M3.195 1.032l-.186.58L.899.907C.919.722.919.556.939.37V.267l2.256.765z"/></svg></svg></svg><svg width="15" height="19" xmlns="http://www.w3.org/2000/svg" xmlns:xlink="http://www.w3.org/1999/xlink" xmlns:svgjs="http://svgjs.com/svgjs" fill="#302c34" x="201" y="126"><svg xmlns="http://www.w3.org/2000/svg" xmlns:xlink="http://www.w3.org/1999/xlink" width="15" height="19"><path paint-order="stroke fill markers" fill-rule="evenodd" d="M14.415 11.142c-.145.973-.27 1.324-.476 2.359-.228 1.075-.372 1.593-.414 2.048-.082.807.042.993-.062 1.903a9.293 9.293 0 0 1-.227 1.345c-.104-.476-.166-.993-.228-1.552a14.02 14.02 0 0 1 .455-4.903c-.972.228-1.924.455-2.896.662-.248-.33-1.655-2.317-1.117-4.903.351-1.676 1.344-2.71 1.78-3.124a19.36 19.36 0 0 0-6.228-1.345 18.514 18.514 0 0 0-4.924.456c.33-.683.786-1.387 1.345-1.945C4.112-.588 9.677-.588 12.573 2.08c1.138 1.034 1.614 2.276 1.78 2.669.765 1.944.497 3.682.062 6.392z"/></svg></svg><svg width="5" height="6" xmlns="http://www.w3.org/2000/svg" xmlns:xlink="http://www.w3.org/1999/xlink" xmlns:svgjs="http://svgjs.com/svgjs" viewBox="211 135 5 6" x="211" y="135"><svg width="5" height="6" xmlns="http://www.w3.org/2000/svg" xmlns:xlink="http://www.w3.org/1999/xlink" xmlns:svgjs="http://svgjs.com/svgjs" fill="#cd907f" x="211" y="135"><svg xmlns="http://www.w3.org/2000/svg" xmlns:xlink="http://www.w3.org/1999/xlink" width="5" height="6"><path paint-order="stroke fill markers" fill-rule="evenodd" d="M.174 3.032c.165 1.076 1.013 2.048 2.172 2.09 1.324.061 2.4-1.118 2.4-2.4 0-.6-.228-1.18-.62-1.614A2.258 2.258 0 0 0 2.345.3C1.27.342.4 1.231.195 2.225a1.04 1.04 0 0 0-.042.269c-.02.186-.02.352.02.538z"/></svg></svg><svg width="5" height="5" xmlns="http://www.w3.org/2000/svg" xmlns:xlink="http://www.w3.org/1999/xlink" xmlns:svgjs="http://svgjs.com/svgjs" fill="#19233d" opacity=".078" x="211" y="135"><svg xmlns="http://www.w3.org/2000/svg" xmlns:xlink="http://www.w3.org/1999/xlink" width="5" height="5"><path paint-order="stroke fill markers" fill-rule="evenodd" d="M.174 3.032c.082.352.207.683.393 1.014 1.2-.973 2.38-1.966 3.58-2.938A2.26 2.26 0 0 0 2.366.3C1.29.342.422 1.232.215 2.225c-.02.083-.041.166-.041.269a1.18 1.18 0 0 0 0 .538z"/></svg></svg></svg><svg width="3" height="7" xmlns="http://www.w3.org/2000/svg" xmlns:xlink="http://www.w3.org/1999/xlink" xmlns:svgjs="http://svgjs.com/svgjs" viewBox="201 136 3 7" x="201" y="136"><svg width="3" height="7" xmlns="http://www.w3.org/2000/svg" xmlns:xlink="http://www.w3.org/1999/xlink" xmlns:svgjs="http://svgjs.com/svgjs" fill="#a2625e" x="201" y="136"><svg xmlns="http://www.w3.org/2000/svg" xmlns:xlink="http://www.w3.org/1999/xlink" width="3" height="7"><path paint-order="stroke fill markers" fill-rule="evenodd" d="M2.788 6.356c-.786.165-1.841.29-2.379.041a.687.687 0 0 1-.29-.248c-.227-.414.207-.973.89-2.235A30.607 30.607 0 0 0 2.416.935v.021c.124 1.78.248 3.58.372 5.4z"/></svg></svg><svg width="3" height="7" xmlns="http://www.w3.org/2000/svg" xmlns:xlink="http://www.w3.org/1999/xlink" xmlns:svgjs="http://svgjs.com/svgjs" fill="#87aeb4" opacity=".122" x="201" y="136"><svg xmlns="http://www.w3.org/2000/svg" xmlns:xlink="http://www.w3.org/1999/xlink" width="3" height="7"><path paint-order="stroke fill markers" fill-rule="evenodd" d="M2.416.915L.409 6.376a.686.686 0 0 1-.29-.248c-.227-.414.207-.972.89-2.234A30.616 30.616 0 0 0 2.416.914z"/></svg></svg></svg></svg></svg><svg width="85" height="116" xmlns="http://www.w3.org/2000/svg" xmlns:xlink="http://www.w3.org/1999/xlink" xmlns:svgjs="http://svgjs.com/svgjs" viewBox="91 156 85 116" x="91" y="156"><svg width="85" height="77" xmlns="http://www.w3.org/2000/svg" xmlns:xlink="http://www.w3.org/1999/xlink" xmlns:svgjs="http://svgjs.com/svgjs" fill="#9db5c4" x="91" y="156"><svg xmlns="http://www.w3.org/2000/svg" xmlns:xlink="http://www.w3.org/1999/xlink" width="85" height="77"><path paint-order="stroke fill markers" fill-rule="evenodd" d="M81.9.258L3.43 4.954c-.249.021-.497.104-.704.249C2.623 5.265.575 6.568.471 8.347l1.47-.082v57.244c0 .931.661 1.759 1.489 1.841l77.85 7.986.827 1.614 1.47-2.131c.31-.331.516-.766.516-1.262V2.162C84.073 1.044 83.08.175 81.901.258z"/></svg></svg><svg width="83" height="76" xmlns="http://www.w3.org/2000/svg" xmlns:xlink="http://www.w3.org/1999/xlink" xmlns:svgjs="http://svgjs.com/svgjs" fill="#bdd3de" x="91" y="158"><svg xmlns="http://www.w3.org/2000/svg" xmlns:xlink="http://www.w3.org/1999/xlink" width="83" height="76"><path paint-order="stroke fill markers" fill-rule="evenodd" d="M80.328 75.612l-78.47-8.048c-.828-.083-1.49-.91-1.49-1.841V6.947c0-.93.662-1.717 1.49-1.779L80.328.472c1.2-.062 2.172.786 2.172 1.924V73.79c.02 1.138-.972 1.945-2.172 1.82z"/></svg></svg><svg width="83" height="76" xmlns="http://www.w3.org/2000/svg" xmlns:xlink="http://www.w3.org/1999/xlink" xmlns:svgjs="http://svgjs.com/svgjs" fill="#fff" opacity=".631" x="91" y="158"><svg xmlns="http://www.w3.org/2000/svg" xmlns:xlink="http://www.w3.org/1999/xlink" width="83" height="76"><path paint-order="stroke fill markers" fill-rule="evenodd" d="M82.521 2.396V73.79c0 1.117-.993 1.945-2.172 1.82l-33.825-3.475-44.666-4.572c-.497-.041-.932-.372-1.2-.807a1.943 1.943 0 0 1-.29-1.034V6.947c0-.93.662-1.717 1.49-1.779L80.328.472c.6-.042 1.159.165 1.552.517s.641.848.641 1.407z"/></svg></svg><svg width="83" height="75" xmlns="http://www.w3.org/2000/svg" xmlns:xlink="http://www.w3.org/1999/xlink" xmlns:svgjs="http://svgjs.com/svgjs" fill="#365588" opacity=".09" x="91" y="159"><svg xmlns="http://www.w3.org/2000/svg" xmlns:xlink="http://www.w3.org/1999/xlink" width="83" height="75"><path paint-order="stroke fill markers" fill-rule="evenodd" d="M82.52 1.396V72.79c0 1.117-.992 1.945-2.171 1.82l-78.47-8.047c-.497-.041-.932-.373-1.2-.807L81.878.01c.394.33.642.827.642 1.386z"/></svg></svg><svg width="37" height="59" xmlns="http://www.w3.org/2000/svg" xmlns:xlink="http://www.w3.org/1999/xlink" xmlns:svgjs="http://svgjs.com/svgjs" fill="#0b224c" opacity=".161" x="137" y="175"><svg xmlns="http://www.w3.org/2000/svg" xmlns:xlink="http://www.w3.org/1999/xlink" width="37" height="59"><path paint-order="stroke fill markers" fill-rule="evenodd" d="M36.52.664V56.79c0 1.117-.992 1.945-2.171 1.82L.524 55.137C13.06 36.02 28.908 11.96 36.52.664z"/></svg></svg><svg width="30" height="75" xmlns="http://www.w3.org/2000/svg" xmlns:xlink="http://www.w3.org/1999/xlink" xmlns:svgjs="http://svgjs.com/svgjs" fill="#19233d" x="98" y="194"><svg xmlns="http://www.w3.org/2000/svg" xmlns:xlink="http://www.w3.org/1999/xlink" width="30" height="75"><path paint-order="stroke fill markers" fill-rule="evenodd" d="M29.345 1.049l-8.213 22.426L4.354 69.279a2.976 2.976 0 0 1 1.654 2.875 2.99 2.99 0 0 1-3.185 2.793A2.99 2.99 0 0 1 .03 71.761a2.991 2.991 0 0 1 3.185-2.793h.042l17.006-46.362L28.29.656a.567.567 0 0 1 .724-.331c.29.103.455.434.33.724z"/></svg></svg><svg width="28" height="78" xmlns="http://www.w3.org/2000/svg" xmlns:xlink="http://www.w3.org/1999/xlink" xmlns:svgjs="http://svgjs.com/svgjs" fill="#19233d" x="130" y="194"><svg xmlns="http://www.w3.org/2000/svg" xmlns:xlink="http://www.w3.org/1999/xlink" width="28" height="78"><path paint-order="stroke fill markers" fill-rule="evenodd" d="M24.819 77.533a3.087 3.087 0 0 1-3.372-2.772 3.083 3.083 0 0 1 1.551-3l-6.6-20.709L.408.78A.557.557 0 0 1 .779.056a.557.557 0 0 1 .724.372l16.675 52.445 5.896 18.537c.041 0 .083-.021.104-.021a3.087 3.087 0 0 1 3.372 2.772c.207 1.697-1.035 3.207-2.731 3.372z"/></svg></svg><svg width="10" height="24" xmlns="http://www.w3.org/2000/svg" xmlns:xlink="http://www.w3.org/1999/xlink" xmlns:svgjs="http://svgjs.com/svgjs" fill="#19233d" opacity=".102" x="118" y="194"><svg xmlns="http://www.w3.org/2000/svg" xmlns:xlink="http://www.w3.org/1999/xlink" width="10" height="24"><path paint-order="stroke fill markers" fill-rule="evenodd" d="M9.345 1.049L1.132 23.475l-.87-.89L8.29.635a.567.567 0 0 1 .724-.331c.29.103.455.455.33.745z"/></svg></svg><svg width="19" height="53" xmlns="http://www.w3.org/2000/svg" xmlns:xlink="http://www.w3.org/1999/xlink" xmlns:svgjs="http://svgjs.com/svgjs" fill="#19233d" opacity=".102" x="130" y="194"><svg xmlns="http://www.w3.org/2000/svg" width="19" height="53"><path paint-order="stroke fill markers" fill-rule="evenodd" d="M18.199 52.873l-1.8-1.82L.407.78A.557.557 0 0 1 .779.056a.557.557 0 0 1 .724.372L18.2 52.873z"/></svg></svg></svg></svg></svg></svg>