<svg width="211" height="214" xmlns="http://www.w3.org/2000/svg" xmlns:xlink="http://www.w3.org/1999/xlink" xmlns:svgjs="http://svgjs.com/svgjs" viewBox="60 59 211 214"><svg width="211" height="214" xmlns="http://www.w3.org/2000/svg" xmlns:xlink="http://www.w3.org/1999/xlink" xmlns:svgjs="http://svgjs.com/svgjs" viewBox="60 59 211 214" x="60" y="59"><svg width="211" height="214" xmlns="http://www.w3.org/2000/svg" xmlns:xlink="http://www.w3.org/1999/xlink" xmlns:svgjs="http://svgjs.com/svgjs" viewBox="60 59 211 214" x="60" y="59"><svg width="208" height="32" xmlns="http://www.w3.org/2000/svg" xmlns:xlink="http://www.w3.org/1999/xlink" xmlns:svgjs="http://svgjs.com/svgjs" viewBox="60 233 208 32" x="60" y="233"><svg width="94" height="1" xmlns="http://www.w3.org/2000/svg" xmlns:xlink="http://www.w3.org/1999/xlink" xmlns:svgjs="http://svgjs.com/svgjs" fill="#dfded9" x="60" y="233"><svg xmlns="http://www.w3.org/2000/svg" xmlns:xlink="http://www.w3.org/1999/xlink" width="94" height="1"><path paint-order="stroke fill markers" fill-rule="evenodd" d="M93.554.645H.878C.766.645.69.571.69.458.69.346.766.271.878.271h92.676c.113 0 .187.075.187.187a.188.188 0 0 1-.187.187z"/></svg></svg><svg width="107" height="1" xmlns="http://www.w3.org/2000/svg" xmlns:xlink="http://www.w3.org/1999/xlink" xmlns:svgjs="http://svgjs.com/svgjs" fill="#dfded9" x="158" y="233"><svg xmlns="http://www.w3.org/2000/svg" xmlns:xlink="http://www.w3.org/1999/xlink" width="107" height="1"><path paint-order="stroke fill markers" fill-rule="evenodd" d="M106.8.645H.72C.609.645.534.571.534.458c0-.112.075-.187.188-.187h106.078c.113 0 .188.075.188.187a.188.188 0 0 1-.188.187z"/></svg></svg><svg width="43" height="1" xmlns="http://www.w3.org/2000/svg" xmlns:xlink="http://www.w3.org/1999/xlink" xmlns:svgjs="http://svgjs.com/svgjs" fill="#dfded9" x="218" y="241"><svg xmlns="http://www.w3.org/2000/svg" xmlns:xlink="http://www.w3.org/1999/xlink" width="43" height="1"><path paint-order="stroke fill markers" fill-rule="evenodd" d="M42.288.6H.938C.827.6.752.527.752.415.751.3.826.226.94.226h41.35c.111 0 .187.075.187.188a.188.188 0 0 1-.188.187z"/></svg></svg><svg width="122" height="1" xmlns="http://www.w3.org/2000/svg" xmlns:xlink="http://www.w3.org/1999/xlink" xmlns:svgjs="http://svgjs.com/svgjs" fill="#dfded9" x="88" y="241"><svg xmlns="http://www.w3.org/2000/svg" xmlns:xlink="http://www.w3.org/1999/xlink" width="122" height="1"><path paint-order="stroke fill markers" fill-rule="evenodd" d="M120.887.6H.487C.377.6.302.527.302.415.3.3.376.226.488.226h120.38c.112 0 .187.075.187.188 0 .112-.075.187-.168.187z"/></svg></svg><svg width="17" height="1" xmlns="http://www.w3.org/2000/svg" xmlns:xlink="http://www.w3.org/1999/xlink" xmlns:svgjs="http://svgjs.com/svgjs" fill="#dfded9" x="68" y="241"><svg xmlns="http://www.w3.org/2000/svg" xmlns:xlink="http://www.w3.org/1999/xlink" width="17" height="1"><path paint-order="stroke fill markers" fill-rule="evenodd" d="M16.538.6H.44C.328.6.253.527.253.415.253.3.328.226.44.226h16.098c.113 0 .187.075.187.188a.187.187 0 0 1-.187.187z"/></svg></svg><svg width="130" height="1" xmlns="http://www.w3.org/2000/svg" xmlns:xlink="http://www.w3.org/1999/xlink" xmlns:svgjs="http://svgjs.com/svgjs" fill="#dfded9" x="138" y="252"><svg xmlns="http://www.w3.org/2000/svg" xmlns:xlink="http://www.w3.org/1999/xlink" width="130" height="1"><path paint-order="stroke fill markers" fill-rule="evenodd" d="M129.476.402H1.028C.916.402.841.327.841.214c0-.112.075-.187.187-.187h128.448c.113 0 .187.075.187.187 0 .113-.074.188-.187.188z"/></svg></svg><svg width="66" height="1" xmlns="http://www.w3.org/2000/svg" xmlns:xlink="http://www.w3.org/1999/xlink" xmlns:svgjs="http://svgjs.com/svgjs" fill="#dfded9" x="64" y="252"><svg xmlns="http://www.w3.org/2000/svg" xmlns:xlink="http://www.w3.org/1999/xlink" width="66" height="1"><path paint-order="stroke fill markers" fill-rule="evenodd" d="M65.5.402H1.128C1.015.402.94.327.94.214c0-.112.075-.187.187-.187h64.374c.112 0 .187.075.187.187a.188.188 0 0 1-.187.188z"/></svg></svg><svg width="195" height="1" xmlns="http://www.w3.org/2000/svg" xmlns:xlink="http://www.w3.org/1999/xlink" xmlns:svgjs="http://svgjs.com/svgjs" fill="#dfded9" x="63" y="264"><svg xmlns="http://www.w3.org/2000/svg" xmlns:xlink="http://www.w3.org/1999/xlink" width="195" height="1"><path paint-order="stroke fill markers" fill-rule="evenodd" d="M194.555 1H.892C.779 1 .705.923.705.811S.779.625.892.625h193.645c.112 0 .187.075.187.187s-.075.187-.169.187z"/></svg></svg></svg><svg width="75" height="35" xmlns="http://www.w3.org/2000/svg" xmlns:xlink="http://www.w3.org/1999/xlink" xmlns:svgjs="http://svgjs.com/svgjs" viewBox="131 238 75 35" x="131" y="238"><svg width="75" height="35" xmlns="http://www.w3.org/2000/svg" xmlns:xlink="http://www.w3.org/1999/xlink" xmlns:svgjs="http://svgjs.com/svgjs" fill="#fae9e3" x="131" y="238"><svg xmlns="http://www.w3.org/2000/svg" xmlns:xlink="http://www.w3.org/1999/xlink" width="75" height="35"><path paint-order="stroke fill markers" fill-rule="evenodd" d="M74.536 34c-2.153-.131-4.305-.28-6.44-.412L.523 29.208 8.777.774C22.124.7 35.47.624 48.817.568L68.902.456a1202.426 1202.426 0 0 1 3.07 17.483A1278.23 1278.23 0 0 1 74.536 34z"/></svg></svg><svg width="30" height="34" xmlns="http://www.w3.org/2000/svg" xmlns:xlink="http://www.w3.org/1999/xlink" xmlns:svgjs="http://svgjs.com/svgjs" fill="#ece0df" x="176" y="238"><svg xmlns="http://www.w3.org/2000/svg" xmlns:xlink="http://www.w3.org/1999/xlink" width="30" height="34"><path paint-order="stroke fill markers" fill-rule="evenodd" d="M29.536 34c-2.153-.131-4.305-.28-6.44-.412-.037-10.22-14.038-5.485-20.702-19.598C-.882 7.045.915 2.964 3.798.568L23.883.456a1202.61 1202.61 0 0 1 3.07 17.483c.917 5.429 1.778 10.782 2.583 16.06z"/></svg></svg><svg width="13" height="16" xmlns="http://www.w3.org/2000/svg" xmlns:xlink="http://www.w3.org/1999/xlink" xmlns:svgjs="http://svgjs.com/svgjs" fill="#ece0df" x="146" y="245"><svg xmlns="http://www.w3.org/2000/svg" xmlns:xlink="http://www.w3.org/1999/xlink" width="13" height="16"><path paint-order="stroke fill markers" fill-rule="evenodd" d="M6.618 15.245c-3.426 0-6.196-3.188-6.196-7.132C.422 4.169 3.192.98 6.618.98c3.427 0 6.196 3.188 6.196 7.132 0 3.944-2.77 7.132-6.196 7.132z"/></svg></svg></svg><svg width="6" height="42" xmlns="http://www.w3.org/2000/svg" xmlns:xlink="http://www.w3.org/1999/xlink" xmlns:svgjs="http://svgjs.com/svgjs" viewBox="209 59 6 42" x="209" y="59"><svg width="2" height="34" xmlns="http://www.w3.org/2000/svg" xmlns:xlink="http://www.w3.org/1999/xlink" xmlns:svgjs="http://svgjs.com/svgjs" fill="#dfded9" x="211" y="59"><svg xmlns="http://www.w3.org/2000/svg" xmlns:xlink="http://www.w3.org/1999/xlink" width="2" height="34"><path paint-order="stroke fill markers" fill-rule="evenodd" d="M.788 0h.374v33.132H.788V0z"/></svg></svg><svg width="4" height="7" xmlns="http://www.w3.org/2000/svg" xmlns:xlink="http://www.w3.org/1999/xlink" xmlns:svgjs="http://svgjs.com/svgjs" fill="#dfded9" x="210" y="91"><svg xmlns="http://www.w3.org/2000/svg" xmlns:xlink="http://www.w3.org/1999/xlink" width="4" height="7"><path paint-order="stroke fill markers" fill-rule="evenodd" d="M.627 5.737V1.432c0-.75.6-1.348 1.348-1.348.749 0 1.348.599 1.348 1.348v4.305c-.094.093-.58.561-1.348.561a1.948 1.948 0 0 1-1.348-.561z"/></svg></svg><svg width="6" height="6" xmlns="http://www.w3.org/2000/svg" xmlns:xlink="http://www.w3.org/1999/xlink" xmlns:svgjs="http://svgjs.com/svgjs" fill="#fae9e3" x="209" y="95"><svg xmlns="http://www.w3.org/2000/svg" xmlns:xlink="http://www.w3.org/1999/xlink" width="6" height="6"><path paint-order="stroke fill markers" fill-rule="evenodd" d="M2.975 5.949A2.861 2.861 0 0 1 .111 3.085 2.861 2.861 0 0 1 2.975.22 2.862 2.862 0 0 1 5.84 3.085a2.862 2.862 0 0 1-2.864 2.864z"/></svg></svg></svg><svg width="203" height="139" xmlns="http://www.w3.org/2000/svg" xmlns:xlink="http://www.w3.org/1999/xlink" xmlns:svgjs="http://svgjs.com/svgjs" viewBox="68 71 203 139" x="68" y="71"><svg width="13" height="5" xmlns="http://www.w3.org/2000/svg" xmlns:xlink="http://www.w3.org/1999/xlink" xmlns:svgjs="http://svgjs.com/svgjs" fill="#eeeff1" x="68" y="147"><svg xmlns="http://www.w3.org/2000/svg" xmlns:xlink="http://www.w3.org/1999/xlink" width="13" height="5"><path paint-order="stroke fill markers" fill-rule="evenodd" d="M.927.464h11.287V4.77H.927V.464z"/></svg></svg><svg width="12" height="6" xmlns="http://www.w3.org/2000/svg" xmlns:xlink="http://www.w3.org/1999/xlink" xmlns:svgjs="http://svgjs.com/svgjs" fill="#eeeff1" x="77" y="199"><svg xmlns="http://www.w3.org/2000/svg" xmlns:xlink="http://www.w3.org/1999/xlink" width="12" height="6"><path paint-order="stroke fill markers" fill-rule="evenodd" d="M.22.84h11.287v4.305H.22V.839z"/></svg></svg><svg width="12" height="5" xmlns="http://www.w3.org/2000/svg" xmlns:xlink="http://www.w3.org/1999/xlink" xmlns:svgjs="http://svgjs.com/svgjs" fill="#eeeff1" x="259" y="153"><svg xmlns="http://www.w3.org/2000/svg" xmlns:xlink="http://www.w3.org/1999/xlink" width="12" height="5"><path paint-order="stroke fill markers" fill-rule="evenodd" d="M.128.099h11.287v4.305H.128V.1z"/></svg></svg><svg width="13" height="5" xmlns="http://www.w3.org/2000/svg" xmlns:xlink="http://www.w3.org/1999/xlink" xmlns:svgjs="http://svgjs.com/svgjs" fill="#eeeff1" x="87" y="96"><svg xmlns="http://www.w3.org/2000/svg" xmlns:xlink="http://www.w3.org/1999/xlink" width="13" height="5"><path paint-order="stroke fill markers" fill-rule="evenodd" d="M.983.138H12.27v4.305H.983V.138z"/></svg></svg><svg width="13" height="5" xmlns="http://www.w3.org/2000/svg" xmlns:xlink="http://www.w3.org/1999/xlink" xmlns:svgjs="http://svgjs.com/svgjs" fill="#eeeff1" x="94" y="101"><svg xmlns="http://www.w3.org/2000/svg" xmlns:xlink="http://www.w3.org/1999/xlink" width="13" height="5"><path paint-order="stroke fill markers" fill-rule="evenodd" d="M.871.473h11.287v4.305H.871V.473z"/></svg></svg><svg width="12" height="5" xmlns="http://www.w3.org/2000/svg" xmlns:xlink="http://www.w3.org/1999/xlink" xmlns:svgjs="http://svgjs.com/svgjs" fill="#eeeff1" x="129" y="178"><svg xmlns="http://www.w3.org/2000/svg" xmlns:xlink="http://www.w3.org/1999/xlink" width="12" height="5"><path paint-order="stroke fill markers" fill-rule="evenodd" d="M.538.5h11.288v4.305H.538V.5z"/></svg></svg><svg width="12" height="6" xmlns="http://www.w3.org/2000/svg" xmlns:xlink="http://www.w3.org/1999/xlink" xmlns:svgjs="http://svgjs.com/svgjs" fill="#eeeff1" x="163" y="130"><svg xmlns="http://www.w3.org/2000/svg" xmlns:xlink="http://www.w3.org/1999/xlink" width="12" height="6"><path paint-order="stroke fill markers" fill-rule="evenodd" d="M.569.861h11.287v4.305H.569V.861z"/></svg></svg><svg width="13" height="5" xmlns="http://www.w3.org/2000/svg" xmlns:xlink="http://www.w3.org/1999/xlink" xmlns:svgjs="http://svgjs.com/svgjs" fill="#eeeff1" x="132" y="71"><svg xmlns="http://www.w3.org/2000/svg" xmlns:xlink="http://www.w3.org/1999/xlink" width="13" height="5"><path paint-order="stroke fill markers" fill-rule="evenodd" d="M.964.336H12.25V4.64H.964V.336z"/></svg></svg><svg width="13" height="6" xmlns="http://www.w3.org/2000/svg" xmlns:xlink="http://www.w3.org/1999/xlink" xmlns:svgjs="http://svgjs.com/svgjs" fill="#eeeff1" x="236" y="82"><svg xmlns="http://www.w3.org/2000/svg" xmlns:xlink="http://www.w3.org/1999/xlink" width="13" height="6"><path paint-order="stroke fill markers" fill-rule="evenodd" d="M.796.922h11.288v4.306H.796V.922z"/></svg></svg><svg width="12" height="6" xmlns="http://www.w3.org/2000/svg" xmlns:xlink="http://www.w3.org/1999/xlink" xmlns:svgjs="http://svgjs.com/svgjs" fill="#eeeff1" x="251" y="147"><svg xmlns="http://www.w3.org/2000/svg" xmlns:xlink="http://www.w3.org/1999/xlink" width="12" height="6"><path paint-order="stroke fill markers" fill-rule="evenodd" d="M.154.82H11.44v4.305H.154V.82z"/></svg></svg><svg width="12" height="5" xmlns="http://www.w3.org/2000/svg" xmlns:xlink="http://www.w3.org/1999/xlink" xmlns:svgjs="http://svgjs.com/svgjs" fill="#eeeff1" x="84" y="205"><svg xmlns="http://www.w3.org/2000/svg" xmlns:xlink="http://www.w3.org/1999/xlink" width="12" height="5"><path paint-order="stroke fill markers" fill-rule="evenodd" d="M.538.361h11.288v4.306H.538V.36z"/></svg></svg><svg width="13" height="6" xmlns="http://www.w3.org/2000/svg" xmlns:xlink="http://www.w3.org/1999/xlink" xmlns:svgjs="http://svgjs.com/svgjs" fill="#eeeff1" x="224" y="201"><svg xmlns="http://www.w3.org/2000/svg" xmlns:xlink="http://www.w3.org/1999/xlink" width="13" height="6"><path paint-order="stroke fill markers" fill-rule="evenodd" d="M.779.917h11.287v4.305H.78V.917z"/></svg></svg></svg><svg width="30" height="36" xmlns="http://www.w3.org/2000/svg" xmlns:xlink="http://www.w3.org/1999/xlink" xmlns:svgjs="http://svgjs.com/svgjs" viewBox="227 110 30 36" x="227" y="110"><svg width="30" height="30" xmlns="http://www.w3.org/2000/svg" xmlns:xlink="http://www.w3.org/1999/xlink" xmlns:svgjs="http://svgjs.com/svgjs" viewBox="227 116 30 30" x="227" y="116"><svg width="27" height="28" xmlns="http://www.w3.org/2000/svg" xmlns:xlink="http://www.w3.org/1999/xlink" xmlns:svgjs="http://svgjs.com/svgjs" fill="#efefef" x="228" y="117"><svg xmlns="http://www.w3.org/2000/svg" xmlns:xlink="http://www.w3.org/1999/xlink" width="27" height="28"><path paint-order="stroke fill markers" fill-rule="evenodd" d="M13.57 27.002A13.185 13.185 0 0 1 .373 13.805 13.185 13.185 0 0 1 13.57.608a13.185 13.185 0 0 1 13.196 13.197A13.185 13.185 0 0 1 13.57 27.002z"/></svg></svg><svg width="30" height="30" xmlns="http://www.w3.org/2000/svg" xmlns:xlink="http://www.w3.org/1999/xlink" xmlns:svgjs="http://svgjs.com/svgjs" fill="#fae9e3" x="227" y="116"><svg xmlns="http://www.w3.org/2000/svg" xmlns:xlink="http://www.w3.org/1999/xlink" width="30" height="30"><path paint-order="stroke fill markers" fill-rule="evenodd" d="M14.57 29.293C6.576 29.293.061 22.798.061 14.786.062 6.775 6.558.28 14.57.28c7.993 0 14.507 6.496 14.507 14.507 0 8.012-6.514 14.507-14.507 14.507zm0-26.374c-6.552 0-11.887 5.334-11.887 11.886 0 6.551 5.335 11.886 11.886 11.886 6.552 0 11.887-5.335 11.887-11.886 0-6.552-5.335-11.886-11.887-11.886z"/></svg></svg></svg><svg width="9" height="9" xmlns="http://www.w3.org/2000/svg" xmlns:xlink="http://www.w3.org/1999/xlink" xmlns:svgjs="http://svgjs.com/svgjs" fill="#fae9e3" x="237" y="110"><svg xmlns="http://www.w3.org/2000/svg" xmlns:xlink="http://www.w3.org/1999/xlink" width="9" height="9"><path paint-order="stroke fill markers" fill-rule="evenodd" d="M1.013 8.713c-.019 0-.056 0-.075-.02-.094-.037-.131-.149-.094-.242L4.382.25C4.42.178 4.476.14 4.551.14c.075 0 .15.038.168.113L8.575 8.45c.038.093 0 .205-.093.243-.094.037-.206 0-.244-.094L4.551.776 1.163 8.6c0 .075-.075.113-.15.113z"/></svg></svg><svg width="3" height="2" xmlns="http://www.w3.org/2000/svg" xmlns:xlink="http://www.w3.org/1999/xlink" xmlns:svgjs="http://svgjs.com/svgjs" fill="#fae9e3" x="240" y="110"><svg xmlns="http://www.w3.org/2000/svg" xmlns:xlink="http://www.w3.org/1999/xlink" width="3" height="2"><path paint-order="stroke fill markers" fill-rule="evenodd" d="M1.57 1.468A.73.73 0 1 1 1.568.01a.73.73 0 0 1 .002 1.458z"/></svg></svg><svg width="19" height="14" xmlns="http://www.w3.org/2000/svg" xmlns:xlink="http://www.w3.org/1999/xlink" xmlns:svgjs="http://svgjs.com/svgjs" fill="#ece0df" x="230" y="126"><svg xmlns="http://www.w3.org/2000/svg" xmlns:xlink="http://www.w3.org/1999/xlink" width="19" height="14"><path paint-order="stroke fill markers" fill-rule="evenodd" d="M.432 5.554C2.472 2.315 4.643.312 5.954.78c.58.206.898.88 1.198 1.498 1.086 2.284.224 4.174.973 4.53.656.337 1.423-1.198 2.602-1.03 1.404.206 1.348 2.527 3.033 3.126 1.478.543 2.583-.88 3.612-.355.655.337 1.236 1.44.843 4.923L.432 5.554z"/></svg></svg><svg width="5" height="8" xmlns="http://www.w3.org/2000/svg" xmlns:xlink="http://www.w3.org/1999/xlink" xmlns:svgjs="http://svgjs.com/svgjs" fill="#fae9e3" x="245" y="123"><svg xmlns="http://www.w3.org/2000/svg" xmlns:xlink="http://www.w3.org/1999/xlink" width="5" height="8"><path paint-order="stroke fill markers" fill-rule="evenodd" d="M.276.168a7.013 7.013 0 0 1 1.816 2.527c.86 2.04.486 3.874.336 4.548.43-.374 1.629-1.553 1.816-3.369.056-.487.131-1.367-.356-2.171C3.234.617 1.83.055.276.168z"/></svg></svg></svg><svg width="69" height="121" xmlns="http://www.w3.org/2000/svg" xmlns:xlink="http://www.w3.org/1999/xlink" xmlns:svgjs="http://svgjs.com/svgjs" viewBox="62 148 69 121" x="62" y="148"><svg width="11" height="11" xmlns="http://www.w3.org/2000/svg" xmlns:xlink="http://www.w3.org/1999/xlink" xmlns:svgjs="http://svgjs.com/svgjs" fill="#fae9e3" x="115" y="153"><svg xmlns="http://www.w3.org/2000/svg" xmlns:xlink="http://www.w3.org/1999/xlink" width="11" height="11"><path paint-order="stroke fill markers" fill-rule="evenodd" d="M5.497 10.394a4.975 4.975 0 0 1-4.98-4.98A4.975 4.975 0 0 1 5.498.437a4.975 4.975 0 0 1 4.98 4.979 4.975 4.975 0 0 1-4.98 4.98z"/></svg></svg><svg width="69" height="121" xmlns="http://www.w3.org/2000/svg" xmlns:xlink="http://www.w3.org/1999/xlink" xmlns:svgjs="http://svgjs.com/svgjs" fill="#dfded9" x="62" y="148"><svg xmlns="http://www.w3.org/2000/svg" xmlns:xlink="http://www.w3.org/1999/xlink" width="69" height="121"><path paint-order="stroke fill markers" fill-rule="evenodd" d="M51.627 5.305c-.449-.094-.86-.187-1.217-.262a1.771 1.771 0 0 0-1.76-1.704c-.972 0-1.759.786-1.759 1.76 0 .393.131.767.356 1.048-8.966 12.972-28.49 41.106-33.207 47.564-.075-.018-.169-.018-.262-.018a1.758 1.758 0 1 0-.973 3.22c-1.685 4.099-3.052 8.16-2.078 11.361.43 1.386 1.067 1.928 1.815 2.565.244.206.487.412.75.674l.056 17.464c-.73 2.845-1.423 5.99-1.648 9.49-.318 4.662.225 9.472 1.591 14.32-7.113.075-12.803 1.741-12.803 3.763 0 2.078 5.99 3.762 13.365 3.762s13.365-1.684 13.365-3.762c0-2.022-5.672-3.669-12.804-3.763.057-2.9.094-9.77.057-26.224.018-.075.037-.15.056-.244 1.535-5.578 2.733-9.977.15-13.833a15.404 15.404 0 0 1-.263-.374c-.037-6.72-.056-12.336-.074-15.013a1.78 1.78 0 0 0 1.198-1.666c0-.486-.188-.917-.506-1.235 5.129-7 23.698-33.787 33.132-47.433.15.037.318.075.487.075.599 0 1.123-.3 1.441-.749.244.056.506.112.805.187.038 0 .056.019.094.019-2.64 4.698-1.61 11.194 2.733 16.566 5.054-7.076 10.108-14.133 15.18-21.208C61.96-.891 55.035.569 51.628 5.305zM12.861 70.502c-.73-.618-1.292-1.104-1.685-2.359-.936-3.05.393-7.02 2.04-11.025h.02c.018 3.744.036 8.536.074 13.777l-.45-.393zm.487 40.713c-1.068-4.305-1.46-8.573-1.18-12.71.187-2.77.655-5.316 1.217-7.675.019 8.499 0 16.136-.037 20.385zm1.123-26.318v-.094c-.02-4.062-.02-8.143-.038-11.905 2.134 3.37 1.33 7.225.038 11.999z"/></svg></svg></svg></svg></svg><svg width="169" height="116" xmlns="http://www.w3.org/2000/svg" xmlns:xlink="http://www.w3.org/1999/xlink" xmlns:svgjs="http://svgjs.com/svgjs" viewBox="91 153 169 116" x="91" y="153"><svg width="169" height="116" xmlns="http://www.w3.org/2000/svg" xmlns:xlink="http://www.w3.org/1999/xlink" xmlns:svgjs="http://svgjs.com/svgjs" viewBox="91 153 169 116" x="91" y="153"><svg width="146" height="81" xmlns="http://www.w3.org/2000/svg" xmlns:xlink="http://www.w3.org/1999/xlink" xmlns:svgjs="http://svgjs.com/svgjs" viewBox="91 174 146 81" x="91" y="174"><svg width="146" height="19" xmlns="http://www.w3.org/2000/svg" xmlns:xlink="http://www.w3.org/1999/xlink" xmlns:svgjs="http://svgjs.com/svgjs" fill="#f5cb5c" x="91" y="236"><svg xmlns="http://www.w3.org/2000/svg" xmlns:xlink="http://www.w3.org/1999/xlink" width="146" height="19"><path paint-order="stroke fill markers" fill-rule="evenodd" d="M145.31 1.857h-5.766l5.766 16.604h-1.704l-8.63-16.604h-4.042l2.096 6.027h-1.703l-3.145-6.027H17.142l-2.77 5.316H12.67l1.853-5.316h-4.156L2.093 17.749H.389L5.911 1.857H.39V.079h144.92v1.778z"/></svg></svg><svg width="3" height="3" xmlns="http://www.w3.org/2000/svg" xmlns:xlink="http://www.w3.org/1999/xlink" xmlns:svgjs="http://svgjs.com/svgjs" fill="#fc860a" x="93" y="246"><svg xmlns="http://www.w3.org/2000/svg" xmlns:xlink="http://www.w3.org/1999/xlink" width="3" height="3"><path paint-order="stroke fill markers" fill-rule="evenodd" d="M2.77 2.602l-.094.168c-.543-.243-1.086-.711-1.61-1.385-.112-.15-.224-.28-.318-.43L.823.73c.505.73 1.18 1.535 1.947 1.872z"/></svg></svg><svg width="2" height="4" xmlns="http://www.w3.org/2000/svg" xmlns:xlink="http://www.w3.org/1999/xlink" xmlns:svgjs="http://svgjs.com/svgjs" fill="#fc860a" x="93" y="248"><svg xmlns="http://www.w3.org/2000/svg" xmlns:xlink="http://www.w3.org/1999/xlink" width="2" height="4"><path paint-order="stroke fill markers" fill-rule="evenodd" d="M1.328 3.39l-.15.3A8.863 8.863 0 0 0 .673 1.5 9.51 9.51 0 0 0 .224.508L.299.265c.206.374.393.748.543 1.16.243.637.393 1.292.486 1.966z"/></svg></svg><svg width="4" height="3" xmlns="http://www.w3.org/2000/svg" xmlns:xlink="http://www.w3.org/1999/xlink" xmlns:svgjs="http://svgjs.com/svgjs" fill="#fc860a" x="96" y="239"><svg xmlns="http://www.w3.org/2000/svg" xmlns:xlink="http://www.w3.org/1999/xlink" width="4" height="3"><path paint-order="stroke fill markers" fill-rule="evenodd" d="M3.663 2.095l-.13.244a4.224 4.224 0 0 0-.413-1.123C2.82.69 2.427.336 1.978.224 1.38.074.762.354.275.69l.093-.28C.855.11 1.454-.095 2.035.055c.505.131.935.505 1.254 1.086.15.28.28.617.374.954z"/></svg></svg><svg width="4" height="2" xmlns="http://www.w3.org/2000/svg" xmlns:xlink="http://www.w3.org/1999/xlink" xmlns:svgjs="http://svgjs.com/svgjs" fill="#fc860a" x="92" y="236"><svg xmlns="http://www.w3.org/2000/svg" xmlns:xlink="http://www.w3.org/1999/xlink" width="4" height="2"><path paint-order="stroke fill markers" fill-rule="evenodd" d="M2.777.06h.338a9.14 9.14 0 0 0-2.079 1.778H.793A10.28 10.28 0 0 1 2.777.06z"/></svg></svg><svg width="2" height="2" xmlns="http://www.w3.org/2000/svg" xmlns:xlink="http://www.w3.org/1999/xlink" xmlns:svgjs="http://svgjs.com/svgjs" fill="#fc860a" x="101" y="236"><svg xmlns="http://www.w3.org/2000/svg" xmlns:xlink="http://www.w3.org/1999/xlink" width="2" height="2"><path paint-order="stroke fill markers" fill-rule="evenodd" d="M1.995 1.838H1.77C1.415 1.183.853.547.236.06h.299c.6.505 1.123 1.123 1.46 1.778z"/></svg></svg><svg width="12" height="2" xmlns="http://www.w3.org/2000/svg" xmlns:xlink="http://www.w3.org/1999/xlink" xmlns:svgjs="http://svgjs.com/svgjs" fill="#fc860a" x="104" y="236"><svg xmlns="http://www.w3.org/2000/svg" xmlns:xlink="http://www.w3.org/1999/xlink" width="12" height="2"><path paint-order="stroke fill markers" fill-rule="evenodd" d="M11.443.06a13.547 13.547 0 0 1-5.616 1.236c-.337 0-.692-.02-1.048-.038A13.314 13.314 0 0 1 .23.06h.468c1.31.562 2.677.898 4.1 1.01A13.174 13.174 0 0 0 10.956.06h.487z"/></svg></svg><svg width="4" height="2" xmlns="http://www.w3.org/2000/svg" xmlns:xlink="http://www.w3.org/1999/xlink" xmlns:svgjs="http://svgjs.com/svgjs" fill="#fc860a" x="104" y="239"><svg xmlns="http://www.w3.org/2000/svg" xmlns:xlink="http://www.w3.org/1999/xlink" width="4" height="2"><path paint-order="stroke fill markers" fill-rule="evenodd" d="M3.226.598L3 1.01c-.3.206-.637.412-1.03.58a4.826 4.826 0 0 1-1.535.356l.056-.188c.487-.037.955-.15 1.405-.336A4.494 4.494 0 0 0 3.226.598z"/></svg></svg><svg width="3" height="2" xmlns="http://www.w3.org/2000/svg" xmlns:xlink="http://www.w3.org/1999/xlink" xmlns:svgjs="http://svgjs.com/svgjs" fill="#fc860a" x="104" y="241"><svg xmlns="http://www.w3.org/2000/svg" xmlns:xlink="http://www.w3.org/1999/xlink" width="3" height="2"><path paint-order="stroke fill markers" fill-rule="evenodd" d="M2.495.002l-.187.355a6.612 6.612 0 0 1-.73.375 4.826 4.826 0 0 1-1.535.355L.118.9C.605.863 1.073.75 1.522.563c.375-.168.693-.355.973-.561z"/></svg></svg><svg width="12" height="2" xmlns="http://www.w3.org/2000/svg" xmlns:xlink="http://www.w3.org/1999/xlink" xmlns:svgjs="http://svgjs.com/svgjs" fill="#fc860a" x="113" y="236"><svg xmlns="http://www.w3.org/2000/svg" xmlns:xlink="http://www.w3.org/1999/xlink" width="12" height="2"><path paint-order="stroke fill markers" fill-rule="evenodd" d="M11.653.06C9.837.247 8.003.51 6.205.81c-1.74.3-3.481.636-5.204 1.03H.178A94.357 94.357 0 0 1 6.168.621C7.441.416 8.732.228 10.024.06h1.629z"/></svg></svg><svg width="14" height="2" xmlns="http://www.w3.org/2000/svg" xmlns:xlink="http://www.w3.org/1999/xlink" xmlns:svgjs="http://svgjs.com/svgjs" fill="#fc860a" x="123" y="236"><svg xmlns="http://www.w3.org/2000/svg" xmlns:xlink="http://www.w3.org/1999/xlink" width="14" height="2"><path paint-order="stroke fill markers" fill-rule="evenodd" d="M13.557 1.745l-.018.093h-.337a21.289 21.289 0 0 0-7.675-.748 21.542 21.542 0 0 0-4.062.748H.81A21.161 21.161 0 0 1 5.49.902a21.371 21.371 0 0 1 8.067.843z"/></svg></svg><svg width="21" height="2" xmlns="http://www.w3.org/2000/svg" xmlns:xlink="http://www.w3.org/1999/xlink" xmlns:svgjs="http://svgjs.com/svgjs" fill="#fc860a" x="135" y="236"><svg xmlns="http://www.w3.org/2000/svg" xmlns:xlink="http://www.w3.org/1999/xlink" width="21" height="2"><path paint-order="stroke fill markers" fill-rule="evenodd" d="M20.051.06c-2.246.955-4.417 1.348-6.457 1.16-.655-.056-1.067-.15-1.48-.243-.486-.112-.954-.224-1.834-.262-1.478-.056-2.377.131-3.275.337-.674.15-1.31.28-2.116.28h-.355C3.224 1.278 1.894.847.584.08h.374c1.198.655 2.397 1.01 3.576 1.067.973.056 1.684-.113 2.433-.281C7.828.678 8.783.472 10.28.528c.918.037 1.386.15 1.872.262.394.094.787.187 1.442.243 1.89.169 3.893-.15 5.952-.973h.505z"/></svg></svg><svg width="9" height="2" xmlns="http://www.w3.org/2000/svg" xmlns:xlink="http://www.w3.org/1999/xlink" xmlns:svgjs="http://svgjs.com/svgjs" fill="#fc860a" x="141" y="236"><svg xmlns="http://www.w3.org/2000/svg" xmlns:xlink="http://www.w3.org/1999/xlink" width="9" height="2"><path paint-order="stroke fill markers" fill-rule="evenodd" d="M8.754 1.838h-1.03c-.58-.13-1.31-.28-2.19-.524-2.115-.561-3.949.094-4.847.524H.275C.986 1.445 3.1.491 5.572 1.146c1.46.374 2.49.58 3.182.692z"/></svg></svg><svg width="4" height="2" xmlns="http://www.w3.org/2000/svg" xmlns:xlink="http://www.w3.org/1999/xlink" xmlns:svgjs="http://svgjs.com/svgjs" fill="#fc860a" x="157" y="236"><svg xmlns="http://www.w3.org/2000/svg" xmlns:xlink="http://www.w3.org/1999/xlink" width="4" height="2"><path paint-order="stroke fill markers" fill-rule="evenodd" d="M.579.06c.711.58 1.834 1.348 3.126 1.778h-.543C1.945 1.352.916.584.279.06h.3z"/></svg></svg><svg width="6" height="2" xmlns="http://www.w3.org/2000/svg" xmlns:xlink="http://www.w3.org/1999/xlink" xmlns:svgjs="http://svgjs.com/svgjs" fill="#fc860a" x="164" y="236"><svg xmlns="http://www.w3.org/2000/svg" xmlns:xlink="http://www.w3.org/1999/xlink" width="6" height="2"><path paint-order="stroke fill markers" fill-rule="evenodd" d="M4.716.06h1.049C3.967.322 2.358.828 1.16 1.576c-.15.094-.318.187-.487.262H.205c.28-.112.58-.243.861-.43C2.04.79 3.294.36 4.716.06z"/></svg></svg><svg width="8" height="2" xmlns="http://www.w3.org/2000/svg" xmlns:xlink="http://www.w3.org/1999/xlink" xmlns:svgjs="http://svgjs.com/svgjs" fill="#fc860a" x="176" y="236"><svg xmlns="http://www.w3.org/2000/svg" xmlns:xlink="http://www.w3.org/1999/xlink" width="8" height="2"><path paint-order="stroke fill markers" fill-rule="evenodd" d="M6.4 1.408c.374.187.748.337 1.123.43h-.618a5.786 5.786 0 0 1-.599-.262C4.921.865 3.012.341.916.06h1.16c1.666.3 3.182.768 4.323 1.348z"/></svg></svg><svg width="6" height="2" xmlns="http://www.w3.org/2000/svg" xmlns:xlink="http://www.w3.org/1999/xlink" xmlns:svgjs="http://svgjs.com/svgjs" fill="#fc860a" x="186" y="236"><svg xmlns="http://www.w3.org/2000/svg" xmlns:xlink="http://www.w3.org/1999/xlink" width="6" height="2"><path paint-order="stroke fill markers" fill-rule="evenodd" d="M5.44.06c-.58.374-1.515.917-2.62 1.367-.393.168-.786.299-1.16.411H.892c.674-.15 1.31-.355 1.872-.58A14.063 14.063 0 0 0 5.104.06h.337z"/></svg></svg><svg width="13" height="2" xmlns="http://www.w3.org/2000/svg" xmlns:xlink="http://www.w3.org/1999/xlink" xmlns:svgjs="http://svgjs.com/svgjs" fill="#fc860a" x="167" y="236"><svg xmlns="http://www.w3.org/2000/svg" xmlns:xlink="http://www.w3.org/1999/xlink" width="13" height="2"><path paint-order="stroke fill markers" fill-rule="evenodd" d="M12.891 1.838h-.973c-.917-.187-1.872-.43-2.658-.73-1.404-.542-5.335.187-7.806.73h-.86C2.894 1.295 7.686.285 9.315.921c1.067.412 2.452.711 3.575.917z"/></svg></svg><svg width="4" height="2" xmlns="http://www.w3.org/2000/svg" xmlns:xlink="http://www.w3.org/1999/xlink" xmlns:svgjs="http://svgjs.com/svgjs" fill="#fc860a" x="195" y="236"><svg xmlns="http://www.w3.org/2000/svg" xmlns:xlink="http://www.w3.org/1999/xlink" width="4" height="2"><path paint-order="stroke fill markers" fill-rule="evenodd" d="M3.835 1.838h-.393L.166.06h.393l3.276 1.778z"/></svg></svg><svg width="13" height="2" xmlns="http://www.w3.org/2000/svg" xmlns:xlink="http://www.w3.org/1999/xlink" xmlns:svgjs="http://svgjs.com/svgjs" fill="#fc860a" x="201" y="236"><svg xmlns="http://www.w3.org/2000/svg" xmlns:xlink="http://www.w3.org/1999/xlink" width="13" height="2"><path paint-order="stroke fill markers" fill-rule="evenodd" d="M12.922.06c-.861.318-1.835.636-2.846.842-.523.113-1.141.15-1.815.15C5.94 1.052 2.926.51.83.042h.898c2.658.542 6.27 1.104 8.292.654.824-.168 1.61-.411 2.34-.655h.562V.06z"/></svg></svg><svg width="13" height="2" xmlns="http://www.w3.org/2000/svg" xmlns:xlink="http://www.w3.org/1999/xlink" xmlns:svgjs="http://svgjs.com/svgjs" fill="#fc860a" x="211" y="236"><svg xmlns="http://www.w3.org/2000/svg" xmlns:xlink="http://www.w3.org/1999/xlink" width="13" height="2"><path paint-order="stroke fill markers" fill-rule="evenodd" d="M12.918 1.838h-.319c-2.901-2.021-8.48-.786-11.193 0H.75c.954-.3 2.527-.73 4.249-1.01 2.527-.412 5.915-.562 7.918 1.01z"/></svg></svg><svg width="4" height="2" xmlns="http://www.w3.org/2000/svg" xmlns:xlink="http://www.w3.org/1999/xlink" xmlns:svgjs="http://svgjs.com/svgjs" fill="#fc860a" x="219" y="238"><svg xmlns="http://www.w3.org/2000/svg" xmlns:xlink="http://www.w3.org/1999/xlink" width="4" height="2"><path paint-order="stroke fill markers" fill-rule="evenodd" d="M3.364 1.055C2.372.887 1.23.681.575.587L.463.381C1.062.456 2.185.662 3.27.85l.094.206z"/></svg></svg><svg width="4" height="3" xmlns="http://www.w3.org/2000/svg" xmlns:xlink="http://www.w3.org/1999/xlink" xmlns:svgjs="http://svgjs.com/svgjs" fill="#fc860a" x="220" y="239"><svg xmlns="http://www.w3.org/2000/svg" xmlns:xlink="http://www.w3.org/1999/xlink" width="4" height="3"><path paint-order="stroke fill markers" fill-rule="evenodd" d="M3.3 2.788L.305.991.137.673l3.07 1.853.093.262z"/></svg></svg><svg width="11" height="4" xmlns="http://www.w3.org/2000/svg" xmlns:xlink="http://www.w3.org/1999/xlink" xmlns:svgjs="http://svgjs.com/svgjs" fill="#fc860a" x="226" y="236"><svg xmlns="http://www.w3.org/2000/svg" xmlns:xlink="http://www.w3.org/1999/xlink" width="11" height="4"><path paint-order="stroke fill markers" fill-rule="evenodd" d="M10.31.06v.056c-3.594-.3-7.544 1.76-9.64 3.051L.575 3C2.223 1.988 4.956.528 7.782.04h2.528V.06z"/></svg></svg><svg width="6" height="1" xmlns="http://www.w3.org/2000/svg" xmlns:xlink="http://www.w3.org/1999/xlink" xmlns:svgjs="http://svgjs.com/svgjs" fill="#fc860a" x="226" y="239"><svg xmlns="http://www.w3.org/2000/svg" xmlns:xlink="http://www.w3.org/1999/xlink" width="6" height="1"><path paint-order="stroke fill markers" fill-rule="evenodd" d="M5.218.804C4.001.018 2.036.579 1.062.954L.97.785a10.5 10.5 0 0 1 1.497-.45C3.552.112 4.45.187 5.124.524l.094.28z"/></svg></svg><svg width="4" height="4" xmlns="http://www.w3.org/2000/svg" xmlns:xlink="http://www.w3.org/1999/xlink" xmlns:svgjs="http://svgjs.com/svgjs" fill="#fc860a" x="229" y="242"><svg xmlns="http://www.w3.org/2000/svg" xmlns:xlink="http://www.w3.org/1999/xlink" width="4" height="4"><path paint-order="stroke fill markers" fill-rule="evenodd" d="M3.472 1.398c-.823-.43-1.46-.506-1.91-.225-.635.393-.73 1.442-.73 2.097l-.186-.337c.037-.674.205-1.535.804-1.928.469-.281 1.105-.244 1.91.13l.112.263z"/></svg></svg><svg width="4" height="2" xmlns="http://www.w3.org/2000/svg" xmlns:xlink="http://www.w3.org/1999/xlink" xmlns:svgjs="http://svgjs.com/svgjs" fill="#fc860a" x="232" y="249"><svg xmlns="http://www.w3.org/2000/svg" xmlns:xlink="http://www.w3.org/1999/xlink" width="4" height="2"><path paint-order="stroke fill markers" fill-rule="evenodd" d="M3.074 1.885l-2.695-.73-.057-.093v-.02L.341.969l2.658.711.075.206z"/></svg></svg><svg width="146" height="19" xmlns="http://www.w3.org/2000/svg" xmlns:xlink="http://www.w3.org/1999/xlink" xmlns:svgjs="http://svgjs.com/svgjs" fill="none" x="91" y="236"><svg xmlns="http://www.w3.org/2000/svg" xmlns:xlink="http://www.w3.org/1999/xlink" width="146" height="19"><path paint-order="stroke fill markers" d="M145.31.06v1.778h-5.766l.58 1.704.094.262 1.16 3.35.094.244L144 14.679l.075.206v.019l1.236 3.538h-1.704l-2.227-4.287-.057-.093v-.02l-2.47-4.754V9.27h-.02l-.168-.337-2.602-4.98-.074-.168-.319-.618-.093-.15-.6-1.179h-4.042l.355 1.011.075.206.843 2.47.093.263.73 2.078h-1.703l-2.022-3.875-.168-.318-.562-1.086-.112-.206-.281-.543H17.142l-.916 1.76-.207.412-.524.992-.168.355-.936 1.797h-1.722l.374-1.085.075-.187.337-.936.056-.206 1.01-2.902h-4.155L8.663 5.095l-.13.244-3.763 7.263-.075.168-1.367 2.62-.168.281-1.067 2.078H.389l1.816-5.241.094-.243.449-1.31.075-.225L5.275 3.69l.093-.28.543-1.573H.39V.06h144.92z"/></svg></svg><svg width="145" height="45" xmlns="http://www.w3.org/2000/svg" xmlns:xlink="http://www.w3.org/1999/xlink" xmlns:svgjs="http://svgjs.com/svgjs" fill="#e6e3f4" x="91" y="174"><svg xmlns="http://www.w3.org/2000/svg" xmlns:xlink="http://www.w3.org/1999/xlink" width="145" height="45"><path paint-order="stroke fill markers" fill-rule="evenodd" d="M144.804 43.267L.82 44.614C9.749 22.19 18.715 10.864 26.67 5.361c4.1-2.826 7.918-4.118 11.344-4.586C53.775-1.359 59.99 14.14 81.778 12.006c14.825-1.46 22.257-9.64 37.419-5.952 2.62.636 8.48 2.115 14.002 6.795a27.644 27.644 0 0 1 2.976 2.938c9.266 10.464 8.779 24.821 8.629 27.48z"/></svg></svg><svg width="131" height="13" xmlns="http://www.w3.org/2000/svg" xmlns:xlink="http://www.w3.org/1999/xlink" xmlns:svgjs="http://svgjs.com/svgjs" fill="#bdd3de" x="98" y="214"><svg xmlns="http://www.w3.org/2000/svg" xmlns:xlink="http://www.w3.org/1999/xlink" width="131" height="13"><path paint-order="stroke fill markers" fill-rule="evenodd" d="M130.41 2.817v6.87a2.548 2.548 0 0 1-2.545 2.546H3.198a2.544 2.544 0 0 1-1.516-.506A2.578 2.578 0 0 1 .67 9.967c-.019-.093-.019-.186-.019-.28v-6.87A2.548 2.548 0 0 1 3.198.271h124.667a2.548 2.548 0 0 1 2.545 2.546z"/></svg></svg><svg width="146" height="41" xmlns="http://www.w3.org/2000/svg" xmlns:xlink="http://www.w3.org/1999/xlink" xmlns:svgjs="http://svgjs.com/svgjs" fill="#e6e3f4" x="91" y="196"><svg xmlns="http://www.w3.org/2000/svg" xmlns:xlink="http://www.w3.org/1999/xlink" width="146" height="41"><path paint-order="stroke fill markers" fill-rule="evenodd" d="M145.31 3.165v34.35a2.549 2.549 0 0 1-2.546 2.545H133.479 2.935a2.549 2.549 0 0 1-2.546-2.546V3.165A2.548 2.548 0 0 1 2.935.62h9.135c.955 0 1.797.524 2.227 1.31.206.356.319.786.319 1.235V28.1h116.486V3.165A2.548 2.548 0 0 1 133.648.62h9.134c1.386 0 2.528 1.142 2.528 2.545z"/></svg></svg><svg width="99" height="17" xmlns="http://www.w3.org/2000/svg" xmlns:xlink="http://www.w3.org/1999/xlink" xmlns:svgjs="http://svgjs.com/svgjs" fill="#19233d" opacity=".071" x="138" y="220"><svg xmlns="http://www.w3.org/2000/svg" xmlns:xlink="http://www.w3.org/1999/xlink" width="99" height="17"><path paint-order="stroke fill markers" fill-rule="evenodd" d="M98.31.13v13.403a2.548 2.548 0 0 1-2.546 2.546H86.479.3c14.47-3.07 34.292-5.86 57.391-5.354C79.61 11.212 91.683 6.008 98.31.13z"/></svg></svg><svg width="15" height="11" xmlns="http://www.w3.org/2000/svg" xmlns:xlink="http://www.w3.org/1999/xlink" xmlns:svgjs="http://svgjs.com/svgjs" fill="#19233d" opacity=".071" x="222" y="196"><svg xmlns="http://www.w3.org/2000/svg" xmlns:xlink="http://www.w3.org/1999/xlink" width="15" height="11"><path paint-order="stroke fill markers" fill-rule="evenodd" d="M14.31 3.166v6.832C8.076 11.364 2.573 6.928.083 4.476v-1.33A2.548 2.548 0 0 1 2.63.602h9.135a2.577 2.577 0 0 1 2.546 2.565z"/></svg></svg><svg width="6" height="28" xmlns="http://www.w3.org/2000/svg" xmlns:xlink="http://www.w3.org/1999/xlink" xmlns:svgjs="http://svgjs.com/svgjs" fill="#19233d" opacity=".039" x="100" y="197"><svg xmlns="http://www.w3.org/2000/svg" xmlns:xlink="http://www.w3.org/1999/xlink" width="6" height="28"><path paint-order="stroke fill markers" fill-rule="evenodd" d="M5.616 2.166v24.933C-4.38 23.243 2.957 5.872 5.297.93c.188.375.319.786.319 1.236z"/></svg></svg><svg width="98" height="8" xmlns="http://www.w3.org/2000/svg" xmlns:xlink="http://www.w3.org/1999/xlink" xmlns:svgjs="http://svgjs.com/svgjs" fill="#19233d" opacity=".051" x="121" y="214"><svg xmlns="http://www.w3.org/2000/svg" xmlns:xlink="http://www.w3.org/1999/xlink" width="98" height="8"><path paint-order="stroke fill markers" fill-rule="evenodd" d="M97.639.271c-.898 1.31-2.377 3.145-4.68 4.624-6.664 4.287-13.758 1.441-24.11-.28C58.855 2.966 39.48-.235 24.525 5.85c-1.872.767-5.223 2.302-9.697 1.965C8.463 7.347 3.56 3.398.49.253h97.15V.27z"/></svg></svg><svg width="141" height="43" xmlns="http://www.w3.org/2000/svg" xmlns:xlink="http://www.w3.org/1999/xlink" xmlns:svgjs="http://svgjs.com/svgjs" viewBox="94 190 141 43" x="94" y="190"><svg width="2" height="2" xmlns="http://www.w3.org/2000/svg" xmlns:xlink="http://www.w3.org/1999/xlink" xmlns:svgjs="http://svgjs.com/svgjs" fill="#f2be54" x="112" y="190"><svg xmlns="http://www.w3.org/2000/svg" xmlns:xlink="http://www.w3.org/1999/xlink" width="2" height="2"><path paint-order="stroke fill markers" fill-rule="evenodd" d="M.748 1.884A.58.58 0 1 1 .746.724a.58.58 0 0 1 .002 1.16z"/></svg></svg><svg width="2" height="2" xmlns="http://www.w3.org/2000/svg" xmlns:xlink="http://www.w3.org/1999/xlink" xmlns:svgjs="http://svgjs.com/svgjs" fill="#f2be54" x="127" y="201"><svg xmlns="http://www.w3.org/2000/svg" xmlns:xlink="http://www.w3.org/1999/xlink" width="2" height="2"><path paint-order="stroke fill markers" fill-rule="evenodd" d="M1.322 1.497A.58.58 0 1 1 1.32.338a.58.58 0 0 1 .002 1.16z"/></svg></svg><svg width="2" height="2" xmlns="http://www.w3.org/2000/svg" xmlns:xlink="http://www.w3.org/1999/xlink" xmlns:svgjs="http://svgjs.com/svgjs" fill="#f2be54" x="111" y="208"><svg xmlns="http://www.w3.org/2000/svg" xmlns:xlink="http://www.w3.org/1999/xlink" width="2" height="2"><path paint-order="stroke fill markers" fill-rule="evenodd" d="M1.167 1.46a.58.58 0 1 1 0-1.16.58.58 0 0 1 0 1.16z"/></svg></svg><svg width="2" height="2" xmlns="http://www.w3.org/2000/svg" xmlns:xlink="http://www.w3.org/1999/xlink" xmlns:svgjs="http://svgjs.com/svgjs" fill="#f2be54" x="94" y="202"><svg xmlns="http://www.w3.org/2000/svg" xmlns:xlink="http://www.w3.org/1999/xlink" width="2" height="2"><path paint-order="stroke fill markers" fill-rule="evenodd" d="M1.152 1.209A.58.58 0 1 1 1.15.049a.58.58 0 0 1 0 1.16z"/></svg></svg><svg width="2" height="2" xmlns="http://www.w3.org/2000/svg" xmlns:xlink="http://www.w3.org/1999/xlink" xmlns:svgjs="http://svgjs.com/svgjs" fill="#f2be54" x="101" y="218"><svg xmlns="http://www.w3.org/2000/svg" xmlns:xlink="http://www.w3.org/1999/xlink" width="2" height="2"><path paint-order="stroke fill markers" fill-rule="evenodd" d="M1.265 1.195a.58.58 0 1 1-.001-1.16.58.58 0 0 1 .001 1.16z"/></svg></svg><svg width="2" height="2" xmlns="http://www.w3.org/2000/svg" xmlns:xlink="http://www.w3.org/1999/xlink" xmlns:svgjs="http://svgjs.com/svgjs" fill="#f2be54" x="94" y="229"><svg xmlns="http://www.w3.org/2000/svg" xmlns:xlink="http://www.w3.org/1999/xlink" width="2" height="2"><path paint-order="stroke fill markers" fill-rule="evenodd" d="M1.152 1.707A.58.58 0 1 1 1.15.547a.58.58 0 0 1 0 1.16z"/></svg></svg><svg width="2" height="2" xmlns="http://www.w3.org/2000/svg" xmlns:xlink="http://www.w3.org/1999/xlink" xmlns:svgjs="http://svgjs.com/svgjs" fill="#f2be54" x="117" y="231"><svg xmlns="http://www.w3.org/2000/svg" xmlns:xlink="http://www.w3.org/1999/xlink" width="2" height="2"><path paint-order="stroke fill markers" fill-rule="evenodd" d="M1.27 1.878a.58.58 0 1 1-.002-1.16.58.58 0 0 1 .002 1.16z"/></svg></svg><svg width="2" height="2" xmlns="http://www.w3.org/2000/svg" xmlns:xlink="http://www.w3.org/1999/xlink" xmlns:svgjs="http://svgjs.com/svgjs" fill="#f2be54" x="129" y="226"><svg xmlns="http://www.w3.org/2000/svg" xmlns:xlink="http://www.w3.org/1999/xlink" width="2" height="2"><path paint-order="stroke fill markers" fill-rule="evenodd" d="M1.081 1.936A.58.58 0 1 1 1.08.776a.58.58 0 0 1 .001 1.16z"/></svg></svg><svg width="2" height="2" xmlns="http://www.w3.org/2000/svg" xmlns:xlink="http://www.w3.org/1999/xlink" xmlns:svgjs="http://svgjs.com/svgjs" fill="#f2be54" x="151" y="231"><svg xmlns="http://www.w3.org/2000/svg" xmlns:xlink="http://www.w3.org/1999/xlink" width="2" height="2"><path paint-order="stroke fill markers" fill-rule="evenodd" d="M.85 1.298a.58.58 0 1 1 0-1.16.58.58 0 0 1 0 1.16z"/></svg></svg><svg width="3" height="2" xmlns="http://www.w3.org/2000/svg" xmlns:xlink="http://www.w3.org/1999/xlink" xmlns:svgjs="http://svgjs.com/svgjs" fill="#f2be54" x="202" y="231"><svg xmlns="http://www.w3.org/2000/svg" xmlns:xlink="http://www.w3.org/1999/xlink" width="3" height="2"><path paint-order="stroke fill markers" fill-rule="evenodd" d="M1.458 1.878a.58.58 0 1 1 0-1.16.58.58 0 0 1 0 1.16z"/></svg></svg><svg width="2" height="2" xmlns="http://www.w3.org/2000/svg" xmlns:xlink="http://www.w3.org/1999/xlink" xmlns:svgjs="http://svgjs.com/svgjs" fill="#f2be54" x="220" y="227"><svg xmlns="http://www.w3.org/2000/svg" xmlns:xlink="http://www.w3.org/1999/xlink" width="2" height="2"><path paint-order="stroke fill markers" fill-rule="evenodd" d="M.698 1.853a.58.58 0 1 1 0-1.159.58.58 0 0 1 0 1.16z"/></svg></svg><svg width="2" height="3" xmlns="http://www.w3.org/2000/svg" xmlns:xlink="http://www.w3.org/1999/xlink" xmlns:svgjs="http://svgjs.com/svgjs" fill="#f2be54" x="229" y="210"><svg xmlns="http://www.w3.org/2000/svg" xmlns:xlink="http://www.w3.org/1999/xlink" width="2" height="3"><path paint-order="stroke fill markers" fill-rule="evenodd" d="M1.376 2.007a.58.58 0 1 1-.001-1.16.58.58 0 0 1 0 1.16z"/></svg></svg><svg width="2" height="3" xmlns="http://www.w3.org/2000/svg" xmlns:xlink="http://www.w3.org/1999/xlink" xmlns:svgjs="http://svgjs.com/svgjs" fill="#f2be54" x="233" y="198"><svg xmlns="http://www.w3.org/2000/svg" xmlns:xlink="http://www.w3.org/1999/xlink" width="2" height="3"><path paint-order="stroke fill markers" fill-rule="evenodd" d="M.876 2.139A.58.58 0 1 1 .875.979a.58.58 0 0 1 .001 1.16z"/></svg></svg><svg width="2" height="2" xmlns="http://www.w3.org/2000/svg" xmlns:xlink="http://www.w3.org/1999/xlink" xmlns:svgjs="http://svgjs.com/svgjs" fill="#f2be54" x="166" y="226"><svg xmlns="http://www.w3.org/2000/svg" xmlns:xlink="http://www.w3.org/1999/xlink" width="2" height="2"><path paint-order="stroke fill markers" fill-rule="evenodd" d="M.9 1.936a.58.58 0 1 1 0-1.16.58.58 0 0 1 0 1.16z"/></svg></svg><svg width="2" height="2" xmlns="http://www.w3.org/2000/svg" xmlns:xlink="http://www.w3.org/1999/xlink" xmlns:svgjs="http://svgjs.com/svgjs" fill="#f2be54" x="172" y="211"><svg xmlns="http://www.w3.org/2000/svg" xmlns:xlink="http://www.w3.org/1999/xlink" width="2" height="2"><path paint-order="stroke fill markers" fill-rule="evenodd" d="M1.321 1.793A.58.58 0 1 1 1.32.633a.58.58 0 0 1 .001 1.16z"/></svg></svg><svg width="2" height="2" xmlns="http://www.w3.org/2000/svg" xmlns:xlink="http://www.w3.org/1999/xlink" xmlns:svgjs="http://svgjs.com/svgjs" fill="#f2be54" x="194" y="201"><svg xmlns="http://www.w3.org/2000/svg" xmlns:xlink="http://www.w3.org/1999/xlink" width="2" height="2"><path paint-order="stroke fill markers" fill-rule="evenodd" d="M1.091 1.628A.58.58 0 1 1 1.09.468a.58.58 0 0 1 .001 1.16z"/></svg></svg><svg width="2" height="2" xmlns="http://www.w3.org/2000/svg" xmlns:xlink="http://www.w3.org/1999/xlink" xmlns:svgjs="http://svgjs.com/svgjs" fill="#f2be54" x="220" y="202"><svg xmlns="http://www.w3.org/2000/svg" xmlns:xlink="http://www.w3.org/1999/xlink" width="2" height="2"><path paint-order="stroke fill markers" fill-rule="evenodd" d="M.698 1.209a.58.58 0 1 1 0-1.16.58.58 0 0 1 0 1.16z"/></svg></svg><svg width="2" height="2" xmlns="http://www.w3.org/2000/svg" xmlns:xlink="http://www.w3.org/1999/xlink" xmlns:svgjs="http://svgjs.com/svgjs" fill="#f2be54" x="218" y="212"><svg xmlns="http://www.w3.org/2000/svg" xmlns:xlink="http://www.w3.org/1999/xlink" width="2" height="2"><path paint-order="stroke fill markers" fill-rule="evenodd" d="M1.238 1.373a.58.58 0 1 1 0-1.16.58.58 0 0 1 0 1.16z"/></svg></svg></svg><svg width="113" height="40" xmlns="http://www.w3.org/2000/svg" xmlns:xlink="http://www.w3.org/1999/xlink" xmlns:svgjs="http://svgjs.com/svgjs" viewBox="115 174 113 40" x="115" y="174"><svg width="113" height="40" xmlns="http://www.w3.org/2000/svg" xmlns:xlink="http://www.w3.org/1999/xlink" xmlns:svgjs="http://svgjs.com/svgjs" fill="#f5cb5c" x="115" y="174"><svg xmlns="http://www.w3.org/2000/svg" xmlns:xlink="http://www.w3.org/1999/xlink" width="113" height="40"><path paint-order="stroke fill markers" fill-rule="evenodd" d="M112.325 19.344c-.02.019-.056.019-.094.019a.195.195 0 0 1-.187-.131l-1.33-3.051c-.43.112-.86.243-1.29.355l.935 2.733a.202.202 0 0 1-.131.262c-.019 0-.038.019-.075.019-.094 0-.168-.056-.206-.15l-.936-2.752c-.599.169-1.18.319-1.778.487l1.33 3.051c.036.113 0 .225-.113.281-.02.019-.056.019-.094.019a.195.195 0 0 1-.187-.131l-1.367-3.126c-.73.206-1.46.393-2.19.599l1.011 2.957a.202.202 0 0 1-.13.262c-.02 0-.038.02-.076.02-.093 0-.168-.057-.206-.15l-1.03-2.977c-6.532 1.778-13.046 3.557-19.579 5.335l1.572 3.613c.038.112 0 .224-.112.28-.019.02-.056.02-.093.02a.195.195 0 0 1-.187-.132l-1.61-3.669-1.236.337 1.16 3.37a.202.202 0 0 1-.13.262c-.019 0-.038.018-.075.018-.094 0-.169-.056-.206-.15l-1.16-3.406c-.525.15-1.049.28-1.592.43l1.386 3.201c.037.113 0 .225-.113.28-.019.02-.056.02-.094.02a.195.195 0 0 1-.187-.131l-1.422-3.257c-.43.112-.843.224-1.273.337l1.01 2.938a.202.202 0 0 1-.13.262c-.019 0-.038.02-.075.02-.094 0-.169-.057-.206-.15l-1.01-2.977c-.6.169-1.199.318-1.798.487l1.423 3.276c.037.112 0 .224-.113.28-.018.019-.056.019-.093.019-.075 0-.168-.037-.187-.131l-1.46-3.332c-.73.206-1.46.393-2.172.6l1.086 3.163a.202.202 0 0 1-.131.262c-.019 0-.037.018-.075.018-.094 0-.169-.056-.206-.15l-1.104-3.2c-.524.15-1.049.28-1.573.43l1.554 3.557c.056.112 0 .224-.112.28-.019.02-.057.02-.094.02-.075 0-.168-.038-.187-.132l-1.572-3.612c-4.53 1.235-9.06 2.47-13.571 3.706l1.385 3.968a.203.203 0 0 1-.132.262c-.018 0-.037.019-.074.019-.094 0-.169-.056-.206-.15l-1.404-3.987c-.412.112-.805.225-1.217.337l.936 3.575c.038.113-.037.225-.15.262h-.056c-.093 0-.187-.056-.206-.15l-.936-3.556c-.524.15-1.048.281-1.572.43l1.142 3.258a.203.203 0 0 1-.131.262c-.019 0-.038.019-.075.019-.094 0-.169-.057-.206-.15l-1.142-3.295c-.449.113-.898.244-1.329.356l.917 3.538c.038.112-.037.224-.15.262h-.055c-.094 0-.188-.056-.207-.15l-.917-3.538c-.823.225-1.647.45-2.452.674l1.647 3.706c.057.113 0 .225-.112.281-.037.019-.056.019-.093.019a.195.195 0 0 1-.187-.131l-1.685-3.763c-.244.075-.487.132-.712.206l1.33 3.782a.202.202 0 0 1-.132.262c-.018 0-.037.018-.074.018-.094 0-.169-.056-.206-.15l-1.348-3.8c-.655.188-1.31.356-1.965.544l1.684 3.78c.056.113 0 .225-.112.281-.019.02-.056.02-.094.02a.195.195 0 0 1-.187-.132l-1.722-3.837c-.412.112-.824.224-1.217.337l1.254 3.556a.202.202 0 0 1-.13.262c-.02 0-.038.02-.075.02-.094 0-.169-.057-.207-.15l-1.272-3.595c-.543.15-1.067.3-1.61.43l1.516 3.389c.037.112 0 .225-.112.28-.019.02-.056.02-.094.02a.195.195 0 0 1-.187-.132l-1.535-3.463c-.374.113-.768.206-1.16.319l.991 3.968a.23.23 0 0 1-.15.262h-.055A.22.22 0 0 1 41.98 39l-.992-3.969-.843.225-.075 4.286a.208.208 0 0 1-.205.206c-.113 0-.206-.093-.206-.224l.074-4.156c-.411.112-.842.225-1.254.337l-.056 3.781a.208.208 0 0 1-.206.206c-.112 0-.206-.093-.206-.224l.057-3.65c-.525.15-1.049.28-1.573.43l-1.572 2.92a.206.206 0 0 1-.187.112c-.038 0-.075 0-.094-.018-.094-.057-.15-.188-.094-.281l1.48-2.733c-.319-.3-.637-.58-.937-.88l-1.647 3.051a.206.206 0 0 1-.187.113c-.038 0-.075 0-.094-.02-.112-.055-.15-.186-.094-.28l1.685-3.145c-1.628-1.497-3.257-3.013-4.885-4.51l-.038-.038-.056.056-2.04 2.564c-.038.057-.112.075-.169.075a.348.348 0 0 1-.13-.037.211.211 0 0 1-.038-.3l1.685-2.096.43-.543c-.43-.412-.88-.805-1.31-1.217l-2.284 2.715c-.037.037-.093.074-.15.074a.213.213 0 0 1-.15-.056c-.093-.075-.093-.206 0-.3l2.453-2.601-.955-.88-2.583 1.928c-.038.019-.075.038-.131.038a.196.196 0 0 1-.168-.094.21.21 0 0 1 .037-.3l2.508-1.871c-.393-.375-.786-.73-1.18-1.105l-2.395 2.097a.203.203 0 0 1-.131.056.17.17 0 0 1-.15-.075c-.075-.094-.075-.225.019-.3L25.3 26.29c-.318-.3-.655-.6-.973-.899L21.5 27.505c-.037.038-.075.038-.13.038a.224.224 0 0 1-.17-.094.211.211 0 0 1 .038-.3l2.77-2.058-1.46-1.348-2.452 2.209a.201.201 0 0 1-.13.056.229.229 0 0 1-.17-.075c-.074-.094-.074-.225.02-.3l2.433-2.152c-.206-.187-.393-.374-.599-.562l-2.676 1.985c-.038.037-.075.037-.131.037a.196.196 0 0 1-.169-.094.211.211 0 0 1 .037-.3l2.602-1.946c-.58-.543-1.179-1.086-1.778-1.647l-1.928 2.021c-.037.038-.094.075-.15.075a.213.213 0 0 1-.15-.056.195.195 0 0 1 0-.3l1.947-1.984c-.355-.336-.711-.655-1.067-.992l-1.91 1.685a.201.201 0 0 1-.13.056.17.17 0 0 1-.15-.075c-.075-.093-.075-.224.019-.3l1.89-1.665c-.374-.356-.767-.711-1.142-1.067l-1.871 1.947a.212.212 0 0 1-.15.056.212.212 0 0 1-.15-.056c-.093-.075-.093-.206 0-.3l1.872-1.947c-.337-.3-.655-.617-.992-.917l-2.396 2.115a.201.201 0 0 1-.131.057.17.17 0 0 1-.15-.075c-.074-.094-.074-.225.019-.3l2.358-2.078c-.468-.449-.954-.88-1.422-1.329l-2.19 2.265a.212.212 0 0 1-.15.057.212.212 0 0 1-.15-.057.208.208 0 0 1 0-.3l2.172-2.264c-.206-.187-.393-.375-.6-.562l-2.47 2.19a.203.203 0 0 1-.131.057.17.17 0 0 1-.15-.075c-.075-.094-.075-.225.019-.3l2.433-2.152c-.58-.543-1.16-1.067-1.722-1.61l-1.91 2.003c-.037.037-.093.075-.15.075a.211.211 0 0 1-.149-.057c-.075-.074-.093-.224 0-.299l1.91-1.984c-.281-.262-.58-.524-.861-.805l-2.303 2.04a.203.203 0 0 1-.13.056.17.17 0 0 1-.15-.074c-.076-.094-.076-.225.018-.3l2.284-2.022c-.524-.486-1.067-.973-1.591-1.46L5.834 11.97c-.038.037-.094.075-.15.075a.213.213 0 0 1-.15-.056c-.093-.075-.093-.206 0-.3l1.947-2.021c-.318-.3-.655-.6-.973-.918l-2.602 2.21a.212.212 0 0 1-.15.055.17.17 0 0 1-.15-.075c-.075-.093-.075-.224.02-.3l2.433-2.152c-.394-.374-.787-.73-1.198-1.104l-2.378 2.47a.213.213 0 0 1-.15.057.212.212 0 0 1-.15-.056c-.093-.075-.093-.206 0-.3l2.378-2.47c-.318-.3-.637-.581-.936-.88L.686 8.804a.202.202 0 0 1-.13.057.17.17 0 0 1-.15-.075c-.075-.094-.075-.225.018-.3l2.902-2.564a17.51 17.51 0 0 1-.618-.58c4.1-2.827 7.918-4.119 11.344-4.587 15.76-2.134 21.975 13.366 43.764 11.232 14.825-1.46 22.256-9.64 37.418-5.953 2.04.487 6.01 1.479 10.258 4.1 1.236.767 2.508 1.647 3.744 2.714a27.66 27.66 0 0 1 2.976 2.938c-.355.094-.711.188-1.067.3l1.31 2.976c.02.113-.018.225-.13.281z"/></svg></svg><svg width="103" height="39" xmlns="http://www.w3.org/2000/svg" xmlns:xlink="http://www.w3.org/1999/xlink" xmlns:svgjs="http://svgjs.com/svgjs" fill="#640042" opacity=".451" x="122" y="174"><svg xmlns="http://www.w3.org/2000/svg" xmlns:xlink="http://www.w3.org/1999/xlink" width="103" height="39"><path paint-order="stroke fill markers" fill-rule="evenodd" d="M102.947 19.325h-.018l.018.075v-.075zm-4.698.356l-.43.037.056.169c.15-.019.3-.019.43-.038l-.056-.168zM81.552 5.118h-.225a2084.403 2084.403 0 0 0 8.199 14.956c.056-.019.112-.037.169-.037l-8.143-14.92zM27.174 36.603l-.112.187c.075.15.168.3.243.45l.112-.188-.243-.45zM88.14 20.43l-15.93 1.198-7.17-13.085c-.055.019-.13.038-.186.057a2145.91 2145.91 0 0 0 7.15 13.046l-17.577 1.31-5.915-10.8c-.075 0-.15 0-.224.019l5.934 10.8-15.387 1.161-7.488-13.646c1.292-.093 2.527-.187 3.688-.262-.15-.056-.318-.112-.468-.168l-3.332.224-1.18-2.152c-.112-.057-.243-.113-.355-.169.374.674.786 1.46 1.273 2.34l-17.596 1.18L7.463.718c-.075 0-.15.019-.243.037.973 1.835 2.733 5.054 5.877 10.764l-10.052.673c.094.075.169.15.263.244 2.733-.187 6.046-.412 9.94-.674 2.133 3.893 4.679 8.517 7.58 13.74l-3.144.243c.093.093.205.187.3.28.916-.056 1.927-.13 3.013-.205 1.18 2.134 2.34 4.211 3.407 6.14.15.15.318.299.468.43l-3.632-6.608c4.568-.337 10.464-.767 17.558-1.291 1.704 3.088 3.295 5.97 4.53 8.198.056-.018.113-.037.187-.056l-4.51-8.18c4.922-.374 10.126-.767 15.367-1.179 1.142 2.078 2.228 4.024 3.051 5.522.056-.019.113-.037.169-.037l-3.014-5.504c5.953-.45 11.924-.917 17.558-1.366.487.88.955 1.74 1.385 2.508.02 0 .038 0 .057-.019l.224.487c.618 1.142 1.16 2.097 1.554 2.808a.199.199 0 0 0 .037-.225l-.112-.243-2.939-5.316c5.316-.412 10.314-.805 14.676-1.16.374-.094.748-.188 1.123-.3zm-72.105 5.41l-.43.318c.243-.019.505-.038.786-.056l.45-.337-.806.074zM13.51 11.725c5.054-.337 10.95-.75 17.577-1.217 1.872 3.425 4.4 8.011 7.506 13.646l-17.539 1.31-7.544-13.74zm25.364 12.579h-.131c-7.132.542-13.084.973-17.652 1.31h-.13c-.094 0-.188.019-.263.019l.375-.02 32.552-2.433c-5.036.393-10.034.768-14.751 1.124zM.968 12.568c.224-.019.45-.038.693-.038l.3-.28-.694.037-.3.28zm27.16 25.776l-.093.187c.094.15.168.3.244.449l.093-.187-.243-.45zm73.116-18.888l-.45.038.075.168c.15-.018.3-.018.45-.037l-.075-.169z"/></svg></svg><svg width="113" height="40" xmlns="http://www.w3.org/2000/svg" xmlns:xlink="http://www.w3.org/1999/xlink" xmlns:svgjs="http://svgjs.com/svgjs" fill="none" x="115" y="174"><svg xmlns="http://www.w3.org/2000/svg" xmlns:xlink="http://www.w3.org/1999/xlink" width="113" height="40"><path paint-order="stroke fill markers" d="M112.325 19.344c-.02.019-.056.019-.094.019-.075 0-.169-.056-.187-.131l-1.33-3.051c-.43.112-.86.243-1.29.355l.935 2.733a.202.202 0 0 1-.131.262c-.019 0-.038.019-.075.019-.094 0-.168-.056-.206-.15l-.018-.075-.918-2.677c-.599.169-1.179.319-1.778.487l1.01 2.321.076.169.262.58c.037.112 0 .225-.113.28-.037.02-.056.02-.093.02-.075 0-.168-.057-.187-.131l-.319-.712-.074-.168-.974-2.246c-.73.205-1.46.393-2.209.599l.637 1.834.056.168.337.955a.202.202 0 0 1-.131.262c-.019 0-.037.019-.075.019-.094 0-.168-.056-.206-.15l-.355-1.067-.057-.168-.599-1.76c-2.508.693-5.016 1.367-7.524 2.06a.546.546 0 0 1-.169.037c-.45.13-.917.243-1.367.374-.374.094-.748.206-1.123.3-3.126.86-6.252 1.703-9.378 2.564l1.573 3.613c.037.112 0 .224-.113.28-.018.02-.056.02-.093.02-.075 0-.169-.038-.187-.132l-1.592-3.669-1.235.337 1.16 3.37a.202.202 0 0 1-.13.262c-.019 0-.038.018-.075.018-.094 0-.169-.056-.206-.15l-1.16-3.406c-.525.15-1.049.28-1.592.43l1.292 2.94.112.243a.2.2 0 0 1-.037.224c-.02.019-.038.038-.075.056-.019.019-.057.019-.094.019-.075 0-.168-.037-.187-.131l-1.198-2.752-.225-.486c-.018 0-.037.018-.056.018-.411.113-.823.225-1.217.337l1.011 2.94a.202.202 0 0 1-.13.261c-.02 0-.038.019-.075.019-.094 0-.169-.056-.207-.15l-1.01-2.976a63.71 63.71 0 0 1-1.797.487l1.422 3.275c.038.113 0 .225-.112.281-.019.019-.056.019-.094.019-.074 0-.168-.038-.187-.131l-1.46-3.332c-.73.206-1.46.393-2.19.599l1.086 3.163a.203.203 0 0 1-.131.262c-.019 0-.038.02-.075.02-.094 0-.169-.057-.206-.15L74.063 26.1c-.524.15-1.048.281-1.572.431l1.554 3.557c.037.112 0 .224-.113.28-.037.019-.056.019-.093.019-.075 0-.169-.037-.187-.131l-1.573-3.613c-2.508.674-4.998 1.367-7.506 2.04-.056.02-.112.038-.168.038-1.966.543-3.931 1.067-5.915 1.61l1.385 3.968a.202.202 0 0 1-.131.262c-.019 0-.038.019-.075.019-.094 0-.169-.056-.206-.15l-1.404-3.987c-.412.112-.805.225-1.217.337l.936 3.575c.038.113-.037.225-.15.262h-.056c-.093 0-.187-.056-.206-.15l-.935-3.556c-.525.15-1.049.281-1.573.43L56 34.6a.202.202 0 0 1-.131.262c-.019 0-.037.019-.075.019-.093 0-.169-.057-.206-.15l-1.16-3.295c-.45.131-.899.244-1.33.356l.936 3.557c.038.112-.037.224-.15.262h-.055c-.094 0-.187-.057-.206-.15l-.936-3.538c-.75.206-1.516.412-2.265.618-.056.018-.112.037-.188.056l1.648 3.706c.056.113 0 .225-.112.281-.038.019-.057.019-.094.019a.195.195 0 0 1-.187-.131l-1.685-3.763c-.243.075-.487.131-.73.206l1.329 3.781a.202.202 0 0 1-.13.262c-.02 0-.039.019-.076.019-.093 0-.168-.056-.206-.15l-1.348-3.818c-.655.187-1.31.355-1.965.543l1.685 3.78c.056.113 0 .225-.112.281-.038.02-.057.02-.094.02a.195.195 0 0 1-.187-.132l-1.722-3.837c-.412.112-.805.224-1.217.337l1.254 3.556a.202.202 0 0 1-.131.262c-.019 0-.038.02-.075.02-.094 0-.168-.057-.206-.15l-1.272-3.595c-.543.15-1.068.3-1.61.43l1.516 3.389c.037.112 0 .225-.113.28-.018.02-.056.02-.093.02a.195.195 0 0 1-.188-.132l-1.534-3.444c-.375.112-.768.206-1.142.318l.992 3.969c.037.112-.038.224-.15.262h-.056c-.093 0-.187-.056-.206-.169l-.992-3.968-.842.225-.075 4.286a.208.208 0 0 1-.206.206c-.112 0-.206-.093-.206-.225l.075-4.155c-.412.112-.842.224-1.254.337l-.056 3.781a.208.208 0 0 1-.206.206.208.208 0 0 1-.206-.206l.056-3.65c-.524.15-1.048.28-1.573.43l-1.291 2.396-.093.188-.188.355a.205.205 0 0 1-.187.113c-.037 0-.075 0-.094-.02-.093-.055-.15-.186-.093-.28l.318-.599.094-.187 1.048-1.966c-.318-.28-.637-.58-.936-.88l-.824 1.536-.112.187-.711 1.31a.206.206 0 0 1-.187.112c-.038 0-.076 0-.094-.018-.113-.057-.15-.188-.094-.281l.843-1.554.112-.187.749-1.385c-1.03-.936-2.04-1.89-3.07-2.845-.15-.15-.318-.3-.468-.43-.468-.432-.917-.862-1.385-1.274l-2.097 2.62c-.037.057-.112.076-.168.076a.348.348 0 0 1-.131-.038.21.21 0 0 1-.038-.3l2.115-2.639c-.43-.411-.88-.804-1.31-1.216l-2.321 2.677c-.037.037-.093.074-.15.074a.213.213 0 0 1-.15-.056.195.195 0 0 1 0-.3l2.453-2.601c-.318-.3-.637-.58-.955-.88l-2.583 1.928c-.038.038-.075.038-.131.038a.224.224 0 0 1-.169-.094.211.211 0 0 1 .038-.3l2.508-1.871c-.393-.375-.786-.73-1.18-1.105l-2.395 2.097a.203.203 0 0 1-.131.056.17.17 0 0 1-.15-.075c-.075-.094-.075-.225.019-.3L25.3 26.29c-.112-.094-.224-.206-.336-.3-.094-.093-.207-.187-.3-.28-.112-.113-.225-.206-.337-.319l-.505.375-.45.336-1.872 1.404c-.037.038-.075.038-.13.038a.222.222 0 0 1-.169-.094.21.21 0 0 1 .037-.3l1.348-1.01.43-.318.974-.73-1.46-1.348-2.434 2.209a.229.229 0 0 1-.318-.019c-.074-.094-.074-.225.019-.3l2.434-2.152c-.206-.187-.394-.374-.6-.562l-2.676 1.985c-.038.037-.075.037-.131.037a.222.222 0 0 1-.169-.094.21.21 0 0 1 .038-.3l2.602-1.946c-.6-.543-1.18-1.086-1.779-1.647l-1.928 2.021a.213.213 0 0 1-.15.057.213.213 0 0 1-.15-.057c-.093-.074-.093-.205 0-.299l1.966-1.966c-.355-.336-.711-.655-1.067-.992l-1.91 1.685a.212.212 0 0 1-.149.056.17.17 0 0 1-.15-.075c-.074-.093-.074-.224.02-.3l1.89-1.665c-.375-.356-.768-.711-1.142-1.067l-1.872 1.947a.212.212 0 0 1-.15.056.213.213 0 0 1-.15-.056c-.074-.075-.093-.225 0-.3l1.872-1.947c-.336-.3-.655-.617-.992-.917L13.06 19.25a.229.229 0 0 1-.318-.019c-.075-.093-.075-.224.019-.299l2.358-2.078c-.467-.43-.954-.88-1.422-1.329l-2.19 2.265a.213.213 0 0 1-.15.057.212.212 0 0 1-.15-.057c-.093-.075-.093-.206 0-.3l2.171-2.264c-.205-.187-.393-.375-.598-.562l-2.471 2.172a.213.213 0 0 1-.15.056.17.17 0 0 1-.15-.075c-.075-.094-.075-.225.019-.3l2.433-2.152c-.58-.543-1.16-1.067-1.722-1.61l-1.91 1.984c-.036.038-.093.075-.149.075a.212.212 0 0 1-.15-.056c-.075-.075-.093-.225 0-.3l1.91-1.984-.113-.112a3.1 3.1 0 0 1-.262-.243c-.168-.15-.318-.3-.486-.45l-.6.524-.299.281-1.404 1.254a.213.213 0 0 1-.15.057.17.17 0 0 1-.15-.075c-.074-.094-.074-.225.02-.3l1.01-.88.3-.262.973-.86c-.524-.487-1.067-.974-1.59-1.46l-1.947 2.02a.213.213 0 0 1-.15.057.212.212 0 0 1-.15-.056c-.075-.075-.094-.225 0-.3l1.947-2.021c-.337-.3-.656-.6-.974-.899l-2.508 2.21a.229.229 0 0 1-.318-.019c-.075-.094-.075-.225.018-.3L6.04 8.487c-.393-.374-.787-.73-1.18-1.104l-2.377 2.47c-.037.038-.093.076-.15.076a.212.212 0 0 1-.15-.057.195.195 0 0 1 0-.3l2.378-2.47c-.318-.3-.636-.58-.936-.88L.686 8.824a.213.213 0 0 1-.15.056.17.17 0 0 1-.15-.075c-.074-.093-.074-.224.02-.3l2.9-2.564c-.205-.187-.41-.374-.617-.58 4.1-2.826 7.918-4.118 11.344-4.586.074 0 .15-.019.206-.019.075-.018.168-.018.243-.037 8.891-1.03 14.75 3.575 22.238 7.263.112.056.243.112.355.168a47.385 47.385 0 0 0 4.512 1.928c.15.056.318.113.468.169 3.743 1.31 8.03 2.152 13.252 1.946.075 0 .15 0 .225-.018.73-.038 1.497-.075 2.265-.169 5.447-.524 9.883-1.965 14.076-3.406.056-.02.131-.038.187-.057 5.298-1.797 10.221-3.556 16.286-3.425h.225c2.059.056 4.267.355 6.663.936 2.621.636 8.48 2.096 14.002 6.795a29.482 29.482 0 0 1 2.976 2.938l-1.067.281 1.31 2.995c.02.113-.018.225-.13.281z"/></svg></svg><svg width="3" height="5" xmlns="http://www.w3.org/2000/svg" xmlns:xlink="http://www.w3.org/1999/xlink" xmlns:svgjs="http://svgjs.com/svgjs" fill="#f2be54" x="185" y="200"><svg xmlns="http://www.w3.org/2000/svg" xmlns:xlink="http://www.w3.org/1999/xlink" width="3" height="5"><path paint-order="stroke fill markers" fill-rule="evenodd" d="M2.416 4.8a.18.18 0 0 1-.168-.131L.807.439C.769.344.825.231.919.194c.093-.037.206.019.243.112l1.441 4.23c.038.094-.018.207-.112.244-.037 0-.056.019-.075.019z"/></svg></svg><svg width="4" height="4" xmlns="http://www.w3.org/2000/svg" xmlns:xlink="http://www.w3.org/1999/xlink" xmlns:svgjs="http://svgjs.com/svgjs" fill="#f2be54" x="143" y="204"><svg xmlns="http://www.w3.org/2000/svg" xmlns:xlink="http://www.w3.org/1999/xlink" width="4" height="4"><path paint-order="stroke fill markers" fill-rule="evenodd" d="M.408 3.907a.212.212 0 0 1-.15-.056c-.074-.075-.055-.187.02-.262L3.628.631c.075-.075.188-.056.262.02.075.074.057.186-.019.261L.521 3.87c-.037.037-.075.037-.113.037z"/></svg></svg><svg width="5" height="4" xmlns="http://www.w3.org/2000/svg" xmlns:xlink="http://www.w3.org/1999/xlink" xmlns:svgjs="http://svgjs.com/svgjs" fill="#f2be54" x="144" y="206"><svg xmlns="http://www.w3.org/2000/svg" xmlns:xlink="http://www.w3.org/1999/xlink" width="5" height="4"><path paint-order="stroke fill markers" fill-rule="evenodd" d="M.831 3.48a.17.17 0 0 1-.15-.075C.625 3.33.644 3.199.72 3.143L4.313.466a.202.202 0 0 1 .262.037c.056.075.037.206-.037.262L.944 3.442c-.038.019-.075.038-.113.038z"/></svg></svg><svg width="5" height="4" xmlns="http://www.w3.org/2000/svg" xmlns:xlink="http://www.w3.org/1999/xlink" xmlns:svgjs="http://svgjs.com/svgjs" fill="#f2be54" x="146" y="207"><svg xmlns="http://www.w3.org/2000/svg" xmlns:xlink="http://www.w3.org/1999/xlink" width="5" height="4"><path paint-order="stroke fill markers" fill-rule="evenodd" d="M.535 3.678a.213.213 0 0 1-.15-.057C.31 3.546.329 3.434.404 3.36L3.754.402c.075-.075.187-.056.262.018.075.075.056.188-.018.263L.666 3.62a.203.203 0 0 1-.131.057z"/></svg></svg><svg width="3" height="4" xmlns="http://www.w3.org/2000/svg" xmlns:xlink="http://www.w3.org/1999/xlink" xmlns:svgjs="http://svgjs.com/svgjs" fill="#fc860a" opacity=".302" x="142" y="204"><svg xmlns="http://www.w3.org/2000/svg" xmlns:xlink="http://www.w3.org/1999/xlink" width="3" height="4"><path paint-order="stroke fill markers" fill-rule="evenodd" d="M2.25.912c.226-.056.469-.13.694-.187L.904 3.29c-.038.056-.113.074-.17.074a.348.348 0 0 1-.13-.037.211.211 0 0 1-.038-.3L2.251.912z"/></svg></svg><svg width="84" height="30" xmlns="http://www.w3.org/2000/svg" xmlns:xlink="http://www.w3.org/1999/xlink" xmlns:svgjs="http://svgjs.com/svgjs" fill="#fc860a" opacity=".302" x="144" y="184"><svg xmlns="http://www.w3.org/2000/svg" xmlns:xlink="http://www.w3.org/1999/xlink" width="84" height="30"><path paint-order="stroke fill markers" fill-rule="evenodd" d="M83.325 9.344c-.02.019-.056.019-.094.019a.195.195 0 0 1-.187-.131l-1.33-3.051c-.43.112-.86.243-1.29.355l.935 2.733a.202.202 0 0 1-.131.262c-.019 0-.037.019-.075.019-.094 0-.168-.056-.206-.15l-.936-2.752c-.599.169-1.179.319-1.778.487l1.33 3.051c.036.113 0 .225-.113.281-.02.019-.056.019-.094.019a.195.195 0 0 1-.187-.131l-1.366-3.126c-.73.206-1.46.393-2.19.599l1.01 2.957a.202.202 0 0 1-.13.262c-.02 0-.038.02-.076.02-.093 0-.168-.057-.206-.15l-1.03-2.977c-6.532 1.778-13.046 3.557-19.579 5.335l1.572 3.613c.038.112 0 .224-.112.28-.019.02-.056.02-.093.02a.195.195 0 0 1-.187-.132l-1.61-3.669-1.236.337 1.16 3.37a.202.202 0 0 1-.13.262c-.019 0-.038.018-.075.018-.094 0-.169-.056-.206-.15l-1.16-3.406c-.525.15-1.049.28-1.592.43l1.386 3.201c.037.113 0 .225-.113.281-.018.019-.056.019-.094.019a.195.195 0 0 1-.187-.131l-1.422-3.257c-.43.112-.843.224-1.273.337l1.01 2.938a.202.202 0 0 1-.13.262c-.019 0-.038.02-.075.02-.094 0-.169-.057-.206-.15l-1.01-2.977c-.6.169-1.199.318-1.798.487l1.423 3.276c.037.112 0 .224-.113.28-.018.019-.056.019-.093.019-.075 0-.168-.037-.187-.13l-1.46-3.333c-.73.206-1.46.393-2.172.6l1.086 3.163a.202.202 0 0 1-.131.262c-.019 0-.037.018-.075.018-.094 0-.169-.056-.206-.15l-1.104-3.2c-.524.15-1.049.28-1.573.43l1.554 3.557c.056.112 0 .224-.112.28-.019.02-.057.02-.094.02-.075 0-.168-.038-.187-.132l-1.572-3.612c-4.53 1.235-9.06 2.47-13.571 3.706l1.385 3.968a.203.203 0 0 1-.132.262c-.018 0-.037.019-.074.019-.094 0-.169-.056-.206-.15l-1.404-3.987c-.412.112-.805.225-1.217.337l.936 3.575c.038.113-.037.225-.15.262h-.056c-.093 0-.187-.056-.206-.15l-.936-3.556c-.524.15-1.048.28-1.572.43l1.142 3.258a.203.203 0 0 1-.131.262c-.019 0-.038.019-.075.019-.094 0-.168-.057-.206-.15l-1.142-3.295c-.449.113-.898.244-1.329.356l.917 3.538c.038.112-.037.224-.15.262h-.055c-.094 0-.188-.056-.206-.15l-.918-3.538c-.823.225-1.647.45-2.452.674l1.647 3.706c.057.113 0 .225-.112.281-.037.019-.056.019-.093.019a.195.195 0 0 1-.187-.131l-1.685-3.763c-.244.075-.487.131-.712.206l1.33 3.782a.202.202 0 0 1-.132.262c-.018 0-.037.018-.074.018-.094 0-.169-.056-.206-.15l-1.348-3.8c-.655.188-1.31.356-1.965.544l1.684 3.78c.056.113 0 .225-.112.281-.019.02-.056.02-.094.02a.195.195 0 0 1-.187-.132l-1.722-3.837c-.412.112-.824.224-1.217.337l1.254 3.556a.202.202 0 0 1-.13.262c-.02 0-.038.02-.075.02-.094 0-.169-.057-.207-.15l-1.272-3.595c-.543.15-1.067.3-1.61.43l1.516 3.389c.037.112 0 .225-.112.28-.019.02-.056.02-.094.02a.195.195 0 0 1-.187-.132l-1.535-3.463c-.374.113-.768.206-1.16.319l.991 3.968a.23.23 0 0 1-.15.262h-.055A.22.22 0 0 1 12.98 29l-.992-3.969-.843.225-.075 4.286a.208.208 0 0 1-.205.206c-.113 0-.206-.093-.206-.224l.074-4.156c-.411.112-.842.225-1.254.337l-.056 3.781a.208.208 0 0 1-.206.206c-.112 0-.206-.093-.206-.224l.057-3.65c-.525.15-1.049.28-1.573.43l-1.572 2.92a.206.206 0 0 1-.187.112c-.038 0-.075 0-.094-.018-.094-.057-.15-.188-.094-.281l1.48-2.733c-.319-.3-.637-.58-.937-.88l-1.647 3.051a.206.206 0 0 1-.187.113c-.038 0-.075 0-.094-.02-.112-.055-.15-.186-.093-.28l1.684-3.145C4.126 23.59 2.497 22.073.87 20.576 19.68 15.408 56.482 5.412 76.286.021c1.236.768 2.509 1.647 3.744 2.714a27.613 27.613 0 0 1 2.977 2.94c-.356.093-.712.186-1.068.299l1.31 2.976c.225.225.188.337.076.393z"/></svg></svg></svg><svg width="79" height="19" xmlns="http://www.w3.org/2000/svg" xmlns:xlink="http://www.w3.org/1999/xlink" xmlns:svgjs="http://svgjs.com/svgjs" fill="#ff931e" opacity=".169" x="158" y="236"><svg xmlns="http://www.w3.org/2000/svg" xmlns:xlink="http://www.w3.org/1999/xlink" width="79" height="19"><path paint-order="stroke fill markers" fill-rule="evenodd" d="M78.31 1.857h-5.766l5.766 16.604h-1.704l-8.63-16.604h-4.042l2.096 6.027h-1.703l-3.145-6.027H.009L.89.079h77.42v1.778z"/></svg></svg></svg><svg width="112" height="112" xmlns="http://www.w3.org/2000/svg" xmlns:xlink="http://www.w3.org/1999/xlink" xmlns:svgjs="http://svgjs.com/svgjs" viewBox="125 153 112 112" x="125" y="153"><svg width="112" height="93" xmlns="http://www.w3.org/2000/svg" xmlns:xlink="http://www.w3.org/1999/xlink" xmlns:svgjs="http://svgjs.com/svgjs" viewBox="125 172 112 93" x="125" y="172"><svg width="55" height="53" xmlns="http://www.w3.org/2000/svg" xmlns:xlink="http://www.w3.org/1999/xlink" xmlns:svgjs="http://svgjs.com/svgjs" viewBox="125 212 55 53" x="125" y="212"><svg width="15" height="9" xmlns="http://www.w3.org/2000/svg" xmlns:xlink="http://www.w3.org/1999/xlink" xmlns:svgjs="http://svgjs.com/svgjs" fill="#f5cb5c" x="125" y="212"><svg xmlns="http://www.w3.org/2000/svg" xmlns:xlink="http://www.w3.org/1999/xlink" width="15" height="9"><path paint-order="stroke fill markers" fill-rule="evenodd" d="M14.066 3.769s-.112.898-.506 1.89c-.393 1.011-1.066 2.135-2.19 2.434-1.179.337-1.928-.43-3.088-1.348-.992-.786-2.265-1.684-4.38-2.115C-.703 3.675 1.038-1.154 1.936.755c.225.45.749.843 1.441 1.16 1.31.6 3.201.974 4.493 1.161.861.131 1.479.188 1.479.188l4.717.505z"/></svg></svg><svg width="14" height="8" xmlns="http://www.w3.org/2000/svg" xmlns:xlink="http://www.w3.org/1999/xlink" xmlns:svgjs="http://svgjs.com/svgjs" fill="#f5cb5c" x="166" y="257"><svg xmlns="http://www.w3.org/2000/svg" xmlns:xlink="http://www.w3.org/1999/xlink" width="14" height="8"><path paint-order="stroke fill markers" fill-rule="evenodd" d="M12.993 5.846c-.543.75-1.704.15-3.65.319-.3.018-.618.074-.955.15-1.797.393-1.666.991-3.575 1.385C2.94 8.074.6 7.943.264 7.063c-.093-.262-.075-.711.15-.88.206-.15.543.02.655.038.58.056 1.123.018 1.647-.075 1.142-.225 2.172-.749 3.126-1.217.58-.3 1.049-.524 1.404-.767.412-.28.711-.562.955-.955.468-.767.524-1.572.524-2.04C9.979.998 11.233.849 12.487.68c.206.618.431 1.516.562 2.602v.019c.094 1.46.187 2.208-.056 2.545z"/></svg></svg><svg width="6" height="4" xmlns="http://www.w3.org/2000/svg" xmlns:xlink="http://www.w3.org/1999/xlink" xmlns:svgjs="http://svgjs.com/svgjs" fill="#081164" x="133" y="217"><svg xmlns="http://www.w3.org/2000/svg" xmlns:xlink="http://www.w3.org/1999/xlink" width="6" height="4"><path paint-order="stroke fill markers" fill-rule="evenodd" d="M5.56.66c-.393 1.01-1.066 2.134-2.19 2.433-1.179.337-1.928-.43-3.088-1.348C1.667.566 4.419.585 5.56.66z"/></svg></svg><svg width="5" height="4" xmlns="http://www.w3.org/2000/svg" xmlns:xlink="http://www.w3.org/1999/xlink" xmlns:svgjs="http://svgjs.com/svgjs" fill="#081164" x="175" y="260"><svg xmlns="http://www.w3.org/2000/svg" xmlns:xlink="http://www.w3.org/1999/xlink" width="5" height="4"><path paint-order="stroke fill markers" fill-rule="evenodd" d="M3.993 2.847c-.543.748-1.704.15-3.65.318C.96 1.293 2.983.525 3.993.263v.02c.15 1.478.243 2.227 0 2.564z"/></svg></svg><svg width="5" height="3" xmlns="http://www.w3.org/2000/svg" xmlns:xlink="http://www.w3.org/1999/xlink" xmlns:svgjs="http://svgjs.com/svgjs" fill="#fff" opacity=".122" x="128" y="213"><svg xmlns="http://www.w3.org/2000/svg" xmlns:xlink="http://www.w3.org/1999/xlink" width="5" height="3"><path paint-order="stroke fill markers" fill-rule="evenodd" d="M4.889 2.058c-.3.168-.655.3-1.067.374C1.95 2.825.939 1.945.396.897c1.31.6 3.201.974 4.493 1.16z"/></svg></svg><svg width="6" height="3" xmlns="http://www.w3.org/2000/svg" xmlns:xlink="http://www.w3.org/1999/xlink" xmlns:svgjs="http://svgjs.com/svgjs" fill="#fff" opacity=".122" x="168" y="261"><svg xmlns="http://www.w3.org/2000/svg" xmlns:xlink="http://www.w3.org/1999/xlink" width="6" height="3"><path paint-order="stroke fill markers" fill-rule="evenodd" d="M5.209.143c-.131.412-.374.824-.749 1.217C3.356 2.576 1.84 2.483.68 2.127 1.82 1.903 2.85 1.378 3.805.911 4.404.61 4.853.386 5.209.143z"/></svg></svg></svg><svg width="68" height="30" xmlns="http://www.w3.org/2000/svg" xmlns:xlink="http://www.w3.org/1999/xlink" xmlns:svgjs="http://svgjs.com/svgjs" viewBox="133 190 68 30" x="133" y="190"><svg width="68" height="30" xmlns="http://www.w3.org/2000/svg" xmlns:xlink="http://www.w3.org/1999/xlink" xmlns:svgjs="http://svgjs.com/svgjs" fill="#271c41" x="133" y="190"><svg xmlns="http://www.w3.org/2000/svg" xmlns:xlink="http://www.w3.org/1999/xlink" width="68" height="30"><path paint-order="stroke fill markers" fill-rule="evenodd" d="M67.163 19.854c-2.639 3.089-5.297 6.177-7.936 9.266a379.143 379.143 0 0 1-12.055-8.293 379.773 379.773 0 0 1-8.105-5.952 410.288 410.288 0 0 1-7.094-5.485 47.192 47.192 0 0 1-4.306 3.856c-3.744 2.958-6.926 4.549-8.854 5.56-3.144 1.647-7.6 4.211-13.028 8.16-.674-.242-1.348-.486-2.04-.73-1.03-.373-2.06-.729-3.089-1.103 8.349-7.507 14.077-12.73 17.409-15.762 3.95-3.594 7.094-6.514 10.089-8.067 1.984-1.03 3.893-1.48 5.934-1.16.936.149 1.46.392 5.616 2.732 5.072 2.864 8.273 4.661 10.688 6.084.842.486 1.59.936 2.284 1.366a435.862 435.862 0 0 1 14.487 9.528z"/></svg></svg><svg width="29" height="26" xmlns="http://www.w3.org/2000/svg" xmlns:xlink="http://www.w3.org/1999/xlink" xmlns:svgjs="http://svgjs.com/svgjs" fill="#fff" opacity=".039" x="133" y="191"><svg xmlns="http://www.w3.org/2000/svg" xmlns:xlink="http://www.w3.org/1999/xlink" width="29" height="26"><path paint-order="stroke fill markers" fill-rule="evenodd" d="M28.154.322C20.01 8.634 11.887 16.945 3.744 25.256c-1.029-.375-2.058-.73-3.088-1.105 8.349-7.506 14.077-12.728 17.409-15.76 3.93-3.595 7.075-6.496 10.089-8.069z"/></svg></svg></svg><svg width="43" height="55" xmlns="http://www.w3.org/2000/svg" xmlns:xlink="http://www.w3.org/1999/xlink" xmlns:svgjs="http://svgjs.com/svgjs" viewBox="167 205 43 55" x="167" y="205"><svg width="43" height="55" xmlns="http://www.w3.org/2000/svg" xmlns:xlink="http://www.w3.org/1999/xlink" xmlns:svgjs="http://svgjs.com/svgjs" fill="#8677a7" x="167" y="205"><svg xmlns="http://www.w3.org/2000/svg" xmlns:xlink="http://www.w3.org/1999/xlink" width="43" height="55"><path paint-order="stroke fill markers" fill-rule="evenodd" d="M30.075 19.623a134.266 134.266 0 0 1-22.088 5.316c.28.524.674 1.31 1.067 2.302 1.685 4.306 1.498 8.05 1.46 9.528-.112 3.67.206 9.135 1.404 17.802-.281-.019-.562-.019-.861-.038l-1.778-.056-1.76-.056A307.456 307.456 0 0 1 3.27 40.008C-.886 24.47-.68 20.09 1.754 17.526a3.08 3.08 0 0 1 .411-.337c.543-.374 1.517-.935 3.07-1.815 6.814-3.875 12.243-6.627 12.954-6.982a207.517 207.517 0 0 0 9.546-5.167c1.255-.73 2.584-1.497 3.987-2.34l3.407 4.25c1.235 1.535 2.471 3.088 3.706 4.623 1.31 1.647 2.621 3.276 3.95 4.923a134.854 134.854 0 0 1-12.71 4.942z"/></svg></svg><svg width="38" height="47" xmlns="http://www.w3.org/2000/svg" xmlns:xlink="http://www.w3.org/1999/xlink" xmlns:svgjs="http://svgjs.com/svgjs" fill="#9776a6" opacity=".42" x="172" y="213"><svg xmlns="http://www.w3.org/2000/svg" xmlns:xlink="http://www.w3.org/1999/xlink" width="38" height="47"><path paint-order="stroke fill markers" fill-rule="evenodd" d="M25.075 11.623a134.266 134.266 0 0 1-22.088 5.316c.28.524.674 1.31 1.067 2.303 1.685 4.305 1.498 8.049 1.46 9.527-.112 3.67.206 9.135 1.404 17.802-.28-.019-.562-.019-.861-.038-.861-4.398-2.284-11.643-4.1-20.965-1.329-6.85-2.227-9.827-.636-11.212.824-.711 1.91-.655 2.602-.655 6.964.075 14.095-3.95 19.823-7.207A50.35 50.35 0 0 0 32.563.111c.43.543.86 1.067 1.272 1.61 1.31 1.647 2.621 3.276 3.95 4.923a125.161 125.161 0 0 1-12.71 4.979z"/></svg></svg><svg width="34" height="18" xmlns="http://www.w3.org/2000/svg" xmlns:xlink="http://www.w3.org/1999/xlink" xmlns:svgjs="http://svgjs.com/svgjs" fill="#fff" opacity=".122" x="169" y="205"><svg xmlns="http://www.w3.org/2000/svg" xmlns:xlink="http://www.w3.org/1999/xlink" width="34" height="18"><path paint-order="stroke fill markers" fill-rule="evenodd" d="M33.11 5.116C24.65 8.242 8.646 14.138.148 17.17c.543-.375 1.516-.936 3.07-1.816C10.03 11.48 15.459 8.73 16.17 8.373a207.66 207.66 0 0 0 9.547-5.166c1.254-.73 2.583-1.498 3.986-2.34 1.142 1.422 2.284 2.845 3.408 4.249z"/></svg></svg></svg><svg width="51" height="48" xmlns="http://www.w3.org/2000/svg" xmlns:xlink="http://www.w3.org/1999/xlink" xmlns:svgjs="http://svgjs.com/svgjs" viewBox="172 172 51 48" x="172" y="172"><svg width="51" height="45" xmlns="http://www.w3.org/2000/svg" xmlns:xlink="http://www.w3.org/1999/xlink" xmlns:svgjs="http://svgjs.com/svgjs" fill="#081164" x="172" y="175"><svg xmlns="http://www.w3.org/2000/svg" xmlns:xlink="http://www.w3.org/1999/xlink" width="51" height="45"><path paint-order="stroke fill markers" fill-rule="evenodd" d="M50.72 9.36c.112 5.708-3.632 14.319-9.229 27.253-.112.263-2.04 4.699-2.04 4.699a94.61 94.61 0 0 1-1.628 3.407c-1.46-.056-3.463-.3-5.653-1.198a18.017 18.017 0 0 1-1.236-.562c-3.725-1.928-5.952-4.998-7.263-7.6a21.135 21.135 0 0 1-1.666-4.623c1.722-.992 4.287-2.883 5.897-6.084.15-.3.636-1.291 1.03-2.751.88-3.239.58-6.028.242-7.675-.542 1.554-1.665 4.024-4.005 6.027-2.134 1.835-4.511 2.715-6.701 3.108-2.303.43-4.4.337-5.747.262-5.429-.281-9.416-2.546-11.437-3.912a15.257 15.257 0 0 1-.58-1.779 17.191 17.191 0 0 1-.469-2.714c12.766 3.781 17.952 1.89 20.329-.562 2.546-2.62 2.864-6.907 7.038-10.688.187-.168.393-.337.6-.505l.336-.281c1.872-1.46 3.706-2.246 4.96-2.696 11.906-.748 15.069 3.089 15.968 4.455.842 1.236 1.235 2.696 1.254 4.418z"/></svg></svg><svg width="13" height="8" xmlns="http://www.w3.org/2000/svg" xmlns:xlink="http://www.w3.org/1999/xlink" xmlns:svgjs="http://svgjs.com/svgjs" fill="#336859" x="204" y="172"><svg xmlns="http://www.w3.org/2000/svg" xmlns:xlink="http://www.w3.org/1999/xlink" width="13" height="8"><path paint-order="stroke fill markers" fill-rule="evenodd" d="M12.486.716c-.655 2.19-1.684 3.575-2.32 4.305-.9 1.03-1.573 1.385-1.78 1.48-1.384.71-3.424.935-5.203-.132-1.31-.767-1.928-1.947-2.227-2.695.168-.075.337-.169.505-.244.131-.056 9.453-2.377 10.146-2.546h.018c.337-.056.6-.112.861-.168z"/></svg></svg><svg width="4" height="3" xmlns="http://www.w3.org/2000/svg" xmlns:xlink="http://www.w3.org/1999/xlink" xmlns:svgjs="http://svgjs.com/svgjs" fill="#bdd3de" opacity=".502" x="199" y="178"><svg xmlns="http://www.w3.org/2000/svg" xmlns:xlink="http://www.w3.org/1999/xlink" width="4" height="3"><path paint-order="stroke fill markers" fill-rule="evenodd" d="M2.081 2.11S1.071 1.548.696.912c.187-.169.393-.337.599-.506.15.206.28.468.411.73C1.576.612 1.556.088 2.1.051c.505-.019.524.43.412.917.318-.636.71-1.235.991-.749.45.824-1.422 1.89-1.422 1.89z"/></svg></svg><svg width="4" height="3" xmlns="http://www.w3.org/2000/svg" xmlns:xlink="http://www.w3.org/1999/xlink" xmlns:svgjs="http://svgjs.com/svgjs" fill="#bdd3de" opacity=".502" x="202" y="183"><svg xmlns="http://www.w3.org/2000/svg" xmlns:xlink="http://www.w3.org/1999/xlink" width="4" height="3"><path paint-order="stroke fill markers" fill-rule="evenodd" d="M3.798.348c-.28-.486-.674.112-.992.749C2.918.61 2.9.16 2.394.18c-.543.018-.524.561-.393 1.085C1.683.573 1.233-.157.934.367c-.468.805 1.423 1.872 1.441 1.872.019-.019 1.872-1.086 1.423-1.89z"/></svg></svg><svg width="4" height="3" xmlns="http://www.w3.org/2000/svg" xmlns:xlink="http://www.w3.org/1999/xlink" xmlns:svgjs="http://svgjs.com/svgjs" fill="#bdd3de" opacity=".502" x="208" y="186"><svg xmlns="http://www.w3.org/2000/svg" xmlns:xlink="http://www.w3.org/1999/xlink" width="4" height="3"><path paint-order="stroke fill markers" fill-rule="evenodd" d="M3.47 1.017c-.281-.487-.674.112-.992.749.112-.487.093-.936-.412-.917-.543.018-.524.561-.393 1.085C1.355 1.242.905.512.606 1.036c-.468.805 1.422 1.872 1.441 1.872 0-.019 1.872-1.105 1.423-1.89z"/></svg></svg><svg width="4" height="3" xmlns="http://www.w3.org/2000/svg" xmlns:xlink="http://www.w3.org/1999/xlink" xmlns:svgjs="http://svgjs.com/svgjs" fill="#bdd3de" opacity=".502" x="215" y="184"><svg xmlns="http://www.w3.org/2000/svg" xmlns:xlink="http://www.w3.org/1999/xlink" width="4" height="3"><path paint-order="stroke fill markers" fill-rule="evenodd" d="M3.208 1.014c-.28-.486-.673.113-.992.749.113-.487.094-.936-.411-.917-.543.018-.524.561-.393 1.085C1.093 1.24.644.51.345 1.033c-.468.805 1.422 1.872 1.441 1.872 0-.019 1.872-1.086 1.422-1.89z"/></svg></svg><svg width="16" height="26" xmlns="http://www.w3.org/2000/svg" xmlns:xlink="http://www.w3.org/1999/xlink" xmlns:svgjs="http://svgjs.com/svgjs" fill="#ff931e" opacity=".169" x="190" y="185"><svg xmlns="http://www.w3.org/2000/svg" xmlns:xlink="http://www.w3.org/1999/xlink" width="16" height="26"><path paint-order="stroke fill markers" fill-rule="evenodd" d="M5.634 25.322a21.144 21.144 0 0 1-1.666-4.624c1.722-.992 4.286-2.882 5.896-6.083.15-.3.637-1.292 1.03-2.752.88-3.238.58-6.027.243-7.674-.543 1.553-1.666 4.024-4.006 6.027C4.997 12.05 2.62 12.93.43 13.323a33.71 33.71 0 0 0 5.878-6.495C8.91 3.084 9.733.332 11.399.314c1.722-.019 3.238 2.92 3.781 4.567 2.79 8.349-7.543 18.532-9.546 20.44z"/></svg></svg><svg width="19" height="37" xmlns="http://www.w3.org/2000/svg" xmlns:xlink="http://www.w3.org/1999/xlink" xmlns:svgjs="http://svgjs.com/svgjs" fill="#19233d" opacity=".078" x="204" y="183"><svg xmlns="http://www.w3.org/2000/svg" xmlns:xlink="http://www.w3.org/1999/xlink" width="19" height="37"><path paint-order="stroke fill markers" fill-rule="evenodd" d="M18.72 1.36c.112 5.708-3.632 14.319-9.229 27.254-.112.262-2.04 4.698-2.04 4.698a95.264 95.264 0 0 1-1.628 3.407c-1.46-.056-3.463-.3-5.653-1.198C8.162 30.56 17.316.985 17.316.985l1.403.374z"/></svg></svg></svg><svg width="25" height="40" xmlns="http://www.w3.org/2000/svg" xmlns:xlink="http://www.w3.org/1999/xlink" xmlns:svgjs="http://svgjs.com/svgjs" viewBox="212 173 25 40" x="212" y="173"><svg width="4" height="10" xmlns="http://www.w3.org/2000/svg" xmlns:xlink="http://www.w3.org/1999/xlink" xmlns:svgjs="http://svgjs.com/svgjs" fill="#ff7d93" x="212" y="203"><svg xmlns="http://www.w3.org/2000/svg" xmlns:xlink="http://www.w3.org/1999/xlink" width="4" height="10"><path paint-order="stroke fill markers" fill-rule="evenodd" d="M3.045 2.455c-.019.15-.056.3-.094.43C2.69 4.01 2.11 4.888 1.772 5.394c-.112.168-.094.13-.112.168-.58 1.086.936 3.201.767 3.725 0 .019-.018.094-.075.113-.13.056-.374-.281-.467-.393C1.06 7.865.948 2.997.948 2.923c0 0-.018-.374.057-1.16 0-.038 0-.076.019-.132.093-1.048.205-1.198.299-1.273.487-.411 1.572.15 1.703.225a6.26 6.26 0 0 1 .02 1.872z"/></svg></svg><svg width="2" height="5" xmlns="http://www.w3.org/2000/svg" xmlns:xlink="http://www.w3.org/1999/xlink" xmlns:svgjs="http://svgjs.com/svgjs" fill="#ff7d93" x="213" y="208"><svg xmlns="http://www.w3.org/2000/svg" xmlns:xlink="http://www.w3.org/1999/xlink" width="2" height="5"><path paint-order="stroke fill markers" fill-rule="evenodd" d="M.323 1.76S1.446 4.437 1.84 4.194C2.232 3.969.566.862.566.862l-.243.898z"/></svg></svg><svg width="3" height="4" xmlns="http://www.w3.org/2000/svg" xmlns:xlink="http://www.w3.org/1999/xlink" xmlns:svgjs="http://svgjs.com/svgjs" fill="#ff7d93" x="213" y="208"><svg xmlns="http://www.w3.org/2000/svg" xmlns:xlink="http://www.w3.org/1999/xlink" width="3" height="4"><path paint-order="stroke fill markers" fill-rule="evenodd" d="M.547.955S1.671 3.632 2.064 3.39C2.457 3.164.79.057.79.057L.547.955z"/></svg></svg><svg width="2" height="6" xmlns="http://www.w3.org/2000/svg" xmlns:xlink="http://www.w3.org/1999/xlink" xmlns:svgjs="http://svgjs.com/svgjs" fill="#ff7d93" x="214" y="204"><svg xmlns="http://www.w3.org/2000/svg" xmlns:xlink="http://www.w3.org/1999/xlink" width="2" height="6"><path paint-order="stroke fill markers" fill-rule="evenodd" d="M1.607 2.56s0 3.406-.468 3.05C.67 5.256.353 1.643.353 1.643L1.307.444l.3 2.115z"/></svg></svg><svg width="3" height="3" xmlns="http://www.w3.org/2000/svg" xmlns:xlink="http://www.w3.org/1999/xlink" xmlns:svgjs="http://svgjs.com/svgjs" fill="#19233d" opacity=".251" x="213" y="203"><svg xmlns="http://www.w3.org/2000/svg" xmlns:xlink="http://www.w3.org/1999/xlink" width="3" height="3"><path paint-order="stroke fill markers" fill-rule="evenodd" d="M2.307 1.65c.056.393.038.655.038.73 0 .112-.019.206-.038.28-.112.038-.823.282-1.535-.093a1.925 1.925 0 0 1-.767-.805c0-.037 0-.075.019-.13C.117.582.229.432.323.358c.487-.412 1.572.15 1.703.224.094.262.225.637.281 1.067z"/></svg></svg><svg width="24" height="34" xmlns="http://www.w3.org/2000/svg" xmlns:xlink="http://www.w3.org/1999/xlink" xmlns:svgjs="http://svgjs.com/svgjs" fill="#081164" x="213" y="173"><svg xmlns="http://www.w3.org/2000/svg" xmlns:xlink="http://www.w3.org/1999/xlink" width="24" height="34"><path paint-order="stroke fill markers" fill-rule="evenodd" d="M22.73 20.98a3.335 3.335 0 0 1-.281.58c-1.105 1.947-3.744 3.164-6.852 4.605-2.677 1.236-3.668 1.199-6.102 2.34-3.145 1.48-5.39 3.463-6.907 5.054-.3-.43-.6-.842-.917-1.272-.45-.637-.917-1.292-1.367-1.928 1.46-2.134 3.931-5.167 7.824-7.619 3.445-2.171 6.459-2.901 6.421-4.492-.037-1.872-4.25-3.95-5.896-5.654-.749-.786-1.086-1.141-1.928-1.984C5.602 9.506 5.04 9.038 4.497 8.402a8.672 8.672 0 0 1-.636-.843C2.625 5.706 2.644 1.382 4.29.483c.356-.187 1.629-.692 6.514 3.482.206.169.394.337.618.524C12.977 5.856 14.699 7.391 16.346 9c4.156 4.025 7.73 8.518 6.383 11.98z"/></svg></svg><svg width="11" height="6" xmlns="http://www.w3.org/2000/svg" xmlns:xlink="http://www.w3.org/1999/xlink" xmlns:svgjs="http://svgjs.com/svgjs" fill="#081559" opacity=".251" x="219" y="177"><svg xmlns="http://www.w3.org/2000/svg" xmlns:xlink="http://www.w3.org/1999/xlink" width="11" height="6"><path paint-order="stroke fill markers" fill-rule="evenodd" d="M10.383 5.02c-4.36.973-10.145.299-10.145.299L4.843.003c.206.168.393.337.617.524 1.536 1.347 3.276 2.882 4.923 4.492z"/></svg></svg><svg width="22" height="13" xmlns="http://www.w3.org/2000/svg" xmlns:xlink="http://www.w3.org/1999/xlink" xmlns:svgjs="http://svgjs.com/svgjs" fill="#19233d" opacity=".078" x="214" y="194"><svg xmlns="http://www.w3.org/2000/svg" xmlns:xlink="http://www.w3.org/1999/xlink" width="22" height="13"><path paint-order="stroke fill markers" fill-rule="evenodd" d="M21.448.56c-1.104 1.947-3.743 3.164-6.85 4.605-2.678 1.236-3.67 1.199-6.103 2.34-3.145 1.48-5.39 3.463-6.907 5.054-.3-.43-.6-.842-.917-1.272C2.58 9.358 11.92.374 21.448.56z"/></svg></svg></svg></svg><svg width="23" height="22" xmlns="http://www.w3.org/2000/svg" xmlns:xlink="http://www.w3.org/1999/xlink" xmlns:svgjs="http://svgjs.com/svgjs" viewBox="170 184 23 22" x="170" y="184"><svg width="23" height="22" xmlns="http://www.w3.org/2000/svg" xmlns:xlink="http://www.w3.org/1999/xlink" xmlns:svgjs="http://svgjs.com/svgjs" fill="#19233d" x="170" y="184"><svg xmlns="http://www.w3.org/2000/svg" xmlns:xlink="http://www.w3.org/1999/xlink" width="23" height="22"><path paint-order="stroke fill markers" fill-rule="evenodd" d="M22.994 21.043s-12.223-4.979-12.616-5.147c-2.115-.861-4.23-1.704-6.345-2.565-.918-.374-1.816-.73-2.734-1.104C1.037 8.408.757 4.608.495.79l14.769 1.179h.037l-.618 13.14 8.274 4.792.037 1.142z"/></svg></svg><svg width="3" height="5" xmlns="http://www.w3.org/2000/svg" xmlns:xlink="http://www.w3.org/1999/xlink" xmlns:svgjs="http://svgjs.com/svgjs" fill="#e6e3f4" x="175" y="189"><svg xmlns="http://www.w3.org/2000/svg" xmlns:xlink="http://www.w3.org/1999/xlink" width="3" height="5"><path paint-order="stroke fill markers" fill-rule="evenodd" d="M1.428 4.4C.714 4.4.137 3.63.137 2.678S.714.956 1.428.956c.715 0 1.292.77 1.292 1.722S2.143 4.4 1.428 4.4z"/></svg></svg><svg width="19" height="21" xmlns="http://www.w3.org/2000/svg" xmlns:xlink="http://www.w3.org/1999/xlink" xmlns:svgjs="http://svgjs.com/svgjs" fill="#fff" opacity=".051" x="174" y="185"><svg xmlns="http://www.w3.org/2000/svg" xmlns:xlink="http://www.w3.org/1999/xlink" width="19" height="21"><path paint-order="stroke fill markers" fill-rule="evenodd" d="M18.994 20.043S6.771 15.064 6.378 14.896c-2.115-.861-4.23-1.704-6.345-2.565L11.263.97h.038l-.618 13.14 8.274 4.792.037 1.142z"/></svg></svg></svg><svg width="4" height="3" xmlns="http://www.w3.org/2000/svg" xmlns:xlink="http://www.w3.org/1999/xlink" xmlns:svgjs="http://svgjs.com/svgjs" viewBox="170 191 4 3" x="170" y="191"><svg width="4" height="1" xmlns="http://www.w3.org/2000/svg" xmlns:xlink="http://www.w3.org/1999/xlink" xmlns:svgjs="http://svgjs.com/svgjs" fill="#ff7d93" x="170" y="191"><svg xmlns="http://www.w3.org/2000/svg" xmlns:xlink="http://www.w3.org/1999/xlink" width="4" height="1"><path paint-order="stroke fill markers" fill-rule="evenodd" d="M.944.397c.45-.13.823-.206 1.086-.262.674-.13.917-.112.992.019 0 0 .074.094.037.187-.056.206-.524.169-1.01.262C1.766.66 1.392.753.98.96.963.94.813.809.831.622.87.51.926.435.945.397z"/></svg></svg><svg width="4" height="2" xmlns="http://www.w3.org/2000/svg" xmlns:xlink="http://www.w3.org/1999/xlink" xmlns:svgjs="http://svgjs.com/svgjs" fill="#ff7d93" x="170" y="191"><svg xmlns="http://www.w3.org/2000/svg" xmlns:xlink="http://www.w3.org/1999/xlink" width="4" height="2"><path paint-order="stroke fill markers" fill-rule="evenodd" d="M1 1.202c.543-.13.973-.262 1.254-.355.45-.132.786-.263.936-.094a.314.314 0 0 1 .075.28c-.056.225-.43.281-.824.375-.337.075-.805.187-1.385.374-.019-.018-.187-.13-.168-.318A.267.267 0 0 1 1 1.202z"/></svg></svg><svg width="4" height="2" xmlns="http://www.w3.org/2000/svg" xmlns:xlink="http://www.w3.org/1999/xlink" xmlns:svgjs="http://svgjs.com/svgjs" fill="#ff7d93" x="170" y="192"><svg xmlns="http://www.w3.org/2000/svg" xmlns:xlink="http://www.w3.org/1999/xlink" width="4" height="2"><path paint-order="stroke fill markers" fill-rule="evenodd" d="M1.037.726C1.655.596 2.123.483 2.441.408c.375-.093.712-.187.843-.037a.263.263 0 0 1 .018.262c-.075.224-.43.3-.767.374-.318.056-.805.169-1.441.3-.019-.02-.15-.094-.169-.262-.037-.188.094-.319.112-.319z"/></svg></svg><svg width="2" height="1" xmlns="http://www.w3.org/2000/svg" xmlns:xlink="http://www.w3.org/1999/xlink" xmlns:svgjs="http://svgjs.com/svgjs" fill="#ff7d93" x="171" y="193"><svg xmlns="http://www.w3.org/2000/svg" xmlns:xlink="http://www.w3.org/1999/xlink" width="2" height="1"><path paint-order="stroke fill markers" fill-rule="evenodd" d="M.094.513C.73.363 1.142.25 1.44.138c.131-.037.412-.13.487-.037.056.056.019.168.019.168-.056.15-.262.206-.356.225C1.273.569.767.718.131.906.112.886.037.83.02.7c0-.094.075-.187.075-.187z"/></svg></svg></svg><svg width="24" height="31" xmlns="http://www.w3.org/2000/svg" xmlns:xlink="http://www.w3.org/1999/xlink" xmlns:svgjs="http://svgjs.com/svgjs" viewBox="203 153 24 31" x="203" y="153"><svg width="11" height="12" xmlns="http://www.w3.org/2000/svg" xmlns:xlink="http://www.w3.org/1999/xlink" xmlns:svgjs="http://svgjs.com/svgjs" viewBox="205 167 11 12" x="205" y="167"><svg width="11" height="12" xmlns="http://www.w3.org/2000/svg" xmlns:xlink="http://www.w3.org/1999/xlink" xmlns:svgjs="http://svgjs.com/svgjs" fill="#ff7d93" x="205" y="167"><svg xmlns="http://www.w3.org/2000/svg" xmlns:xlink="http://www.w3.org/1999/xlink" width="11" height="12"><path paint-order="stroke fill markers" fill-rule="evenodd" d="M10.663 5.885c-.131.561-.917 3.8-3.8 5.147-.618.3-1.984.936-3.538.43C1.285 10.79.573 8.712.48 8.43a3.31 3.31 0 0 0 1.329-.917c.374-.412.599-.88.711-1.348.28-1.01.113-2.078-.056-2.714a6.46 6.46 0 0 0-.187-.599C4.11 2.216 5.946 1.56 7.78.924c.056.58.206 1.629.861 2.752a6.587 6.587 0 0 0 2.022 2.209z"/></svg></svg><svg width="4" height="5" xmlns="http://www.w3.org/2000/svg" xmlns:xlink="http://www.w3.org/1999/xlink" xmlns:svgjs="http://svgjs.com/svgjs" fill="#19233d" opacity=".251" x="207" y="169"><svg xmlns="http://www.w3.org/2000/svg" xmlns:xlink="http://www.w3.org/1999/xlink" width="4" height="5"><path paint-order="stroke fill markers" fill-rule="evenodd" d="M3.234.927C3.047 2.368 1.55 3.529.54 4.165c.28-1.01.112-2.077-.056-2.714L3.234.927z"/></svg></svg></svg><svg width="12" height="16" xmlns="http://www.w3.org/2000/svg" xmlns:xlink="http://www.w3.org/1999/xlink" xmlns:svgjs="http://svgjs.com/svgjs" fill="#ff7d93" x="203" y="156"><svg xmlns="http://www.w3.org/2000/svg" xmlns:xlink="http://www.w3.org/1999/xlink" width="12" height="16"><path paint-order="stroke fill markers" fill-rule="evenodd" d="M.776 6.14C1.45 3.276 3.716 0 6.224.056c.898.02 1.553.468 2.021.787 2.302 1.572 3.388 4.904 2.845 7.712-.88 4.548-6.214 7.899-8.573 6.701C.514 14.246.252 9.696.607 7.057c.038-.243.076-.524.17-.917z"/></svg></svg><svg width="5" height="2" xmlns="http://www.w3.org/2000/svg" xmlns:xlink="http://www.w3.org/1999/xlink" xmlns:svgjs="http://svgjs.com/svgjs" viewBox="203 163 5 2" x="203" y="163"><svg width="1" height="2" xmlns="http://www.w3.org/2000/svg" xmlns:xlink="http://www.w3.org/1999/xlink" xmlns:svgjs="http://svgjs.com/svgjs" x="207" y="163"><svg xmlns="http://www.w3.org/2000/svg" xmlns:xlink="http://www.w3.org/1999/xlink" width="1" height="2"><path paint-order="stroke fill markers" fill-rule="evenodd" d="M.502 1.087A.374.374 0 1 1 .5.338a.374.374 0 0 1 .002.749z"/></svg></svg><svg width="2" height="2" xmlns="http://www.w3.org/2000/svg" xmlns:xlink="http://www.w3.org/1999/xlink" xmlns:svgjs="http://svgjs.com/svgjs" x="203" y="163"><svg xmlns="http://www.w3.org/2000/svg" xmlns:xlink="http://www.w3.org/1999/xlink" width="2" height="2"><path paint-order="stroke fill markers" fill-rule="evenodd" d="M1.32 1.255a.374.374 0 1 1-.001-.748.374.374 0 0 1 0 .748z"/></svg></svg></svg><svg width="3" height="3" xmlns="http://www.w3.org/2000/svg" xmlns:xlink="http://www.w3.org/1999/xlink" xmlns:svgjs="http://svgjs.com/svgjs" x="205" y="167"><svg xmlns="http://www.w3.org/2000/svg" xmlns:xlink="http://www.w3.org/1999/xlink" width="3" height="3"><path paint-order="stroke fill markers" fill-rule="evenodd" d="M1.079 2.066c-.244 0-.45-.056-.562-.094-.056-.018-.093-.093-.074-.15a.127.127 0 0 1 .15-.074c.149.056.523.15.935 0 .487-.188.711-.6.749-.712.018-.056.093-.075.15-.056.056.019.074.094.056.15-.057.15-.319.618-.88.824a1.394 1.394 0 0 1-.524.112z"/></svg></svg><svg width="6" height="2" xmlns="http://www.w3.org/2000/svg" xmlns:xlink="http://www.w3.org/1999/xlink" xmlns:svgjs="http://svgjs.com/svgjs" viewBox="203 161 6 2" x="203" y="161"><svg width="3" height="2" xmlns="http://www.w3.org/2000/svg" xmlns:xlink="http://www.w3.org/1999/xlink" xmlns:svgjs="http://svgjs.com/svgjs" fill="#002544" x="206" y="161"><svg xmlns="http://www.w3.org/2000/svg" xmlns:xlink="http://www.w3.org/1999/xlink" width="3" height="2"><path paint-order="stroke fill markers" fill-rule="evenodd" d="M2.69.983c-.016.092-.416.102-.896.024C1.314.927.938.79.953.697c.015-.091.415-.102.896-.023.48.079.856.217.84.309z"/></svg></svg><svg width="3" height="2" xmlns="http://www.w3.org/2000/svg" xmlns:xlink="http://www.w3.org/1999/xlink" xmlns:svgjs="http://svgjs.com/svgjs" fill="#002544" x="203" y="161"><svg xmlns="http://www.w3.org/2000/svg" xmlns:xlink="http://www.w3.org/1999/xlink" width="3" height="2"><path paint-order="stroke fill markers" fill-rule="evenodd" d="M1.38 1.263c-.462.151-.859.202-.888.114-.029-.09.322-.283.784-.435.462-.151.86-.202.888-.114.03.089-.32.283-.783.435z"/></svg></svg></svg><svg width="2" height="4" xmlns="http://www.w3.org/2000/svg" xmlns:xlink="http://www.w3.org/1999/xlink" xmlns:svgjs="http://svgjs.com/svgjs" fill="#640042" x="204" y="163"><svg xmlns="http://www.w3.org/2000/svg" xmlns:xlink="http://www.w3.org/1999/xlink" width="2" height="4"><path paint-order="stroke fill markers" fill-rule="evenodd" d="M1.835.88C1.35 1.705.975 2.304.768 2.64c-.43.693-.58.974-.467 1.161.205.337 1.31.019 1.628-.094-.037-.936-.075-1.871-.094-2.826z"/></svg></svg><svg width="24" height="31" xmlns="http://www.w3.org/2000/svg" xmlns:xlink="http://www.w3.org/1999/xlink" xmlns:svgjs="http://svgjs.com/svgjs" viewBox="203 153 24 31" x="203" y="153"><svg width="24" height="31" xmlns="http://www.w3.org/2000/svg" xmlns:xlink="http://www.w3.org/1999/xlink" xmlns:svgjs="http://svgjs.com/svgjs" fill="#19233d" x="203" y="153"><svg xmlns="http://www.w3.org/2000/svg" xmlns:xlink="http://www.w3.org/1999/xlink" width="24" height="31"><path paint-order="stroke fill markers" fill-rule="evenodd" d="M21.667 27.428c-1.685 2.359-4.924 4.1-7.862 3.332-4.456-1.18-5.597-7.431-5.747-8.367-.562-3.463.73-4.905.618-10.67a34.095 34.095 0 0 0-.45-5.035c-.318.056-.767.112-1.31.187-2.359.3-3.987.524-4.998.43C1.301 7.25.908 7.1.683 6.782c-.637-.898.3-2.676.936-3.5.748-.992 1.666-1.423 2.227-1.685C4.126 1.466 6.373.454 8.9.96c.262.056.525.112.786.206 4.044 1.31 5.597 6.046 5.897 6.963 1.479 4.568-.318 7.675 1.666 9.135 1.46 1.085 2.939-.28 4.436.805 2.04 1.479 2.19 6.233-.018 9.36z"/></svg></svg><svg width="9" height="8" xmlns="http://www.w3.org/2000/svg" xmlns:xlink="http://www.w3.org/1999/xlink" xmlns:svgjs="http://svgjs.com/svgjs" fill="#fff" opacity=".122" x="203" y="153"><svg xmlns="http://www.w3.org/2000/svg" xmlns:xlink="http://www.w3.org/1999/xlink" width="9" height="8"><path paint-order="stroke fill markers" fill-rule="evenodd" d="M1.9 7.306C1.282 7.249.889 7.1.664 6.78c-.636-.898.3-2.676.936-3.5.749-.992 1.666-1.423 2.227-1.685.281-.13 2.528-1.142 5.055-.636C1.544 2.663 1.712 6.07 1.9 7.306z"/></svg></svg></svg><svg width="4" height="5" xmlns="http://www.w3.org/2000/svg" xmlns:xlink="http://www.w3.org/1999/xlink" xmlns:svgjs="http://svgjs.com/svgjs" fill="#ff7d93" x="210" y="162"><svg xmlns="http://www.w3.org/2000/svg" xmlns:xlink="http://www.w3.org/1999/xlink" width="4" height="5"><path paint-order="stroke fill markers" fill-rule="evenodd" d="M1.77 4.22A1.683 1.683 0 0 1 .084 2.537a1.683 1.683 0 1 1 3.37 0c0 .932-.754 1.685-1.686 1.685z"/></svg></svg><svg width="2" height="3" xmlns="http://www.w3.org/2000/svg" xmlns:xlink="http://www.w3.org/1999/xlink" xmlns:svgjs="http://svgjs.com/svgjs" fill="#fff" x="211" y="164"><svg xmlns="http://www.w3.org/2000/svg" xmlns:xlink="http://www.w3.org/1999/xlink" width="2" height="3"><path paint-order="stroke fill markers" fill-rule="evenodd" d="M1.069.124a.461.461 0 0 1 .337.225c.15.243.037.543-.15 1.03-.094.261-.262.692-.487 1.328C.695 2.69.601 2.67.526 2.632c.13-.468.243-.936.374-1.385-.037 0-.093 0-.13-.019C.487 1.154.338.835.413.536a.623.623 0 0 1 .655-.412z"/></svg></svg></svg></svg><svg width="47" height="40" xmlns="http://www.w3.org/2000/svg" xmlns:xlink="http://www.w3.org/1999/xlink" xmlns:svgjs="http://svgjs.com/svgjs" fill="#19233d" opacity=".839" x="213" y="229"><svg xmlns="http://www.w3.org/2000/svg" xmlns:xlink="http://www.w3.org/1999/xlink" width="47" height="40"><path paint-order="stroke fill markers" fill-rule="evenodd" d="M44.836 35.063L35.046.565h-.019-.842-21.208-.843-.018L2.644 33.959c-.973.168-1.722 1.01-1.722 2.021 0 1.142.917 2.06 2.06 2.06a2.053 2.053 0 0 0 2.058-2.06c0-.71-.355-1.329-.898-1.703l9.06-31.897h20.777l9.36 32.945a2.053 2.053 0 0 0 1.085 3.8c1.142 0 2.06-.917 2.06-2.059a2.14 2.14 0 0 0-1.648-2.003z"/></svg></svg><svg width="14" height="8" xmlns="http://www.w3.org/2000/svg" xmlns:xlink="http://www.w3.org/1999/xlink" xmlns:svgjs="http://svgjs.com/svgjs" viewBox="227 222 14 8" x="227" y="222"><svg width="14" height="8" xmlns="http://www.w3.org/2000/svg" xmlns:xlink="http://www.w3.org/1999/xlink" xmlns:svgjs="http://svgjs.com/svgjs" fill="#f5cb5c" x="227" y="222"><svg xmlns="http://www.w3.org/2000/svg" xmlns:xlink="http://www.w3.org/1999/xlink" width="14" height="8"><path paint-order="stroke fill markers" fill-rule="evenodd" d="M13.334 1.725c-.187-.431-.861-.58-2.209-.469.075-.336.131-.617.169-.804-.468-.02-1.385-.038-2.49-.057C5.884.358 1.598.377.344.452c.224 1.067 1.31 6.14 3.406 6.476.038 0 .094.019.15.019v.618h3.856v-.618c.075 0 .13-.019.15-.019.71-.112 1.31-.786 1.796-1.666 3.557-2.283 3.8-3.088 3.632-3.537zm-3.257 2.807c.412-.936.73-2.003.936-2.826 1.685-.169 1.89.13 1.928.187.056.13 0 .711-2.864 2.64z"/></svg></svg><svg width="8" height="8" xmlns="http://www.w3.org/2000/svg" xmlns:xlink="http://www.w3.org/1999/xlink" xmlns:svgjs="http://svgjs.com/svgjs" fill="#153e5c" opacity=".239" x="233" y="222"><svg xmlns="http://www.w3.org/2000/svg" width="8" height="8"><path paint-order="stroke fill markers" fill-rule="evenodd" d="M7.334 1.725c-.187-.431-.861-.58-2.209-.469C5.2.92 5.256.64 5.294.452a138.85 138.85 0 0 0-2.49-.057L.202 7.565h1.535v-.618c.075 0 .131-.019.15-.019.711-.112 1.31-.786 1.797-1.666 3.575-2.283 3.819-3.088 3.65-3.537zM4.077 4.532c.412-.936.73-2.003.936-2.826 1.685-.169 1.89.13 1.928.187.056.131 0 .711-2.864 2.64z"/></svg></svg></svg></svg></svg></svg>