<svg width="212" height="213" xmlns="http://www.w3.org/2000/svg" xmlns:xlink="http://www.w3.org/1999/xlink" xmlns:svgjs="http://svgjs.com/svgjs" viewBox="56 59 212 213"><svg width="212" height="213" xmlns="http://www.w3.org/2000/svg" xmlns:xlink="http://www.w3.org/1999/xlink" xmlns:svgjs="http://svgjs.com/svgjs" viewBox="56 59 212 213" x="56" y="59"><svg width="212" height="213" xmlns="http://www.w3.org/2000/svg" xmlns:xlink="http://www.w3.org/1999/xlink" xmlns:svgjs="http://svgjs.com/svgjs" viewBox="56 59 212 213" x="56" y="59"><svg width="139" height="201" xmlns="http://www.w3.org/2000/svg" xmlns:xlink="http://www.w3.org/1999/xlink" xmlns:svgjs="http://svgjs.com/svgjs" viewBox="119 64 139 201" x="119" y="64"><svg width="13" height="12" xmlns="http://www.w3.org/2000/svg" xmlns:xlink="http://www.w3.org/1999/xlink" xmlns:svgjs="http://svgjs.com/svgjs" fill="#ebdede" x="245" y="253"><svg xmlns="http://www.w3.org/2000/svg" xmlns:xlink="http://www.w3.org/1999/xlink" width="13" height="12"><path paint-order="stroke fill markers" fill-rule="evenodd" d="M1.371.154l10.816.884-.885 10.798-10.797-.867L1.371.154z"/></svg></svg><svg width="10" height="11" xmlns="http://www.w3.org/2000/svg" xmlns:xlink="http://www.w3.org/1999/xlink" xmlns:svgjs="http://svgjs.com/svgjs" fill="#ebdede" x="119" y="64"><svg xmlns="http://www.w3.org/2000/svg" xmlns:xlink="http://www.w3.org/1999/xlink" width="10" height="11"><path paint-order="stroke fill markers" fill-rule="evenodd" d="M2.594.79L9.8 2.8 7.79 10.003.586 7.995 2.594.791z"/></svg></svg></svg><svg width="185" height="65" xmlns="http://www.w3.org/2000/svg" xmlns:xlink="http://www.w3.org/1999/xlink" xmlns:svgjs="http://svgjs.com/svgjs" viewBox="57 154 185 65" x="57" y="154"><svg width="8" height="8" xmlns="http://www.w3.org/2000/svg" xmlns:xlink="http://www.w3.org/1999/xlink" xmlns:svgjs="http://svgjs.com/svgjs" fill="#f4dba9" x="57" y="211"><svg xmlns="http://www.w3.org/2000/svg" xmlns:xlink="http://www.w3.org/1999/xlink" width="8" height="8"><path paint-order="stroke fill markers" fill-rule="evenodd" d="M3.938 7.311A3.369 3.369 0 0 1 .566 3.94 3.369 3.369 0 0 1 3.938.568 3.369 3.369 0 0 1 7.31 3.939a3.369 3.369 0 0 1-3.372 3.372z"/></svg></svg><svg width="11" height="11" xmlns="http://www.w3.org/2000/svg" xmlns:xlink="http://www.w3.org/1999/xlink" xmlns:svgjs="http://svgjs.com/svgjs" fill="#f4dba9" x="231" y="154"><svg xmlns="http://www.w3.org/2000/svg" xmlns:xlink="http://www.w3.org/1999/xlink" width="11" height="11"><path paint-order="stroke fill markers" fill-rule="evenodd" d="M5.753 10.362A4.823 4.823 0 0 1 .926 5.534 4.823 4.823 0 0 1 5.753.707a4.823 4.823 0 0 1 4.828 4.827 4.823 4.823 0 0 1-4.828 4.828z"/></svg></svg></svg><svg width="116" height="108" xmlns="http://www.w3.org/2000/svg" xmlns:xlink="http://www.w3.org/1999/xlink" xmlns:svgjs="http://svgjs.com/svgjs" viewBox="152 161 116 108" x="152" y="161"><svg width="116" height="108" xmlns="http://www.w3.org/2000/svg" xmlns:xlink="http://www.w3.org/1999/xlink" xmlns:svgjs="http://svgjs.com/svgjs" fill="#eeedee" x="152" y="161"><svg xmlns="http://www.w3.org/2000/svg" xmlns:xlink="http://www.w3.org/1999/xlink" width="116" height="108"><path paint-order="stroke fill markers" fill-rule="evenodd" d="M108.319 60.646c-16.583 36.022-66.424 56.382-92.827 42.545C8.49 99.524-.741 91.454.254 83.973c.7-5.233 5.97-6.32 18.96-15.79 11.608-8.458 20.894-15.386 26.588-26.773 2.027-4.035 3.15-8.088 5.417-16.214 4.68-16.749 3.39-21.834 7.48-24.137 5.51-3.114 10.466 4.661 25.593 6.928 13.47 2.026 17.615-2.93 22.995.22 10.226 6.007 10.134 32.669 1.032 52.44z"/></svg></svg><svg width="23" height="19" xmlns="http://www.w3.org/2000/svg" xmlns:xlink="http://www.w3.org/1999/xlink" xmlns:svgjs="http://svgjs.com/svgjs" fill="#bdd3de" opacity=".42" x="154" y="248"><svg xmlns="http://www.w3.org/2000/svg" xmlns:xlink="http://www.w3.org/1999/xlink" width="23" height="19"><path paint-order="stroke fill markers" fill-rule="evenodd" d="M22.612 12.413c0 2.414-.7 4.662-1.916 6.56-2.543-.7-4.956-1.622-7.204-2.8-4.46-2.34-9.82-6.468-12.88-11.093C2.843 2.114 6.399.179 10.398.179c6.761.037 12.215 5.49 12.215 12.234z"/></svg></svg><svg width="32" height="38" xmlns="http://www.w3.org/2000/svg" xmlns:xlink="http://www.w3.org/1999/xlink" xmlns:svgjs="http://svgjs.com/svgjs" fill="#bdd3de" opacity=".42" x="230" y="214"><svg xmlns="http://www.w3.org/2000/svg" xmlns:xlink="http://www.w3.org/1999/xlink" width="32" height="38"><path paint-order="stroke fill markers" fill-rule="evenodd" d="M31.517 4.883c-.387.94-.774 1.86-1.198 2.763-5.472 11.866-14.538 22.037-25.206 29.85-3.059-3.87-4.92-8.937-4.92-14.501C.193 10.815 9.13.958 20.148.958c4.22 0 8.144 1.437 11.369 3.925z"/></svg></svg><svg width="45" height="43" xmlns="http://www.w3.org/2000/svg" xmlns:xlink="http://www.w3.org/1999/xlink" xmlns:svgjs="http://svgjs.com/svgjs" fill="#bdd3de" opacity=".42" x="200" y="161"><svg xmlns="http://www.w3.org/2000/svg" xmlns:xlink="http://www.w3.org/1999/xlink" width="45" height="43"><path paint-order="stroke fill markers" fill-rule="evenodd" d="M44.62 16.094c-.405 14.85-12.768 26.57-27.62 26.164-6.448-.166-12.307-2.617-16.858-6.523.921-2.708 1.824-5.97 3.095-10.52 4.68-16.75 3.39-21.835 7.481-24.138 5.51-3.114 10.465 4.662 25.574 6.946 2.875.424 5.325.553 7.444.498.645 2.395.94 4.938.885 7.573z"/></svg></svg><svg width="116" height="108" xmlns="http://www.w3.org/2000/svg" xmlns:xlink="http://www.w3.org/1999/xlink" xmlns:svgjs="http://svgjs.com/svgjs" fill="none" x="152" y="161"><svg xmlns="http://www.w3.org/2000/svg" xmlns:xlink="http://www.w3.org/1999/xlink" width="116" height="108"><path paint-order="stroke fill markers" d="M109.517 57.883c-.387.94-.774 1.86-1.198 2.763-5.472 11.866-14.538 22.037-25.206 29.85-18.941 13.855-42.858 20.267-60.398 15.495-2.543-.7-4.957-1.621-7.205-2.8-4.459-2.34-9.82-6.468-12.88-11.093C.9 89.464-.095 86.681.274 83.973c.7-5.233 5.97-6.32 18.96-15.79C30.84 59.724 40.126 52.796 45.82 41.41c.885-1.787 1.603-3.556 2.322-5.693.921-2.709 1.824-5.97 3.095-10.521 4.68-16.749 3.39-21.834 7.481-24.137 5.51-3.114 10.465 4.661 25.574 6.946 2.875.424 5.325.553 7.444.498 7.85-.203 11.332-2.764 15.551-.277 9.747 5.73 10.116 30.255 2.23 49.657z"/></svg></svg></svg><svg width="137" height="128" xmlns="http://www.w3.org/2000/svg" xmlns:xlink="http://www.w3.org/1999/xlink" xmlns:svgjs="http://svgjs.com/svgjs" fill="#ebdede" x="62" y="144"><svg xmlns="http://www.w3.org/2000/svg" xmlns:xlink="http://www.w3.org/1999/xlink" width="137" height="128"><path paint-order="stroke fill markers" fill-rule="evenodd" d="M121.854 53.251c-21.43 26.551-44.166 22.442-51.886 43.023-3.943 10.558 1.179 14.814-3.998 21.576-11.848 15.496-54.06 13.138-63.716-6.32-4.809-9.673-.294-21.078 4.754-33.847 6.928-17.522 17.136-28.522 23.898-35.671 0 0 24.505-25.888 58.98-36.943 1.252-.406 7.388-2.34 15.753-3.372C117.874.167 127.602-1.05 132.8 4.35c5.656 5.878 3.15 16.693 1.51 23.842-2.93 12.585-9.36 21.227-12.455 25.06z"/></svg></svg><svg width="208" height="141" xmlns="http://www.w3.org/2000/svg" xmlns:xlink="http://www.w3.org/1999/xlink" xmlns:svgjs="http://svgjs.com/svgjs" viewBox="56 59 208 141" x="56" y="59"><svg width="208" height="141" xmlns="http://www.w3.org/2000/svg" xmlns:xlink="http://www.w3.org/1999/xlink" xmlns:svgjs="http://svgjs.com/svgjs" fill="#eeedee" x="56" y="59"><svg xmlns="http://www.w3.org/2000/svg" xmlns:xlink="http://www.w3.org/1999/xlink" width="208" height="141"><path paint-order="stroke fill markers" fill-rule="evenodd" d="M206.29 37.556c.148.737.369 1.953.609 3.52 1.013 6.559 3.169 34.897-7.647 45.29-10.3 9.912-25.998-2.654-62.425-5.013-14.132-.92-41.77-2.708-67.363 9.14-37.957 17.54-46.82 53.691-59.275 49.711C-.092 136.924-.184 110.337.055 87.544c.369-34.603.663-62.867 16.233-70.68 19.273-9.673 45.566 20.36 62.978 8.31 9.95-6.89 5.398-19.199 14.758-23.621 16.768-7.941 42.213 26.477 57.746 18.13 7.812-4.182 4.588-14.61 13.395-18.572 10.042-4.514 25.372 5.49 33.22 16.27 1.107 1.51 5.584 7.885 7.905 20.175z"/></svg></svg><svg width="208" height="137" xmlns="http://www.w3.org/2000/svg" xmlns:xlink="http://www.w3.org/1999/xlink" xmlns:svgjs="http://svgjs.com/svgjs" fill="#bdd3de" opacity=".42" x="56" y="59"><svg xmlns="http://www.w3.org/2000/svg" xmlns:xlink="http://www.w3.org/1999/xlink" width="208" height="137"><path paint-order="stroke fill markers" fill-rule="evenodd" d="M207.728 51.486a229.187 229.187 0 0 1-10.945 18.573c-3.777 5.767-7.72 11.46-12.142 16.767-.719.847-1.438 1.713-2.193 2.56 1.124.204 2.211.37 3.243.498a93.668 93.668 0 0 0 2.47-3.04c4.495-5.656 8.604-11.626 12.491-17.707a227.635 227.635 0 0 0 7.094-11.902 118.6 118.6 0 0 0-.018-5.75zm-12.124-23.437a118.562 118.562 0 0 1 4.661-7.757 34.441 34.441 0 0 0-1.603-2.543c-2.137 3.114-4.072 6.375-5.877 9.692-7.039 12.99-11.848 27.25-13.93 41.88-.884 6.247-1.732 12.77-1.179 19.09.976.22 1.916.423 2.82.607-.038-.387-.075-.773-.093-1.142-.497-6.946.46-14.188 1.621-21.023a123.718 123.718 0 0 1 13.58-38.804zm-15.772 4.625c2.432-7.168 4.754-14.464 6.356-21.871.313-1.474.627-2.985.885-4.496a55.983 55.983 0 0 0-2.561-1.695c-.627 4.274-1.64 8.512-2.801 12.676a274.385 274.385 0 0 1-6.467 20.102c-4.717 12.972-10.521 25.593-17.873 37.293a136.928 136.928 0 0 1-2.635 4.017c-.516-3.132-.847-6.301-1.087-9.47-.553-7.076-.534-14.188-.24-21.282.295-7.241.72-14.5 1.512-21.705.478-4.256 1.105-8.512 1.99-12.695-.83 2.008-1.917 3.85-3.778 5.27-.57 3.556-.976 7.149-1.326 10.723-1.438 15.09-2.211 30.586-.35 45.658.276 2.248.607 4.478 1.05 6.689-.258.35-.498.7-.756 1.05.332.055.682.11 1.014.166.682.11 1.363.221 2.027.331.294.056.59.111.902.148-.073-.35-.165-.719-.24-1.069 2.101-2.966 4.091-6.025 5.97-9.139 7.684-12.769 13.599-26.588 18.408-40.701zm-51.26 6.006c-2.506 13.967-5.749 27.823-10.023 41.365-.074.203-.13.424-.203.627h2.893c.313-.977.608-1.972.921-2.948 4.386-14.52 7.665-29.37 10.116-44.332.866-5.325 1.64-10.687 2.064-16.085a60.058 60.058 0 0 1-2.599-1.419c-.479 7.683-1.842 15.385-3.169 22.792zm-17.91-35.266a41.714 41.714 0 0 0-2.505-1.106c-.148.35-.295.7-.442 1.07-1.659 4.016-2.93 8.198-3.943 12.436-.48-2.469-1.161-4.882-2.12-7.186-1.215-2.985-2.984-5.822-5.38-7.867-.773.184-1.51.46-2.248.81-.257.13-.497.24-.718.369 4.182 2.635 6.172 7.85 7.297 12.456.81 3.316 1.234 6.706 1.418 10.134a150.486 150.486 0 0 0-2.119 22.073 164.74 164.74 0 0 0 .056 8.531C98.797 62.467 97.175 69.71 95 76.73a100.178 100.178 0 0 1-2.192 6.375c1.068-.203 2.119-.406 3.169-.571a124.31 124.31 0 0 0 2.708-8.568 154.83 154.83 0 0 0 2.027-8.273c.13 1.253.295 2.524.46 3.777.535 4.054 1.254 8.089 2.249 12.05.94-.092 1.86-.184 2.782-.276-2.248-8.531-3.298-17.449-3.538-26.33.147-.94.277-1.88.406-2.82 1.05-7.572 1.787-15.182 1.787-22.828 0-1.511-.019-3.04-.092-4.588.147-.903.331-1.806.497-2.69 1.234-6.32 2.819-12.658 5.399-18.573zm-45.05 61.283c-.57-7.057-.644-14.15-.276-21.226.277-5.215.793-10.41 1.806-15.533a28.817 28.817 0 0 1-2.727-.424c-1.18 6.026-1.695 12.18-1.935 18.297-.294 7.702-.055 15.403.774 23.068.811 7.518 2.137 14.999 4.035 22.314.019.092.037.184.074.276.7-.35 1.419-.682 2.137-1.013.13-.056.277-.13.406-.185-.35-1.4-.682-2.8-1.014-4.2a146.38 146.38 0 0 1-3.28-21.374zM50.21 50.786c-2.322-10.834-5.307-21.705-9.397-32.079-1.179-.46-2.359-.903-3.52-1.308C42.139 29.08 45.53 41.48 48.036 53.826c2.874 14.095 4.33 28.412 4.477 42.784.019 1.363.019 2.727.019 4.09.902-.682 1.824-1.363 2.763-2.027 0-.847 0-1.695-.018-2.542-.184-15.22-1.86-30.44-5.067-45.345zM23.345 76.802c-5.436-12.953-9.12-26.661-11.756-40.443-.866-4.57-1.603-9.176-2.008-13.801a27.855 27.855 0 0 0-2.377 3.814c.46 3.759 1.087 7.48 1.806 11.184 2.837 14.796 6.946 29.463 13.064 43.263 2.984 6.725 6.485 13.23 10.52 19.384 2.488 3.777 5.233 7.499 8.384 10.797a97.04 97.04 0 0 1 1.953-1.972c-3.98-4.164-7.278-8.973-10.282-13.874a144.041 144.041 0 0 1-9.304-18.352zM3.943 57.492a67.852 67.852 0 0 0-2.801-4.016c-.11 1.4-.221 2.837-.313 4.311 1.16 1.714 2.23 3.501 3.243 5.307 6.633 11.976 10.41 25.63 13.303 38.951 2.045 9.434 3.298 19.218 2.727 28.891C12.234 121.631 5.49 111.35.036 100.424c.02 2.082.056 4.164.111 6.19 5.473 10.06 12.05 19.568 19.605 28.155-.056.552-.13 1.105-.203 1.64.295-.277.571-.59.866-.903a74.235 74.235 0 0 0 1.86-2.064c.149-.166.278-.332.425-.497.958-11.498-.682-23.161-3.28-34.364-3.28-14.15-7.536-28.78-15.477-41.088z"/></svg></svg><svg width="208" height="141" xmlns="http://www.w3.org/2000/svg" xmlns:xlink="http://www.w3.org/1999/xlink" xmlns:svgjs="http://svgjs.com/svgjs" fill="none" x="56" y="59"><svg xmlns="http://www.w3.org/2000/svg" xmlns:xlink="http://www.w3.org/1999/xlink" width="208" height="141"><path paint-order="stroke fill markers" d="M207.746 57.253c-.24 10.502-2.1 22.958-8.494 29.112-3.63 3.501-7.923 4.201-13.58 3.538-1.031-.11-2.118-.295-3.242-.498-.627-.11-1.29-.24-1.953-.368-.903-.184-1.843-.387-2.82-.608-5.97-1.345-13.155-3.262-22-4.81-.294-.055-.589-.11-.902-.147-.664-.11-1.345-.22-2.027-.331-.332-.056-.664-.11-1.014-.166a169.47 169.47 0 0 0-14.906-1.622c-4.164-.276-9.489-.608-15.587-.663h-2.893c-3.814.037-7.905.184-12.143.553-.921.074-1.842.166-2.782.276-2.432.258-4.92.59-7.425 1.014-1.05.165-2.12.368-3.17.57-7.554 1.456-15.33 3.741-22.94 7.205-.128.055-.276.13-.404.184-.719.332-1.438.682-2.138 1.014a89.349 89.349 0 0 0-12.05 7.186c-.94.663-1.86 1.345-2.764 2.027-3.52 2.671-6.688 5.49-9.563 8.328-.663.663-1.326 1.308-1.953 1.971-7.904 8.144-13.56 16.288-18.315 21.945-.147.166-.276.332-.423.498a42.742 42.742 0 0 1-1.861 2.063c-.295.313-.59.608-.866.903-3.243 3.224-6.173 4.809-9.342 3.796C2.727 137.827.645 123.179.147 106.615a344.525 344.525 0 0 1-.11-6.191c-.037-4.312 0-8.642.036-12.861.111-10.668.222-20.729.774-29.757.093-1.456.184-2.893.314-4.312.884-11.073 2.616-20.378 6.098-27.104a27.82 27.82 0 0 1 2.377-3.814c1.843-2.45 4.054-4.366 6.689-5.693 6.412-3.225 13.616-2.045 21.005.534 1.179.406 2.34.848 3.519 1.309 7.997 3.15 16.104 7.351 23.584 8.825.922.185 1.824.332 2.727.424 4.33.442 8.44-.221 12.124-2.764 9.655-6.725 5.62-18.554 14.004-23.271.24-.129.479-.258.718-.369.737-.35 1.474-.608 2.248-.81 3.667-.922 7.684-.148 11.884 1.547.83.332 1.659.7 2.506 1.106 6.91 3.28 14.188 8.568 21.079 12.492a91 91 0 0 0 2.598 1.42c6.43 3.334 12.455 5.066 17.449 2.394.497-.258.94-.552 1.345-.866 1.86-1.418 2.948-3.26 3.777-5.27 1.898-4.55 2.543-9.857 8.273-12.455 5.546-2.487 12.714-.553 19.347 3.501a43.83 43.83 0 0 1 2.56 1.695c4.386 3.096 8.384 7.039 11.333 11.074.073.092.165.221.257.368.388.535.94 1.382 1.603 2.543 1.825 3.206 4.44 8.844 6.025 17.265.148.737.369 1.953.609 3.519.295 1.935.7 5.73.829 10.41.055 1.788.055 3.74.018 5.749z"/></svg></svg></svg></svg></svg><svg width="103" height="160" xmlns="http://www.w3.org/2000/svg" xmlns:xlink="http://www.w3.org/1999/xlink" xmlns:svgjs="http://svgjs.com/svgjs" viewBox="115 108 103 160" x="115" y="108"><svg width="103" height="160" xmlns="http://www.w3.org/2000/svg" xmlns:xlink="http://www.w3.org/1999/xlink" xmlns:svgjs="http://svgjs.com/svgjs" viewBox="115 108 103 160" x="115" y="108"><svg width="63" height="85" xmlns="http://www.w3.org/2000/svg" xmlns:xlink="http://www.w3.org/1999/xlink" xmlns:svgjs="http://svgjs.com/svgjs" viewBox="115 174 63 85" x="115" y="174"><svg width="22" height="37" xmlns="http://www.w3.org/2000/svg" xmlns:xlink="http://www.w3.org/1999/xlink" xmlns:svgjs="http://svgjs.com/svgjs" viewBox="153 174 22 37" x="153" y="174"><svg width="22" height="37" xmlns="http://www.w3.org/2000/svg" xmlns:xlink="http://www.w3.org/1999/xlink" xmlns:svgjs="http://svgjs.com/svgjs" viewBox="153 174 22 37" x="153" y="174"><svg width="22" height="37" xmlns="http://www.w3.org/2000/svg" xmlns:xlink="http://www.w3.org/1999/xlink" xmlns:svgjs="http://svgjs.com/svgjs" fill="#081164" x="153" y="174"><svg xmlns="http://www.w3.org/2000/svg" xmlns:xlink="http://www.w3.org/1999/xlink" width="22" height="37"><path paint-order="stroke fill markers" fill-rule="evenodd" d="M21.66.717v5.159h-1.07v30.383H1.669V5.876H.599V.716h21.06z"/></svg></svg><svg width="5" height="6" xmlns="http://www.w3.org/2000/svg" xmlns:xlink="http://www.w3.org/1999/xlink" xmlns:svgjs="http://svgjs.com/svgjs" fill="#e4c9c2" x="156" y="182"><svg xmlns="http://www.w3.org/2000/svg" xmlns:xlink="http://www.w3.org/1999/xlink" width="5" height="6"><path paint-order="stroke fill markers" fill-rule="evenodd" d="M2.63 5.228A2.21 2.21 0 0 1 .417 3.017 2.21 2.21 0 0 1 2.629.806c1.223 0 2.211.988 2.211 2.21a2.209 2.209 0 0 1-2.21 2.212z"/></svg></svg><svg width="5" height="3" xmlns="http://www.w3.org/2000/svg" xmlns:xlink="http://www.w3.org/1999/xlink" xmlns:svgjs="http://svgjs.com/svgjs" fill="#e4c9c2" x="165" y="174"><svg xmlns="http://www.w3.org/2000/svg" xmlns:xlink="http://www.w3.org/1999/xlink" width="5" height="3"><path paint-order="stroke fill markers" fill-rule="evenodd" d="M4.96.717a2.206 2.206 0 0 1-2.21 2.21A2.218 2.218 0 0 1 .539.718H4.96z"/></svg></svg><svg width="5" height="5" xmlns="http://www.w3.org/2000/svg" xmlns:xlink="http://www.w3.org/1999/xlink" xmlns:svgjs="http://svgjs.com/svgjs" fill="#e4c9c2" x="169" y="185"><svg xmlns="http://www.w3.org/2000/svg" xmlns:xlink="http://www.w3.org/1999/xlink" width="5" height="5"><path paint-order="stroke fill markers" fill-rule="evenodd" d="M4.59.551v3.372a2.194 2.194 0 0 1-1.437.534 2.218 2.218 0 0 1-2.21-2.21c0-1.217.994-2.212 2.21-2.212a2.087 2.087 0 0 1 1.438.516z"/></svg></svg><svg width="3" height="6" xmlns="http://www.w3.org/2000/svg" xmlns:xlink="http://www.w3.org/1999/xlink" xmlns:svgjs="http://svgjs.com/svgjs" fill="#e4c9c2" x="154" y="204"><svg xmlns="http://www.w3.org/2000/svg" xmlns:xlink="http://www.w3.org/1999/xlink" width="3" height="6"><path paint-order="stroke fill markers" fill-rule="evenodd" d="M2.27 2.961a2.2 2.2 0 0 1-1.602 2.12V.823A2.239 2.239 0 0 1 2.271 2.96z"/></svg></svg><svg width="6" height="5" xmlns="http://www.w3.org/2000/svg" xmlns:xlink="http://www.w3.org/1999/xlink" xmlns:svgjs="http://svgjs.com/svgjs" fill="#e4c9c2" x="160" y="194"><svg xmlns="http://www.w3.org/2000/svg" xmlns:xlink="http://www.w3.org/1999/xlink" width="6" height="5"><path paint-order="stroke fill markers" fill-rule="evenodd" d="M3.18 4.873A2.209 2.209 0 0 1 .97 2.66c0-1.222.987-2.21 2.21-2.21a2.21 2.21 0 0 1 2.212 2.21A2.21 2.21 0 0 1 3.18 4.873z"/></svg></svg><svg width="3" height="2" xmlns="http://www.w3.org/2000/svg" xmlns:xlink="http://www.w3.org/1999/xlink" xmlns:svgjs="http://svgjs.com/svgjs" fill="#e4c9c2" x="153" y="174"><svg xmlns="http://www.w3.org/2000/svg" xmlns:xlink="http://www.w3.org/1999/xlink" width="3" height="2"><path paint-order="stroke fill markers" fill-rule="evenodd" d="M2.478.717a2.19 2.19 0 0 1-1.86 1.032V.717h1.86z"/></svg></svg><svg width="1" height="4" xmlns="http://www.w3.org/2000/svg" xmlns:xlink="http://www.w3.org/1999/xlink" xmlns:svgjs="http://svgjs.com/svgjs" fill="#e4c9c2" x="173" y="197"><svg xmlns="http://www.w3.org/2000/svg" xmlns:xlink="http://www.w3.org/1999/xlink" width="1" height="4"><path paint-order="stroke fill markers" fill-rule="evenodd" d="M.59.583v2.56a2.221 2.221 0 0 1 0-2.561z"/></svg></svg><svg width="5" height="5" xmlns="http://www.w3.org/2000/svg" xmlns:xlink="http://www.w3.org/1999/xlink" xmlns:svgjs="http://svgjs.com/svgjs" fill="#e4c9c2" x="165" y="206"><svg xmlns="http://www.w3.org/2000/svg" xmlns:xlink="http://www.w3.org/1999/xlink" width="5" height="5"><path paint-order="stroke fill markers" fill-rule="evenodd" d="M4.795 3.172c0 .387-.11.774-.295 1.088H.668a2.18 2.18 0 0 1-.295-1.088c0-1.216.995-2.21 2.211-2.21 1.216 0 2.211.994 2.211 2.21z"/></svg></svg><svg width="22" height="37" xmlns="http://www.w3.org/2000/svg" xmlns:xlink="http://www.w3.org/1999/xlink" xmlns:svgjs="http://svgjs.com/svgjs" fill="none" x="153" y="174"><svg xmlns="http://www.w3.org/2000/svg" xmlns:xlink="http://www.w3.org/1999/xlink" width="22" height="37"><path paint-order="stroke fill markers" d="M21.66.717v5.159h-1.07v30.383H1.669V5.876H.599V.716h21.06z"/></svg></svg></svg><svg width="14" height="13" xmlns="http://www.w3.org/2000/svg" xmlns:xlink="http://www.w3.org/1999/xlink" xmlns:svgjs="http://svgjs.com/svgjs" fill="#fff" x="157" y="185"><svg xmlns="http://www.w3.org/2000/svg" xmlns:xlink="http://www.w3.org/1999/xlink" width="14" height="13"><path paint-order="stroke fill markers" fill-rule="evenodd" d="M13.33 5.397l-5.012 7.149-1.106-.719-6.32-4.035L5.83.956l2.248 1.327 5.251 3.114z"/></svg></svg><svg width="20" height="37" xmlns="http://www.w3.org/2000/svg" xmlns:xlink="http://www.w3.org/1999/xlink" xmlns:svgjs="http://svgjs.com/svgjs" fill="#271c41" x="154" y="174"><svg xmlns="http://www.w3.org/2000/svg" xmlns:xlink="http://www.w3.org/1999/xlink" width="20" height="37"><path paint-order="stroke fill markers" fill-rule="evenodd" d="M19.59 17.429v.608h-9.157v18.222h-.608V18.037H.668v-.608h9.157V.717h.608v16.712h9.158z"/></svg></svg><svg width="7" height="11" xmlns="http://www.w3.org/2000/svg" xmlns:xlink="http://www.w3.org/1999/xlink" xmlns:svgjs="http://svgjs.com/svgjs" fill="#640042" opacity=".122" x="164" y="187"><svg xmlns="http://www.w3.org/2000/svg" xmlns:xlink="http://www.w3.org/1999/xlink" width="7" height="11"><path paint-order="stroke fill markers" fill-rule="evenodd" d="M6.33 3.397l-5.012 7.149-1.106-.719.866-9.544 5.251 3.114z"/></svg></svg><svg width="7" height="37" xmlns="http://www.w3.org/2000/svg" xmlns:xlink="http://www.w3.org/1999/xlink" xmlns:svgjs="http://svgjs.com/svgjs" fill="#640042" opacity=".122" x="168" y="174"><svg xmlns="http://www.w3.org/2000/svg" xmlns:xlink="http://www.w3.org/1999/xlink" width="7" height="37"><path paint-order="stroke fill markers" fill-rule="evenodd" d="M6.66.717v5.159H5.59v30.383H.598l1.438-18.222.055-.608.055-.774.019-.35L3.398.717h3.261z"/></svg></svg></svg><svg width="40" height="13" xmlns="http://www.w3.org/2000/svg" xmlns:xlink="http://www.w3.org/1999/xlink" xmlns:svgjs="http://svgjs.com/svgjs" viewBox="115 198 40 13" x="115" y="198"><svg width="40" height="13" xmlns="http://www.w3.org/2000/svg" xmlns:xlink="http://www.w3.org/1999/xlink" xmlns:svgjs="http://svgjs.com/svgjs" viewBox="115 198 40 13" x="115" y="198"><svg width="40" height="13" xmlns="http://www.w3.org/2000/svg" xmlns:xlink="http://www.w3.org/1999/xlink" xmlns:svgjs="http://svgjs.com/svgjs" fill="#271c41" x="115" y="198"><svg xmlns="http://www.w3.org/2000/svg" xmlns:xlink="http://www.w3.org/1999/xlink" width="40" height="13"><path paint-order="stroke fill markers" fill-rule="evenodd" d="M.809.467h38.877V12.26H.81V.467z"/></svg></svg><svg width="40" height="13" xmlns="http://www.w3.org/2000/svg" xmlns:xlink="http://www.w3.org/1999/xlink" xmlns:svgjs="http://svgjs.com/svgjs" fill="#e4c9c2" x="115" y="198"><svg xmlns="http://www.w3.org/2000/svg" xmlns:xlink="http://www.w3.org/1999/xlink" width="40" height="13"><path paint-order="stroke fill markers" fill-rule="evenodd" d="M39.668 2.807v.608H20.542v8.844h-.608V3.415H.81v-.608h19.125V.467h.608v2.34h19.126z"/></svg></svg></svg><svg width="20" height="13" xmlns="http://www.w3.org/2000/svg" xmlns:xlink="http://www.w3.org/1999/xlink" xmlns:svgjs="http://svgjs.com/svgjs" fill="#640042" opacity=".09" x="135" y="198"><svg xmlns="http://www.w3.org/2000/svg" xmlns:xlink="http://www.w3.org/1999/xlink" width="20" height="13"><path paint-order="stroke fill markers" fill-rule="evenodd" d="M19.668.467V12.26H.948c.755-2.856 1.621-6.062 2.358-8.844l.166-.608c.221-.829.424-1.621.626-2.34h15.57z"/></svg></svg></svg><svg width="58" height="49" xmlns="http://www.w3.org/2000/svg" xmlns:xlink="http://www.w3.org/1999/xlink" xmlns:svgjs="http://svgjs.com/svgjs" viewBox="120 210 58 49" x="120" y="210"><svg width="58" height="49" xmlns="http://www.w3.org/2000/svg" xmlns:xlink="http://www.w3.org/1999/xlink" xmlns:svgjs="http://svgjs.com/svgjs" fill="#e4c9c2" x="120" y="210"><svg xmlns="http://www.w3.org/2000/svg" xmlns:xlink="http://www.w3.org/1999/xlink" width="58" height="49"><path paint-order="stroke fill markers" fill-rule="evenodd" d="M.452.26h57.432v48.624H.452V.259z"/></svg></svg><svg width="31" height="49" xmlns="http://www.w3.org/2000/svg" xmlns:xlink="http://www.w3.org/1999/xlink" xmlns:svgjs="http://svgjs.com/svgjs" fill="#365588" opacity=".149" x="147" y="210"><svg xmlns="http://www.w3.org/2000/svg" xmlns:xlink="http://www.w3.org/1999/xlink" width="31" height="49"><path paint-order="stroke fill markers" fill-rule="evenodd" d="M30.884.26v48.624H.814l7.904-18.573.258-.571 7.075-16.62.516-1.216L21.524.26h9.36z"/></svg></svg><svg width="38" height="49" xmlns="http://www.w3.org/2000/svg" xmlns:xlink="http://www.w3.org/1999/xlink" xmlns:svgjs="http://svgjs.com/svgjs" fill="#fc860a" x="120" y="210"><svg xmlns="http://www.w3.org/2000/svg" xmlns:xlink="http://www.w3.org/1999/xlink" width="38" height="49"><path paint-order="stroke fill markers" fill-rule="evenodd" d="M37.874 48.884H.452V.259h27.38L32.2 21.45l.147.663 1.142 5.51.185.957 4.2 20.305z"/></svg></svg><svg width="58" height="49" xmlns="http://www.w3.org/2000/svg" xmlns:xlink="http://www.w3.org/1999/xlink" xmlns:svgjs="http://svgjs.com/svgjs" fill="#271c41" opacity=".4" x="120" y="210"><svg xmlns="http://www.w3.org/2000/svg" xmlns:xlink="http://www.w3.org/1999/xlink" width="58" height="49"><path paint-order="stroke fill markers" fill-rule="evenodd" d="M32.346 22.112l-2.708 2.266 3.85 3.243 2.488 2.119 21.908 18.554v.59h-.24L35.718 30.311l-2.045-1.732-4.496-3.814L.452 48.884v-.774l28.264-23.732L.452.425V.26h.737l27.988 23.732L32.2 21.45l11.368-9.545L57.423.26h.46v.406L43.053 13.12l-10.706 8.992z"/></svg></svg></svg></svg><svg width="54" height="160" xmlns="http://www.w3.org/2000/svg" xmlns:xlink="http://www.w3.org/1999/xlink" xmlns:svgjs="http://svgjs.com/svgjs" viewBox="164 108 54 160" x="164" y="108"><svg width="48" height="15" xmlns="http://www.w3.org/2000/svg" xmlns:xlink="http://www.w3.org/1999/xlink" xmlns:svgjs="http://svgjs.com/svgjs" viewBox="164 253 48 15" x="164" y="253"><svg width="48" height="15" xmlns="http://www.w3.org/2000/svg" xmlns:xlink="http://www.w3.org/1999/xlink" xmlns:svgjs="http://svgjs.com/svgjs" viewBox="164 253 48 15" x="164" y="253"><svg width="48" height="15" xmlns="http://www.w3.org/2000/svg" xmlns:xlink="http://www.w3.org/1999/xlink" xmlns:svgjs="http://svgjs.com/svgjs" viewBox="164 253 48 15" x="164" y="253"><svg width="19" height="13" xmlns="http://www.w3.org/2000/svg" xmlns:xlink="http://www.w3.org/1999/xlink" xmlns:svgjs="http://svgjs.com/svgjs" fill="#081164" x="164" y="255"><svg xmlns="http://www.w3.org/2000/svg" xmlns:xlink="http://www.w3.org/1999/xlink" width="19" height="13"><path paint-order="stroke fill markers" fill-rule="evenodd" d="M18.343 1.691l-.056.627-.718 7.96a.785.785 0 0 1-.7.7c-.074.018-.13.018-.203.037-.037 0-.074 0-.11.018-.056 0-.11.019-.166.019-.037 0-.093.018-.148.018-.073 0-.129.018-.202.018-.148.019-.332.037-.498.056-.055 0-.129.018-.184.018-.092.018-.166.018-.258.037-.055 0-.129.018-.184.018-.13.019-.258.037-.369.056h-.018c-.074 0-.13.018-.203.018-.166.018-.332.037-.516.074-.055 0-.129.018-.184.018-.055 0-.11.018-.166.018-.11.019-.221.019-.332.037-.073 0-.129.019-.202.019-.185.018-.369.055-.553.074-.092.018-.203.018-.295.036-.092.019-.202.019-.313.037-.24.037-.498.074-.774.092-.184.019-.387.056-.571.074-.184.018-.387.055-.59.074l-.387.055c-.331.037-.681.074-1.013.129a3.007 3.007 0 0 1-.405.037c-.203.018-.406.037-.608.074-.277.036-.553.055-.811.092-.074 0-.129.018-.203.018-.129.018-.258.018-.405.037-.074 0-.13.018-.203.018h-.018c-2.93.24-5.417.258-5.62-.424-.184-.626 1.585-1.64 2.21-1.99a10.309 10.309 0 0 1 .921-.46c1.844-.81 3.355-.81 4.663-.995.202-.037.405-.055.59-.092.35-.074.7-.166 1.013-.332.073-.037.129-.073.203-.11.036-.019.092-.056.129-.074.092-.055.165-.11.257-.166a.4.4 0 0 0 .093-.074c.055-.055.129-.11.184-.166.055-.055.129-.11.184-.184.81-.829 1.161-1.916 1.492-2.985.02-.092.056-.165.074-.258.056-.165.092-.331.13-.497.018-.092.036-.166.055-.258 0-.018.018-.055.018-.074 0-.018.018-.055.018-.073.019-.056.019-.092.037-.148.019-.055.019-.092.037-.147.018-.148.056-.277.056-.406l.055-.497c.018-.11.018-.221.018-.332v-.11-.13c0-.202.018-.386.018-.57.369.11.738.22 1.143.313.202.055.405.092.626.147.203.037.424.092.645.13.148.036.295.054.442.073l.387.055c.092.019.185.019.258.037.093.018.203.018.295.037l.571.055c.092.019.185.019.277.019.11.018.202.018.295.018.055 0 .129 0 .184.018.055.019.11 0 .184.019h.018c.166.018.295.018.406.018z"/></svg></svg><svg width="18" height="13" xmlns="http://www.w3.org/2000/svg" xmlns:xlink="http://www.w3.org/1999/xlink" xmlns:svgjs="http://svgjs.com/svgjs" fill="#081164" x="194" y="253"><svg xmlns="http://www.w3.org/2000/svg" xmlns:xlink="http://www.w3.org/1999/xlink" width="18" height="13"><path paint-order="stroke fill markers" fill-rule="evenodd" d="M17.252 2.733c-.037 2.285-.055 4.551-.092 6.836a.807.807 0 0 1-.626.756c-.535.11-1.42.294-2.47.515-1.436.295-3.998.867-6.504 1.346-3.5.663-6.928 1.105-7.222.294-.24-.645 1.695-1.953 2.137-2.248 3.298-2.21 5.749-.994 7.72-3.169.848-.92 1.18-2.008 1.345-2.487.074-.24.13-.48.184-.719.093-.387.13-.773.148-1.124A8.443 8.443 0 0 0 11.688.43c.718.166 1.53.313 2.395.406 1.16.128 2.23.147 3.17.128v1.77z"/></svg></svg></svg><svg width="19" height="13" xmlns="http://www.w3.org/2000/svg" xmlns:xlink="http://www.w3.org/1999/xlink" xmlns:svgjs="http://svgjs.com/svgjs" fill="none" x="164" y="255"><svg xmlns="http://www.w3.org/2000/svg" xmlns:xlink="http://www.w3.org/1999/xlink" width="19" height="13"><path paint-order="stroke fill markers" d="M18.343 1.692l-.056.626-.718 7.96a.784.784 0 0 1-.7.7c-.074.018-.13.018-.203.037-.037 0-.074 0-.11.018-.056 0-.11.019-.166.019-.037 0-.093.018-.148.018-.073 0-.129.018-.202.018-.148.019-.332.037-.498.056-.055 0-.129.018-.184.018-.092.019-.166.019-.258.037-.055 0-.129.018-.184.018-.13.019-.258.037-.369.056h-.018c-.074 0-.13.018-.203.018-.166.019-.332.037-.516.074-.055 0-.129.018-.184.018-.055 0-.11.019-.166.019-.11.018-.221.018-.332.036-.073 0-.129.019-.202.019-.185.018-.369.055-.553.074-.092.018-.203.018-.295.036-.092.019-.202.019-.313.037-.24.037-.516.074-.774.11-.184.02-.387.056-.571.075-.184.018-.387.055-.59.073l-.387.056c-.331.036-.681.073-1.013.128a3.007 3.007 0 0 1-.405.037c-.203.019-.406.037-.608.074-.277.037-.553.055-.811.092-.074 0-.129.019-.203.019-.129.018-.258.018-.405.036-.074 0-.13.019-.203.019h-.018c-2.93.24-5.417.258-5.62-.424-.184-.626 1.585-1.64 2.21-1.99.056-.037.093-.055.13-.074.276-.147.534-.276.792-.387 1.843-.81 3.354-.81 4.662-.995.202-.036.405-.055.59-.092.35-.073.7-.165 1.013-.331.073-.037.129-.074.203-.11.036-.02.092-.056.129-.075.092-.055.165-.11.257-.165a.4.4 0 0 0 .093-.074c.055-.055.129-.11.184-.166.055-.055.129-.11.184-.184.81-.83 1.161-1.916 1.492-2.985.02-.092.056-.166.074-.258.056-.166.092-.332.13-.498.018-.092.036-.165.055-.257 0-.019.018-.056.018-.074 0-.019.018-.055.018-.074.019-.055.019-.11.037-.147.019-.056.019-.092.037-.148.018-.147.056-.276.056-.405l.055-.498c.018-.11.018-.22.018-.331v-.11-.13c0-.202.018-.387.018-.57.369.11.738.22 1.143.312.202.056.405.092.626.148.203.037.424.092.645.129.148.037.295.055.442.073l.387.056c.092.018.185.036.258.036.093.019.203.019.295.037l.571.056c.092.018.185.018.277.018.11.019.202.019.295.019.055 0 .129 0 .184.018.055.018.11 0 .184.018H18.343z"/></svg></svg><svg width="47" height="15" xmlns="http://www.w3.org/2000/svg" xmlns:xlink="http://www.w3.org/1999/xlink" xmlns:svgjs="http://svgjs.com/svgjs" viewBox="165 253 47 15" x="165" y="253"><svg width="3" height="3" xmlns="http://www.w3.org/2000/svg" xmlns:xlink="http://www.w3.org/1999/xlink" xmlns:svgjs="http://svgjs.com/svgjs" fill="#bacfda" x="176" y="257"><svg xmlns="http://www.w3.org/2000/svg" xmlns:xlink="http://www.w3.org/1999/xlink" width="3" height="3"><path paint-order="stroke fill markers" fill-rule="evenodd" d="M2.252 2.455a.306.306 0 0 1-.221.092.296.296 0 0 1-.203-.092L.447 1.073C.465 1.018.465.981.483.926.502.87.502.834.52.779.54.63.576.502.576.373L2.27 2.05c.092.092.092.295-.019.405z"/></svg></svg><svg width="3" height="4" xmlns="http://www.w3.org/2000/svg" xmlns:xlink="http://www.w3.org/1999/xlink" xmlns:svgjs="http://svgjs.com/svgjs" fill="#bacfda" x="178" y="261"><svg xmlns="http://www.w3.org/2000/svg" xmlns:xlink="http://www.w3.org/1999/xlink" width="3" height="4"><path paint-order="stroke fill markers" fill-rule="evenodd" d="M.842 3.32C.786 3.32.75 3.3.695 3.283a.302.302 0 0 1-.13-.406L1.893.408A.302.302 0 0 1 2.297.28a.302.302 0 0 1 .13.406L1.1 3.154a.297.297 0 0 1-.258.166z"/></svg></svg><svg width="3" height="3" xmlns="http://www.w3.org/2000/svg" xmlns:xlink="http://www.w3.org/1999/xlink" xmlns:svgjs="http://svgjs.com/svgjs" fill="#bacfda" x="165" y="264"><svg xmlns="http://www.w3.org/2000/svg" xmlns:xlink="http://www.w3.org/1999/xlink" width="3" height="3"><path paint-order="stroke fill markers" fill-rule="evenodd" d="M2.29.412L1.017 2.807a.298.298 0 0 1-.258.166c-.055 0-.092-.019-.148-.037a.303.303 0 0 1-.129-.405L1.368.89c.055-.037.092-.056.129-.074a6.45 6.45 0 0 1 .792-.405z"/></svg></svg><svg width="2" height="3" xmlns="http://www.w3.org/2000/svg" xmlns:xlink="http://www.w3.org/1999/xlink" xmlns:svgjs="http://svgjs.com/svgjs" fill="#bacfda" x="171" y="263"><svg xmlns="http://www.w3.org/2000/svg" xmlns:xlink="http://www.w3.org/1999/xlink" width="2" height="3"><path paint-order="stroke fill markers" fill-rule="evenodd" d="M1.651 2.407c0 .166-.129.313-.276.313h-.019c-.166 0-.295-.129-.295-.277L.97.417c.203-.037.406-.056.59-.092l.092 2.082z"/></svg></svg><svg width="2" height="3" xmlns="http://www.w3.org/2000/svg" xmlns:xlink="http://www.w3.org/1999/xlink" xmlns:svgjs="http://svgjs.com/svgjs" fill="#bacfda" x="175" y="264"><svg xmlns="http://www.w3.org/2000/svg" xmlns:xlink="http://www.w3.org/1999/xlink" width="2" height="3"><path paint-order="stroke fill markers" fill-rule="evenodd" d="M1.354 2.549c-.092.018-.202.018-.294.037-.093.018-.203.018-.314.037l-.386-1.4C.323 1.056.415.89.562.852.71.818.894.91.931 1.058l.423 1.492z"/></svg></svg><svg width="2" height="2" xmlns="http://www.w3.org/2000/svg" xmlns:xlink="http://www.w3.org/1999/xlink" xmlns:svgjs="http://svgjs.com/svgjs" fill="#bacfda" x="169" y="266"><svg xmlns="http://www.w3.org/2000/svg" xmlns:xlink="http://www.w3.org/1999/xlink" width="2" height="2"><path paint-order="stroke fill markers" fill-rule="evenodd" d="M1.366 1.25c-.129.018-.258.018-.405.036-.074 0-.129.019-.203.019H.74L.592.752C.556.586.647.42.795.383c.166-.037.332.056.368.221l.203.645z"/></svg></svg><svg width="2" height="3" xmlns="http://www.w3.org/2000/svg" xmlns:xlink="http://www.w3.org/1999/xlink" xmlns:svgjs="http://svgjs.com/svgjs" fill="#bacfda" x="181" y="256"><svg xmlns="http://www.w3.org/2000/svg" xmlns:xlink="http://www.w3.org/1999/xlink" width="2" height="3"><path paint-order="stroke fill markers" fill-rule="evenodd" d="M1.343.691l-.056.627-.331.626a.298.298 0 0 1-.258.166c-.055 0-.092-.018-.147-.037a.302.302 0 0 1-.13-.405L.956.673h.018c.13.018.258.018.369.018z"/></svg></svg><svg width="3" height="4" xmlns="http://www.w3.org/2000/svg" xmlns:xlink="http://www.w3.org/1999/xlink" xmlns:svgjs="http://svgjs.com/svgjs" fill="#bacfda" x="206" y="258"><svg xmlns="http://www.w3.org/2000/svg" xmlns:xlink="http://www.w3.org/1999/xlink" width="3" height="4"><path paint-order="stroke fill markers" fill-rule="evenodd" d="M2.673 3.187a.296.296 0 0 1-.203-.092L.48 1.124A.312.312 0 0 1 .48.7C.59.59.793.59.904.7l1.99 1.971c.11.11.11.314 0 .424a.306.306 0 0 1-.221.092z"/></svg></svg><svg width="3" height="3" xmlns="http://www.w3.org/2000/svg" xmlns:xlink="http://www.w3.org/1999/xlink" xmlns:svgjs="http://svgjs.com/svgjs" fill="#bacfda" x="197" y="263"><svg xmlns="http://www.w3.org/2000/svg" xmlns:xlink="http://www.w3.org/1999/xlink" width="3" height="3"><path paint-order="stroke fill markers" fill-rule="evenodd" d="M2.257.564l-1.16 2.174a9.49 9.49 0 0 1-.72.074c0-.018.02-.037.02-.055L1.722.287A.303.303 0 0 1 2.128.16c.147.092.203.258.13.405z"/></svg></svg><svg width="2" height="2" xmlns="http://www.w3.org/2000/svg" xmlns:xlink="http://www.w3.org/1999/xlink" xmlns:svgjs="http://svgjs.com/svgjs" fill="#bacfda" x="210" y="257"><svg xmlns="http://www.w3.org/2000/svg" xmlns:xlink="http://www.w3.org/1999/xlink" width="2" height="2"><path paint-order="stroke fill markers" fill-rule="evenodd" d="M1.234.078c0 .443-.019.866-.019 1.309l-.147.276a.298.298 0 0 1-.258.166c-.055 0-.092-.019-.147-.037a.303.303 0 0 1-.13-.405l.7-1.309z"/></svg></svg><svg width="2" height="4" xmlns="http://www.w3.org/2000/svg" xmlns:xlink="http://www.w3.org/1999/xlink" xmlns:svgjs="http://svgjs.com/svgjs" fill="#bacfda" x="202" y="260"><svg xmlns="http://www.w3.org/2000/svg" xmlns:xlink="http://www.w3.org/1999/xlink" width="2" height="4"><path paint-order="stroke fill markers" fill-rule="evenodd" d="M1.403 3.196c-.019 0-.055.018-.074.018a.316.316 0 0 1-.295-.221L.537 1.187c.184-.073.368-.166.553-.258l.516 1.898a.278.278 0 0 1-.203.369z"/></svg></svg><svg width="2" height="3" xmlns="http://www.w3.org/2000/svg" xmlns:xlink="http://www.w3.org/1999/xlink" xmlns:svgjs="http://svgjs.com/svgjs" fill="#bacfda" x="206" y="262"><svg xmlns="http://www.w3.org/2000/svg" xmlns:xlink="http://www.w3.org/1999/xlink" width="2" height="3"><path paint-order="stroke fill markers" fill-rule="evenodd" d="M1.457 1.97c-.185.036-.388.073-.59.128l-.221-.81C.609 1.122.7.956.867.919c.166-.037.332.056.368.203l.222.847z"/></svg></svg><svg width="3" height="4" xmlns="http://www.w3.org/2000/svg" xmlns:xlink="http://www.w3.org/1999/xlink" xmlns:svgjs="http://svgjs.com/svgjs" fill="#bacfda" x="207" y="253"><svg xmlns="http://www.w3.org/2000/svg" xmlns:xlink="http://www.w3.org/1999/xlink" width="3" height="4"><path paint-order="stroke fill markers" fill-rule="evenodd" d="M2.17.946L1.138 2.881a.298.298 0 0 1-.258.166c-.055 0-.092-.019-.147-.037a.302.302 0 0 1-.129-.406L1.507.891c.24.018.46.037.663.055z"/></svg></svg></svg><svg width="18" height="13" xmlns="http://www.w3.org/2000/svg" xmlns:xlink="http://www.w3.org/1999/xlink" xmlns:svgjs="http://svgjs.com/svgjs" fill="none" x="194" y="253"><svg xmlns="http://www.w3.org/2000/svg" xmlns:xlink="http://www.w3.org/1999/xlink" width="18" height="13"><path paint-order="stroke fill markers" d="M17.252 2.733c0 .443-.018.885-.018 1.327 0 .442-.019.866-.019 1.308L17.16 9.57c-.018.369-.276.682-.608.756l-2.488.515c-.184.037-.386.074-.607.13-.185.036-.388.073-.59.128-2.358.498-6.025 1.309-8.77 1.659a9.49 9.49 0 0 1-.72.073c-1.676.166-2.892.13-3.058-.35-.24-.663 1.696-1.953 2.138-2.248 2.45-1.64 4.422-1.4 6.08-2.045.184-.073.368-.166.553-.258.368-.202.737-.479 1.087-.866.847-.921 1.18-2.008 1.345-2.487a6.967 6.967 0 0 0 .332-1.843A8.412 8.412 0 0 0 11.669.43c.719.166 1.53.313 2.395.405.148.019.314.037.461.037.221.019.443.037.645.056.737.036 1.419.055 2.045.036l.037 1.77z"/></svg></svg></svg><svg width="4" height="11" xmlns="http://www.w3.org/2000/svg" xmlns:xlink="http://www.w3.org/1999/xlink" xmlns:svgjs="http://svgjs.com/svgjs" fill="#0b1d36" opacity=".141" x="179" y="256"><svg xmlns="http://www.w3.org/2000/svg" xmlns:xlink="http://www.w3.org/1999/xlink" width="4" height="11"><path paint-order="stroke fill markers" fill-rule="evenodd" d="M3.343.691L2.569 9.26a.785.785 0 0 1-.7.7c-.258.037-.571.074-.958.13.847-2.267.534-6.855.24-9.6.791.129 1.529.184 2.192.202z"/></svg></svg><svg width="11" height="13" xmlns="http://www.w3.org/2000/svg" xmlns:xlink="http://www.w3.org/1999/xlink" xmlns:svgjs="http://svgjs.com/svgjs" fill="#0b1d36" opacity=".141" x="201" y="253"><svg xmlns="http://www.w3.org/2000/svg" xmlns:xlink="http://www.w3.org/1999/xlink" width="11" height="13"><path paint-order="stroke fill markers" fill-rule="evenodd" d="M10.252 2.733c-.037 2.285-.055 4.551-.092 6.836a.807.807 0 0 1-.626.756c-.535.11-1.42.294-2.47.515-1.436.295-3.998.867-6.504 1.346C2.864 11.099 5.185 9.974 6.2 9.348c2.358-1.456 2.708-2.414 2.413-4.164-.22-1.271-2.56-1.327-3.906-1.308a6.32 6.32 0 0 0 .148-1.124A8.43 8.43 0 0 0 4.669.449c.719.165 1.53.313 2.395.405 1.161.129 2.23.147 3.17.129l.018 1.75z"/></svg></svg></svg><svg width="14" height="38" xmlns="http://www.w3.org/2000/svg" xmlns:xlink="http://www.w3.org/1999/xlink" xmlns:svgjs="http://svgjs.com/svgjs" viewBox="204 135 14 38" x="204" y="135"><svg width="14" height="38" xmlns="http://www.w3.org/2000/svg" xmlns:xlink="http://www.w3.org/1999/xlink" xmlns:svgjs="http://svgjs.com/svgjs" fill="#5a142a" x="204" y="135"><svg xmlns="http://www.w3.org/2000/svg" xmlns:xlink="http://www.w3.org/1999/xlink" width="14" height="38"><path paint-order="stroke fill markers" fill-rule="evenodd" d="M4.802.379L.656 10.992a38.472 38.472 0 0 0 3.372 5.177c1.658 2.12 2.58 2.838 2.93 4.422.257 1.253.018 2.432-1.05 4.92a48.153 48.153 0 0 1-4.57 8.218l3.721 3.611c3.815-4.201 5.786-8.236 6.818-10.871 1.29-3.28 2.285-5.878 1.695-9.029-.534-2.763-1.843-3.721-4.22-7.61C8.045 7.73 6.332 4.599 4.803.38z"/></svg></svg><svg width="14" height="38" xmlns="http://www.w3.org/2000/svg" xmlns:xlink="http://www.w3.org/1999/xlink" xmlns:svgjs="http://svgjs.com/svgjs" fill="#171f6a" x="204" y="135"><svg xmlns="http://www.w3.org/2000/svg" xmlns:xlink="http://www.w3.org/1999/xlink" width="14" height="38"><path paint-order="stroke fill markers" fill-rule="evenodd" d="M4.802.379L.656 10.992a38.472 38.472 0 0 0 3.372 5.177c1.658 2.12 2.58 2.838 2.93 4.422.257 1.253.018 2.432-1.05 4.92a48.153 48.153 0 0 1-4.57 8.218l3.721 3.611c3.815-4.201 5.786-8.236 6.818-10.871 1.29-3.28 2.285-5.878 1.695-9.029-.534-2.763-1.843-3.721-4.22-7.61C8.045 7.73 6.332 4.599 4.803.38z"/></svg></svg></svg><svg width="18" height="22" xmlns="http://www.w3.org/2000/svg" xmlns:xlink="http://www.w3.org/1999/xlink" xmlns:svgjs="http://svgjs.com/svgjs" fill="#19233d" x="179" y="124"><svg xmlns="http://www.w3.org/2000/svg" xmlns:xlink="http://www.w3.org/1999/xlink" width="18" height="22"><path paint-order="stroke fill markers" fill-rule="evenodd" d="M4.89 4.745a30.396 30.396 0 0 1-1.27 5.16c-1.567 4.624-3.096 5.638-2.544 7.388.977 3.114 7.076 3.667 7.905 3.74 1.603.148 3.15.277 4.68-.608 2.635-1.547 3.132-4.993 3.317-6.356.94-6.726-4.238-12.198-5.344-13.34L4.891 4.745z"/></svg></svg><svg width="12" height="16" xmlns="http://www.w3.org/2000/svg" xmlns:xlink="http://www.w3.org/1999/xlink" xmlns:svgjs="http://svgjs.com/svgjs" viewBox="187 121 12 16" x="187" y="121"><svg width="12" height="16" xmlns="http://www.w3.org/2000/svg" xmlns:xlink="http://www.w3.org/1999/xlink" xmlns:svgjs="http://svgjs.com/svgjs" fill="#efddcb" x="187" y="121"><svg xmlns="http://www.w3.org/2000/svg" xmlns:xlink="http://www.w3.org/1999/xlink" width="12" height="16"><path paint-order="stroke fill markers" fill-rule="evenodd" d="M11.852 11.854l-7.72 3.667-1.364-3.759-1.032-2.837L.76 6.216 6.435.504l5.417 11.35z"/></svg></svg><svg width="7" height="10" xmlns="http://www.w3.org/2000/svg" xmlns:xlink="http://www.w3.org/1999/xlink" xmlns:svgjs="http://svgjs.com/svgjs" fill="#365588" opacity=".09" x="188" y="123"><svg xmlns="http://www.w3.org/2000/svg" xmlns:xlink="http://www.w3.org/1999/xlink" width="7" height="10"><path paint-order="stroke fill markers" fill-rule="evenodd" d="M6.116.697C5.453 4.99 3.17 8.177 1.768 9.762L.736 6.906l5.38-6.21z"/></svg></svg></svg><svg width="29" height="50" xmlns="http://www.w3.org/2000/svg" xmlns:xlink="http://www.w3.org/1999/xlink" xmlns:svgjs="http://svgjs.com/svgjs" viewBox="184 130 29 50" x="184" y="130"><svg width="29" height="50" xmlns="http://www.w3.org/2000/svg" xmlns:xlink="http://www.w3.org/1999/xlink" xmlns:svgjs="http://svgjs.com/svgjs" fill="#081164" x="184" y="130"><svg xmlns="http://www.w3.org/2000/svg" xmlns:xlink="http://www.w3.org/1999/xlink" width="29" height="50"><path paint-order="stroke fill markers" fill-rule="evenodd" d="M28.1 43.538a38.195 38.195 0 0 1-.627 4.68c-.092.423-.184.847-.276 1.253-6.265-.332-12.53-.645-18.794-.977a290.83 290.83 0 0 0-.958-4.68c-.295-1.364-.59-2.635-.866-3.796a90.605 90.605 0 0 0-.884-3.427c-1.42-5.196-2.672-8.254-3.722-10.152-.443-.792-1.456-2.47-1.64-4.883-.166-2.192.57-2.192 1.529-7.72.332-1.861.866-3.667 1.105-5.546.019-.148.111-.737.369-1.456.037-.11.092-.203.147-.35C5.068 3.15 9.14 1.27 12.475.864c4.256-.516 9.12 1.364 11.553 4.938.018.019.036.056.055.074.534.81.847 1.566 1.013 2.303.59 2.783.424 4.92.074 7.13-.35 2.212-.921 4.534-1.124 7.703-.442 6.799 1.603 13.082 3.243 18.075.313 1.05.608 1.898.81 2.45z"/></svg></svg><svg width="21" height="36" xmlns="http://www.w3.org/2000/svg" xmlns:xlink="http://www.w3.org/1999/xlink" xmlns:svgjs="http://svgjs.com/svgjs" fill="#002544" opacity=".071" x="189" y="135"><svg xmlns="http://www.w3.org/2000/svg" xmlns:xlink="http://www.w3.org/1999/xlink" width="21" height="36"><path paint-order="stroke fill markers" fill-rule="evenodd" d="M14.219 11.084c-2.654 3.316 4.79 10.558 2.91 16.675-1.62 5.251-9.783 8.623-15.55 7.296a90.605 90.605 0 0 0-.884-3.427c3.463-.387 9.065-.516 11.497-3.52 2.137-2.634 2.432-8.18-4.348-20.562L19.009.858c.019.018.037.055.055.073.535.811.848 1.567 1.014 2.304.59 2.782.424 4.92.074 7.13-.443-.295-2.009-1.234-3.74-.774.018-.018-1.253.314-2.193 1.493z"/></svg></svg></svg><svg width="14" height="16" xmlns="http://www.w3.org/2000/svg" xmlns:xlink="http://www.w3.org/1999/xlink" xmlns:svgjs="http://svgjs.com/svgjs" viewBox="164 142 14 16" x="164" y="142"><svg width="14" height="16" xmlns="http://www.w3.org/2000/svg" xmlns:xlink="http://www.w3.org/1999/xlink" xmlns:svgjs="http://svgjs.com/svgjs" fill="#002544" opacity=".451" x="164" y="142"><svg xmlns="http://www.w3.org/2000/svg" xmlns:xlink="http://www.w3.org/1999/xlink" width="14" height="16"><path paint-order="stroke fill markers" fill-rule="evenodd" d="M13.607 12.56L10.9 15.23c-.516.498-1.493.203-2.156-.663l-7.351-9.47C.71 4.23.654 3.18 1.244 2.775L4.376.638c.535-.368 1.474 0 2.101.81l6.854 8.808c.608.83.737 1.843.276 2.303z"/></svg></svg><svg width="14" height="16" xmlns="http://www.w3.org/2000/svg" xmlns:xlink="http://www.w3.org/1999/xlink" xmlns:svgjs="http://svgjs.com/svgjs" viewBox="164 142 14 16" x="164" y="142"><svg width="14" height="16" xmlns="http://www.w3.org/2000/svg" xmlns:xlink="http://www.w3.org/1999/xlink" xmlns:svgjs="http://svgjs.com/svgjs" fill="#302c34" x="164" y="142"><svg xmlns="http://www.w3.org/2000/svg" xmlns:xlink="http://www.w3.org/1999/xlink" width="14" height="16"><path paint-order="stroke fill markers" fill-rule="evenodd" d="M13.313 10.275L6.458 1.467c-.626-.81-1.566-1.179-2.1-.81L1.226 2.794c-.222.147-.35.387-.387.663-.019.11-.019.24 0 .369v.35c-.074.46.092 1.05.497 1.566l7.02 9.028c.59.756 1.437 1.05 1.972.7a.99.99 0 0 0 .59-.239l2.708-2.672c.46-.46.313-1.474-.313-2.284z"/></svg></svg><svg width="14" height="16" xmlns="http://www.w3.org/2000/svg" xmlns:xlink="http://www.w3.org/1999/xlink" xmlns:svgjs="http://svgjs.com/svgjs" fill="#002544" opacity=".451" x="164" y="142"><svg xmlns="http://www.w3.org/2000/svg" xmlns:xlink="http://www.w3.org/1999/xlink" width="14" height="16"><path paint-order="stroke fill markers" fill-rule="evenodd" d="M13.607 12.56L10.9 15.23c-.516.498-1.493.203-2.156-.663l-7.351-9.47C.71 4.23.654 3.18 1.244 2.775L4.376.638c.535-.368 1.474 0 2.101.81l6.854 8.808c.608.83.737 1.843.276 2.303z"/></svg></svg></svg><svg width="13" height="14" xmlns="http://www.w3.org/2000/svg" xmlns:xlink="http://www.w3.org/1999/xlink" xmlns:svgjs="http://svgjs.com/svgjs" fill="#d3e0df" x="165" y="143"><svg xmlns="http://www.w3.org/2000/svg" xmlns:xlink="http://www.w3.org/1999/xlink" width="13" height="14"><path paint-order="stroke fill markers" fill-rule="evenodd" d="M12.147 9.827c-1.271 1.106-2.525 2.193-3.796 3.299-.516-.59-1.695-2.046-2.966-3.649a15.979 15.979 0 0 0-.516-.645l-.424-.534c-.46-.571-.903-1.142-1.327-1.677-.94-1.216-1.75-2.266-2.137-2.782L5.182.744c.037.055.074.092.11.147.332.442.738.94 1.161 1.493.11.147.222.276.332.423.166.221.332.443.516.664 2.248 2.874 4.79 6.209 4.846 6.356z"/></svg></svg><svg width="6" height="9" xmlns="http://www.w3.org/2000/svg" xmlns:xlink="http://www.w3.org/1999/xlink" xmlns:svgjs="http://svgjs.com/svgjs" fill="#336859" opacity=".671" x="169" y="145"><svg xmlns="http://www.w3.org/2000/svg" xmlns:xlink="http://www.w3.org/1999/xlink" width="6" height="9"><path paint-order="stroke fill markers" fill-rule="evenodd" d="M5.125 8.417a.372.372 0 0 1-.203-.055l-3.98-2.47a.41.41 0 0 1-.129-.552.41.41 0 0 1 .553-.129l2.82 1.75L1.255.79C1.164.586 1.237.347 1.44.255c.202-.093.442-.019.534.184l3.52 7.407a.423.423 0 0 1-.093.479.55.55 0 0 1-.276.092z"/></svg></svg><svg width="4" height="9" xmlns="http://www.w3.org/2000/svg" xmlns:xlink="http://www.w3.org/1999/xlink" xmlns:svgjs="http://svgjs.com/svgjs" fill="#e6e3f4" opacity=".259" x="168" y="143"><svg xmlns="http://www.w3.org/2000/svg" xmlns:xlink="http://www.w3.org/1999/xlink" width="4" height="9"><path paint-order="stroke fill markers" fill-rule="evenodd" d="M3.49 2.384C2.808 4.355 2.127 6.327 1.463 8.28 1.003 7.709.561 7.137.137 6.603L2.329.873c.35.46.738.976 1.161 1.51z"/></svg></svg><svg width="4" height="8" xmlns="http://www.w3.org/2000/svg" xmlns:xlink="http://www.w3.org/1999/xlink" xmlns:svgjs="http://svgjs.com/svgjs" fill="#e6e3f4" opacity=".259" x="169" y="145"><svg xmlns="http://www.w3.org/2000/svg" xmlns:xlink="http://www.w3.org/1999/xlink" width="4" height="8"><path paint-order="stroke fill markers" fill-rule="evenodd" d="M3.338 1.47L1.403 7.478a15.653 15.653 0 0 0-.516-.645L2.822.826c.165.202.331.424.516.645z"/></svg></svg></svg><svg width="44" height="85" xmlns="http://www.w3.org/2000/svg" xmlns:xlink="http://www.w3.org/1999/xlink" xmlns:svgjs="http://svgjs.com/svgjs" viewBox="170 173 44 85" x="170" y="173"><svg width="20" height="83" xmlns="http://www.w3.org/2000/svg" xmlns:xlink="http://www.w3.org/1999/xlink" xmlns:svgjs="http://svgjs.com/svgjs" viewBox="194 173 20 83" x="194" y="173"><svg width="20" height="83" xmlns="http://www.w3.org/2000/svg" xmlns:xlink="http://www.w3.org/1999/xlink" xmlns:svgjs="http://svgjs.com/svgjs" fill="#271c41" x="194" y="173"><svg xmlns="http://www.w3.org/2000/svg" xmlns:xlink="http://www.w3.org/1999/xlink" width="20" height="83"><path paint-order="stroke fill markers" fill-rule="evenodd" d="M17.731 81.24h-.497c-.332-21.483-.792-28.982-1.216-30.696-.074-.295-.664-2.543-.995-5.657-.019-.257-.055-.552-.092-.884-.719-9.25 4.532-29.646 4.44-34.658A36.286 36.286 0 0 0 18.1.538C12.13 2.307 6.179 4.075.209 5.844-.141 24.878 1.83 37.868 3.783 46.38c.48 2.064 1.511 6.265 3.132 13.45a1059.45 1059.45 0 0 1 4.625 21.41h-.055a.743.743 0 0 0-.737.756c0 .424.331.756.737.756h6.247a.743.743 0 0 0 .736-.756.743.743 0 0 0-.737-.755z"/></svg></svg><svg width="20" height="83" xmlns="http://www.w3.org/2000/svg" xmlns:xlink="http://www.w3.org/1999/xlink" xmlns:svgjs="http://svgjs.com/svgjs" fill="#640042" opacity=".122" x="194" y="173"><svg xmlns="http://www.w3.org/2000/svg" xmlns:xlink="http://www.w3.org/1999/xlink" width="20" height="83"><path paint-order="stroke fill markers" fill-rule="evenodd" d="M17.731 81.24h-.497c-.332-21.483-.792-28.982-1.216-30.696-.074-.295-.664-2.543-.995-5.657-.019-.257-.055-.552-.092-.884-.719-9.25 4.532-29.646 4.44-34.658A36.286 36.286 0 0 0 18.1.538C12.13 2.307 6.179 4.075.209 5.844-.141 24.878 1.83 37.868 3.783 46.38c.48 2.064 1.511 6.265 3.132 13.45a1059.45 1059.45 0 0 1 4.625 21.41h-.055a.743.743 0 0 0-.737.756c0 .424.331.756.737.756h6.247a.743.743 0 0 0 .736-.756.743.743 0 0 0-.737-.755z"/></svg></svg></svg><svg width="43" height="85" xmlns="http://www.w3.org/2000/svg" xmlns:xlink="http://www.w3.org/1999/xlink" xmlns:svgjs="http://svgjs.com/svgjs" viewBox="170 173 43 85" x="170" y="173"><svg width="43" height="85" xmlns="http://www.w3.org/2000/svg" xmlns:xlink="http://www.w3.org/1999/xlink" xmlns:svgjs="http://svgjs.com/svgjs" fill="#39215a" x="170" y="173"><svg xmlns="http://www.w3.org/2000/svg" xmlns:xlink="http://www.w3.org/1999/xlink" width="43" height="85"><path paint-order="stroke fill markers" fill-rule="evenodd" d="M42.1.538a43.364 43.364 0 0 1-.387 3.353c-.074.424-.148.848-.221 1.253-.092.46-.184.903-.295 1.327 0 .018 0 .036-.018.055a31.31 31.31 0 0 1-3.225 8.291c-4.145 7.26-12.603 15.072-18.462 21.079-2.93 3.003-5.215 5.564-5.97 7.352-.11.276-.203.534-.24.774a20.075 20.075 0 0 0-.24 2.118c.167 1.714.314 3.446.443 5.215.81 11.903.203 22.976-1.198 33.018h-.22l-1.272.055-4.293.166a116.74 116.74 0 0 0-1.437-12.271c-1.069-6.173-2.414-11.11-3.39-15.625-1.29-6.043-1.898-11.368-.258-18.001.552-2.267.976-2.912 11.184-21.613a755.048 755.048 0 0 0 2.91-5.344c2.323-4.238 4.22-7.738 5.565-10.189.13-.24.259-.46.369-.682L21.5.76C27.839.703 34.177.629 40.497.574 41.03.556 41.565.556 42.1.538z"/></svg></svg><svg width="9" height="2" xmlns="http://www.w3.org/2000/svg" xmlns:xlink="http://www.w3.org/1999/xlink" xmlns:svgjs="http://svgjs.com/svgjs" fill="#271c41" x="175" y="256"><svg xmlns="http://www.w3.org/2000/svg" xmlns:xlink="http://www.w3.org/1999/xlink" width="9" height="2"><path paint-order="stroke fill markers" fill-rule="evenodd" d="M7.343 1.613H.986A.68.68 0 0 1 .304.93V.802A.68.68 0 0 1 .986.12h6.357a.68.68 0 0 1 .682.682v.129a.692.692 0 0 1-.682.682z"/></svg></svg><svg width="34" height="85" xmlns="http://www.w3.org/2000/svg" xmlns:xlink="http://www.w3.org/1999/xlink" xmlns:svgjs="http://svgjs.com/svgjs" fill="#0b1d36" opacity=".071" x="179" y="173"><svg xmlns="http://www.w3.org/2000/svg" xmlns:xlink="http://www.w3.org/1999/xlink" width="34" height="85"><path paint-order="stroke fill markers" fill-rule="evenodd" d="M33.1.538a53.756 53.756 0 0 1-.387 3.353c-.074.424-.148.848-.221 1.253-.092.46-.184.903-.295 1.327 0 .018 0 .036-.018.055-.166.7-1.253 4.57-3.225 8.291-4.145 7.26-12.603 15.072-18.462 21.079-2.93 3.003-5.215 5.564-5.97 7.352-.11.276-.203.534-.24.774a20.075 20.075 0 0 0-.24 2.118c.167 1.714.314 3.446.443 5.215.81 11.903.203 22.976-1.198 33.018h-.22c-1.475-2.23-1.309-8.918-1.751-20.47C.671 46.803-.232 47.467.69 44.39c2.266-7.573 6.633-7.904 17.172-20.765 5.97-7.278 13.358-17.91 11.405-20.121-.718-.81-2.229.13-5.675.369-4.79.313-8.807-1.07-11.534-2.359.129-.22.258-.46.368-.682l.056-.11C18.82.667 25.159.592 31.478.538c.553.018 1.087.018 1.622 0z"/></svg></svg><svg width="16" height="46" xmlns="http://www.w3.org/2000/svg" xmlns:xlink="http://www.w3.org/1999/xlink" xmlns:svgjs="http://svgjs.com/svgjs" fill="#fff" opacity=".039" x="170" y="184"><svg xmlns="http://www.w3.org/2000/svg" xmlns:xlink="http://www.w3.org/1999/xlink" width="16" height="46"><path paint-order="stroke fill markers" fill-rule="evenodd" d="M15.512.722c-1.658 6.283-5.03 16.97-10.318 24.69-3.501 5.104-4.036 13.008-3.52 20.286-1.29-6.043-1.897-11.368-.257-18.001.552-2.267.976-2.912 11.184-21.613 1.031-1.898 2.008-3.686 2.91-5.362z"/></svg></svg></svg></svg><svg width="39" height="37" xmlns="http://www.w3.org/2000/svg" xmlns:xlink="http://www.w3.org/1999/xlink" xmlns:svgjs="http://svgjs.com/svgjs" viewBox="166 131 39 37" x="166" y="131"><svg width="32" height="37" xmlns="http://www.w3.org/2000/svg" xmlns:xlink="http://www.w3.org/1999/xlink" xmlns:svgjs="http://svgjs.com/svgjs" fill="#16206b" x="173" y="131"><svg xmlns="http://www.w3.org/2000/svg" xmlns:xlink="http://www.w3.org/1999/xlink" width="32" height="37"><path paint-order="stroke fill markers" fill-rule="evenodd" d="M30.956 32.33c-.59.921-1.345 1.419-2.23 2.027-.018.018-.037.018-.055.037 0 0-.018 0-.018.018-.848.571-4.073 2.58-10.908 1.99-5.252-.46-9.84-2.211-13.322-3.962a40.378 40.378 0 0 1-4.201-2.432c.664-1.087 1.308-2.174 1.972-3.28 6.836 3.114 12.382 3.17 15.44 2.93 2.1-.166 4.054-.331 5.122-1.068.295-.222.535-.48.664-.793 1.124-2.598-5.251-5.417-8.586-13.966-.885-2.285-2.654-6.928-.48-9.95.406-.571 1.253-1.492 2.432-2.21.811-.48 1.788-.867 2.875-.94.055 0 .626-.038 1.032.018 2.561.387 3.667 5.214 5.62 11.81.386 1.327.81 2.709 1.29 4.165.276.81.534 1.584.792 2.321 2.542 7.112 4.459 10.392 2.56 13.285z"/></svg></svg><svg width="10" height="12" xmlns="http://www.w3.org/2000/svg" xmlns:xlink="http://www.w3.org/1999/xlink" xmlns:svgjs="http://svgjs.com/svgjs" fill="#e4c9c2" x="166" y="149"><svg xmlns="http://www.w3.org/2000/svg" xmlns:xlink="http://www.w3.org/1999/xlink" width="10" height="12"><path paint-order="stroke fill markers" fill-rule="evenodd" d="M9.194 8.729a18.392 18.392 0 0 1-1.087 2.008c-.295.46-.59.884-.885 1.253-.553-.442-.94-.756-1.18-.958a7.041 7.041 0 0 1-.368-.295l-.092-.092-.018-.019-.018-.018C3.334 8.544 2.063 6.02 2.063 6.02A15.328 15.328 0 0 1 .515.271c.332.406.848 1.014 1.474 1.806.056.074.13.147.166.221.387.498.663.866 1.161 1.511.59.774 1.18 1.53 1.787 2.303.11-.331.258-.829.277-1.492.018-.406-.037-.756-.11-1.456-.111-.903-.277-1.935.036-2.064.018 0 .037-.018.037-.018.147 0 .35.037.534.166.442.332.424 1.05.424 1.363 0 .019 0 1.364.847 3.52.24.608.664 1.382 1.567 2.155.147.185.313.314.479.443z"/></svg></svg><svg width="4" height="4" xmlns="http://www.w3.org/2000/svg" xmlns:xlink="http://www.w3.org/1999/xlink" xmlns:svgjs="http://svgjs.com/svgjs" fill="#365588" opacity=".161" x="172" y="157"><svg xmlns="http://www.w3.org/2000/svg" xmlns:xlink="http://www.w3.org/1999/xlink" width="4" height="4"><path paint-order="stroke fill markers" fill-rule="evenodd" d="M3.194.729a18.385 18.385 0 0 1-1.087 2.008c-.295.46-.59.884-.885 1.253a63.85 63.85 0 0 1-1.18-.958L2.66.36l.056-.037c.147.148.313.277.479.406z"/></svg></svg><svg width="4" height="5" xmlns="http://www.w3.org/2000/svg" xmlns:xlink="http://www.w3.org/1999/xlink" xmlns:svgjs="http://svgjs.com/svgjs" fill="#365588" opacity=".161" x="168" y="151"><svg xmlns="http://www.w3.org/2000/svg" xmlns:xlink="http://www.w3.org/1999/xlink" width="4" height="5"><path paint-order="stroke fill markers" fill-rule="evenodd" d="M3.122 4.15C1.372 4.056.56 2.084.192.352c.387.498.663.866 1.16 1.511.572.756 1.18 1.53 1.77 2.285z"/></svg></svg><svg width="28" height="26" xmlns="http://www.w3.org/2000/svg" xmlns:xlink="http://www.w3.org/1999/xlink" xmlns:svgjs="http://svgjs.com/svgjs" fill="#002544" opacity=".071" x="177" y="142"><svg xmlns="http://www.w3.org/2000/svg" xmlns:xlink="http://www.w3.org/1999/xlink" width="28" height="26"><path paint-order="stroke fill markers" fill-rule="evenodd" d="M26.956 21.33c-.719.94-1.917 1.787-2.23 2.027-.018.018-.037.037-.055.037 0 0-.018 0-.018.018-.848.571-4.073 2.58-10.908 1.99-5.252-.46-9.84-2.211-13.322-3.962 6.099 1.493 20.618 4.607 23.18-.184.644-1.216.184-3.224-.738-7.241-1.769-7.628-4.55-12.069-3.003-13.45.221-.203.645-.443 1.51-.35.333.46.646.902.959 1.363.387 1.327.81 2.708 1.29 4.164.276.81.534 1.585.792 2.322 2.524 7.093 4.44 10.373 2.543 13.266z"/></svg></svg><svg width="12" height="28" xmlns="http://www.w3.org/2000/svg" xmlns:xlink="http://www.w3.org/1999/xlink" xmlns:svgjs="http://svgjs.com/svgjs" fill="#fff" opacity=".039" x="186" y="132"><svg xmlns="http://www.w3.org/2000/svg" xmlns:xlink="http://www.w3.org/1999/xlink" width="12" height="28"><path paint-order="stroke fill markers" fill-rule="evenodd" d="M10.217 27.7c-.129 0-.276-.055-.46-.129.294-.221.534-.479.663-.792 1.124-2.598-5.251-5.417-8.586-13.967-.885-2.284-2.654-6.928-.48-9.95.406-.57 1.253-1.492 2.433-2.21-.59 2.634-1.714 10.263 3.298 17.393 6.19 8.808 5.399 9.766 3.132 9.655z"/></svg></svg></svg><svg width="26" height="38" xmlns="http://www.w3.org/2000/svg" xmlns:xlink="http://www.w3.org/1999/xlink" xmlns:svgjs="http://svgjs.com/svgjs" fill="#19233d" x="186" y="108"><svg xmlns="http://www.w3.org/2000/svg" xmlns:xlink="http://www.w3.org/1999/xlink" width="26" height="38"><path paint-order="stroke fill markers" fill-rule="evenodd" d="M6.974 9.782c.516 1.935 1.087 5.012.627 8.66-.7 5.638-3.225 7.481-2.525 11.719.424 2.506 2.027 6.246 4.902 7.149 2.763.884 4.44-1.548 9.046-.774 2.045.35 2.543.958 3.575.571 2.285-.847 3.206-5.122 2.985-8.439-.405-5.84-4.201-6.56-8.347-14.998-3.243-6.615-2.45-9.305-5.546-11.497C8.338-.186 3.786.423.36 1.38 2.57 4.2 4.78 6.982 6.974 9.782z"/></svg></svg><svg width="18" height="22" xmlns="http://www.w3.org/2000/svg" xmlns:xlink="http://www.w3.org/1999/xlink" xmlns:svgjs="http://svgjs.com/svgjs" viewBox="179 110 18 22" x="179" y="110"><svg width="18" height="22" xmlns="http://www.w3.org/2000/svg" xmlns:xlink="http://www.w3.org/1999/xlink" xmlns:svgjs="http://svgjs.com/svgjs" viewBox="179 110 18 22" x="179" y="110"><svg width="18" height="22" xmlns="http://www.w3.org/2000/svg" xmlns:xlink="http://www.w3.org/1999/xlink" xmlns:svgjs="http://svgjs.com/svgjs" fill="#efddcb" x="179" y="110"><svg xmlns="http://www.w3.org/2000/svg" xmlns:xlink="http://www.w3.org/1999/xlink" width="18" height="22"><path paint-order="stroke fill markers" fill-rule="evenodd" d="M14.656 12.518c.074.405.166 1.05.055 1.824a5.314 5.314 0 0 1-.608 1.88c-1.29 2.579-2.469 4.9-4.44 5.158-1.032.13-1.861-.35-2.69-.829-1.953-1.124-2.857-2.874-3.207-3.667-1.363.609-1.897.535-2.1.314-.331-.369.147-1.161.516-3.114.129-.682.203-1.272.258-1.695-.59-.811-2.045-3.059-1.898-6.1C.579 5.37.763 1.72 3.159.542c2.026-.995 4.495.35 5.748 1.18a14.406 14.406 0 0 1 4.22 4.403l.11.166c.277.479.516.958.737 1.474 1.069-.59 2.45-.313 3.225.682.258.331.405.7.479 1.087a2.581 2.581 0 0 1-.94 2.487c-.608.498-1.382.645-2.082.498z"/></svg></svg><svg width="7" height="4" xmlns="http://www.w3.org/2000/svg" xmlns:xlink="http://www.w3.org/1999/xlink" xmlns:svgjs="http://svgjs.com/svgjs" fill="#fff" opacity=".22" x="190" y="116"><svg xmlns="http://www.w3.org/2000/svg" xmlns:xlink="http://www.w3.org/1999/xlink" width="7" height="4"><path paint-order="stroke fill markers" fill-rule="evenodd" d="M6.199 2.483C4.854 2.74.874 3.477.745 3.514L.32 1.616 2.255.326c.277.48.516.959.738 1.475a2.503 2.503 0 0 1 3.206.682z"/></svg></svg></svg><svg width="4" height="4" xmlns="http://www.w3.org/2000/svg" xmlns:xlink="http://www.w3.org/1999/xlink" xmlns:svgjs="http://svgjs.com/svgjs" x="184" y="126"><svg xmlns="http://www.w3.org/2000/svg" xmlns:xlink="http://www.w3.org/1999/xlink" width="4" height="4"><path paint-order="stroke fill markers" fill-rule="evenodd" d="M1.088 3.003a.119.119 0 0 1-.11-.11c0-.074.037-.13.11-.13.055 0 1.308-.11 1.824-1.123.221-.424.221-.83.203-1.106 0-.073.037-.129.11-.129.074 0 .13.037.13.11a2.23 2.23 0 0 1-.222 1.254c-.59 1.087-1.897 1.216-2.045 1.234z"/></svg></svg><svg width="2" height="2" xmlns="http://www.w3.org/2000/svg" xmlns:xlink="http://www.w3.org/1999/xlink" xmlns:svgjs="http://svgjs.com/svgjs" x="182" y="121"><svg xmlns="http://www.w3.org/2000/svg" xmlns:xlink="http://www.w3.org/1999/xlink" width="2" height="2"><path paint-order="stroke fill markers" fill-rule="evenodd" d="M1.43 1.444A.552.552 0 1 1 1.429.339a.552.552 0 0 1 .001 1.105z"/></svg></svg><svg width="4" height="2" xmlns="http://www.w3.org/2000/svg" xmlns:xlink="http://www.w3.org/1999/xlink" xmlns:svgjs="http://svgjs.com/svgjs" fill="#19233d" x="181" y="118"><svg xmlns="http://www.w3.org/2000/svg" xmlns:xlink="http://www.w3.org/1999/xlink" width="4" height="2"><path paint-order="stroke fill markers" fill-rule="evenodd" d="M.118.536l3.69.477-.068.53L.05 1.066l.069-.53z"/></svg></svg></svg><svg width="14" height="13" xmlns="http://www.w3.org/2000/svg" xmlns:xlink="http://www.w3.org/1999/xlink" xmlns:svgjs="http://svgjs.com/svgjs" fill="#19233d" x="179" y="108"><svg xmlns="http://www.w3.org/2000/svg" width="14" height="13"><path paint-order="stroke fill markers" fill-rule="evenodd" d="M.56 8.308c2.617 3.409 6.505 4.994 9.766 4.017 1.787-.534 2.985-1.714 3.648-2.543a10.599 10.599 0 0 0-.608-3.722c-.35-.958-1.51-4.108-4.717-5.325-.497-.184-3.758-1.418-6.283.59C.431 2.855-.305 5.655.561 8.308z"/></svg></svg></svg></svg></svg></svg>